<?xml version="1.0" encoding="UTF-8" standalone="no"?><svg xmlns="http://www.w3.org/2000/svg" xmlns:xlink="http://www.w3.org/1999/xlink" clip-rule="evenodd" stroke-miterlimit="4.00" viewBox="0 0 960 540"><desc>SVG generated by Keynote</desc><defs></defs><g transform="matrix(1.00, 0.00, -0.00, -1.00, 0.0, 540.0)"><path d="M 0.0 540.0 L 960.0 540.0 L 960.0 0.0 L 0.0 0.0 Z M 0.0 540.0 " fill="#FFFFFF"></path><path d="M 889.2 540.0 L 961.2 540.0 L 961.2 0.0 L 889.2 0.0 Z M 889.2 540.0 " fill="#343437"></path><g><clipPath id="clip-346"><path d="M 89.7 410.8 L 872.2 410.8 L 872.2 507.6 L 89.7 507.6 Z M 89.7 410.8 "></path></clipPath><g clip-path="url(#clip-346)"><text xml:space="preserve" font-family="CenturySchoolbook" font-size="44.0" fill="#000000" transform="matrix(1.00, 0.00, -0.00, -1.00, 103.0, 420.0)">R</text><text xml:space="preserve" font-family="CenturySchoolbook" font-size="44.0" fill="#000000" transform="matrix(1.00, 0.00, -0.00, -1.00, 133.8, 420.0)">e</text><text xml:space="preserve" font-family="CenturySchoolbook" font-size="44.0" fill="#000000" transform="matrix(1.00, 0.00, -0.00, -1.00, 154.8, 420.0)">p</text><text xml:space="preserve" font-family="CenturySchoolbook" font-size="44.0" fill="#000000" transform="matrix(1.00, 0.00, -0.00, -1.00, 179.1, 420.0)">a</text><text xml:space="preserve" font-family="CenturySchoolbook" font-size="44.0" fill="#000000" transform="matrix(1.00, 0.00, -0.00, -1.00, 202.5, 420.0)">i</text><text xml:space="preserve" font-family="CenturySchoolbook" font-size="44.0" fill="#000000" transform="matrix(1.00, 0.00, -0.00, -1.00, 215.4, 420.0)">r</text><text xml:space="preserve" font-family="CenturySchoolbook" font-size="44.0" fill="#000000" transform="matrix(1.00, 0.00, -0.00, -1.00, 233.9, 420.0)">i</text><text xml:space="preserve" font-family="CenturySchoolbook" font-size="44.0" fill="#000000" transform="matrix(1.00, 0.00, -0.00, -1.00, 246.8, 420.0)">n</text><text xml:space="preserve" font-family="CenturySchoolbook" font-size="44.0" fill="#000000" transform="matrix(1.00, 0.00, -0.00, -1.00, 272.7, 420.0)">g</text><text xml:space="preserve" font-family="CenturySchoolbook" font-size="44.0" fill="#000000" transform="matrix(1.00, 0.00, -0.00, -1.00, 295.3, 420.0)"> </text><text xml:space="preserve" font-family="CenturySchoolbook" font-size="44.0" fill="#000000" transform="matrix(1.00, 0.00, -0.00, -1.00, 306.5, 420.0)">D</text><text xml:space="preserve" font-family="CenturySchoolbook" font-size="44.0" fill="#000000" transform="matrix(1.00, 0.00, -0.00, -1.00, 339.8, 420.0)">e</text><text xml:space="preserve" font-family="CenturySchoolbook" font-size="44.0" fill="#000000" transform="matrix(1.00, 0.00, -0.00, -1.00, 360.8, 420.0)">l</text><text xml:space="preserve" font-family="CenturySchoolbook" font-size="44.0" fill="#000000" transform="matrix(1.00, 0.00, -0.00, -1.00, 373.6, 420.0)">a</text><text xml:space="preserve" font-family="CenturySchoolbook" font-size="44.0" fill="#000000" transform="matrix(1.00, 0.00, -0.00, -1.00, 397.1, 420.0)">y</text><text xml:space="preserve" font-family="CenturySchoolbook" font-size="44.0" fill="#000000" transform="matrix(1.00, 0.00, -0.00, -1.00, 419.8, 420.0)">e</text><text xml:space="preserve" font-family="CenturySchoolbook" font-size="44.0" fill="#000000" transform="matrix(1.00, 0.00, -0.00, -1.00, 440.8, 420.0)">d</text><text xml:space="preserve" font-family="CenturySchoolbook" font-size="44.0" fill="#000000" transform="matrix(1.00, 0.00, -0.00, -1.00, 465.0, 420.0)"> </text><text xml:space="preserve" font-family="CenturySchoolbook" font-size="44.0" fill="#000000" transform="matrix(1.00, 0.00, -0.00, -1.00, 476.3, 420.0)">W</text><text xml:space="preserve" font-family="CenturySchoolbook" font-size="44.0" fill="#000000" transform="matrix(1.00, 0.00, -0.00, -1.00, 518.4, 420.0)">r</text><text xml:space="preserve" font-family="CenturySchoolbook" font-size="44.0" fill="#000000" transform="matrix(1.00, 0.00, -0.00, -1.00, 537.0, 420.0)">i</text><text xml:space="preserve" font-family="CenturySchoolbook" font-size="44.0" fill="#000000" transform="matrix(1.00, 0.00, -0.00, -1.00, 549.8, 420.0)">t</text><text xml:space="preserve" font-family="CenturySchoolbook" font-size="44.0" fill="#000000" transform="matrix(1.00, 0.00, -0.00, -1.00, 566.0, 420.0)">e</text><text xml:space="preserve" font-family="CenturySchoolbook" font-size="44.0" fill="#000000" transform="matrix(1.00, 0.00, -0.00, -1.00, 587.0, 420.0)">s</text></g></g><g><clipPath id="clip-347"><path d="M 91.1 210.0 L 687.6 210.0 L 687.6 301.5 L 91.1 301.5 Z M 91.1 210.0 "></path></clipPath><g clip-path="url(#clip-347)"><path d="M 0.0 0.0 L 593.5 0.0 L 593.5 88.4 L 0.0 88.4 Z M 0.0 0.0 " fill="none" stroke="#515154" stroke-width="1.10" stroke-linejoin="round" transform="matrix(1.00, 0.00, 0.00, -1.00, 92.6, 299.9)"></path></g></g><g><clipPath id="clip-348"><path d="M 167.1 300.9 L 168.2 210.6 L 165.5 210.5 L 164.3 300.9 Z M 167.1 300.9 "></path></clipPath><g clip-path="url(#clip-348)"><path d="M 0.0 0.0 L 88.4 0.0 " fill="none" stroke="#6E6E74" stroke-width="0.75" stroke-linejoin="round" transform="matrix(0.01, -1.00, -1.00, -0.01, 165.7, 299.9)"></path></g></g><g><clipPath id="clip-349"><path d="M 241.3 300.9 L 242.4 210.6 L 239.6 210.5 L 238.5 300.9 Z M 241.3 300.9 "></path></clipPath><g clip-path="url(#clip-349)"><path d="M 0.0 0.0 L 88.4 0.0 " fill="none" stroke="#6E6E74" stroke-width="0.75" stroke-linejoin="round" transform="matrix(0.01, -1.00, -1.00, -0.01, 239.9, 299.9)"></path></g></g><g><clipPath id="clip-350"><path d="M 314.4 300.9 L 315.5 210.6 L 312.7 210.5 L 311.6 300.9 Z M 314.4 300.9 "></path></clipPath><g clip-path="url(#clip-350)"><path d="M 0.0 0.0 L 88.4 0.0 " fill="none" stroke="#6E6E74" stroke-width="0.75" stroke-linejoin="round" transform="matrix(0.01, -1.00, -1.00, -0.01, 313.0, 299.9)"></path></g></g><g><clipPath id="clip-351"><path d="M 389.6 300.9 L 390.8 210.6 L 388.0 210.5 L 386.9 300.9 Z M 389.6 300.9 "></path></clipPath><g clip-path="url(#clip-351)"><path d="M 0.0 0.0 L 88.4 0.0 " fill="none" stroke="#6E6E74" stroke-width="0.75" stroke-linejoin="round" transform="matrix(0.01, -1.00, -1.00, -0.01, 388.3, 299.9)"></path></g></g><g><clipPath id="clip-352"><path d="M 472.5 300.9 L 473.7 210.6 L 470.9 210.5 L 469.8 300.9 Z M 472.5 300.9 "></path></clipPath><g clip-path="url(#clip-352)"><path d="M 0.0 0.0 L 88.4 0.0 " fill="none" stroke="#6E6E74" stroke-width="0.75" stroke-linejoin="round" transform="matrix(0.01, -1.00, -1.00, -0.01, 471.2, 299.9)"></path></g></g><g><clipPath id="clip-353"><path d="M 111.6 249.3 L 687.9 249.3 L 687.9 282.1 L 111.6 282.1 Z M 111.6 249.3 "></path></clipPath><g clip-path="url(#clip-353)"><text xml:space="preserve" font-family="CenturySchoolbook" font-size="18.0" fill="#000000" transform="matrix(1.00, 0.00, -0.00, -1.00, 117.0, 259.0)">1</text><text xml:space="preserve" font-family="CenturySchoolbook" font-size="18.0" fill="#000000" transform="matrix(1.00, 0.00, -0.00, -1.00, 127.0, 259.0)"> </text><text xml:space="preserve" font-family="CenturySchoolbook" font-size="18.0" fill="#000000" transform="matrix(1.00, 0.00, -0.00, -1.00, 132.0, 259.0)"> </text><text xml:space="preserve" font-family="CenturySchoolbook" font-size="18.0" fill="#000000" transform="matrix(1.00, 0.00, -0.00, -1.00, 137.0, 259.0)"> </text><text xml:space="preserve" font-family="CenturySchoolbook" font-size="18.0" fill="#000000" transform="matrix(1.00, 0.00, -0.00, -1.00, 142.0, 259.0)"> </text><text xml:space="preserve" font-family="CenturySchoolbook" font-size="18.0" fill="#000000" transform="matrix(1.00, 0.00, -0.00, -1.00, 147.0, 259.0)"> </text><text xml:space="preserve" font-family="CenturySchoolbook" font-size="18.0" fill="#000000" transform="matrix(1.00, 0.00, -0.00, -1.00, 152.0, 259.0)"> </text><text xml:space="preserve" font-family="CenturySchoolbook" font-size="18.0" fill="#000000" transform="matrix(1.00, 0.00, -0.00, -1.00, 157.0, 259.0)"> </text><text xml:space="preserve" font-family="CenturySchoolbook" font-size="18.0" fill="#000000" transform="matrix(1.00, 0.00, -0.00, -1.00, 162.0, 259.0)"> </text><text xml:space="preserve" font-family="CenturySchoolbook" font-size="18.0" fill="#000000" transform="matrix(1.00, 0.00, -0.00, -1.00, 167.0, 259.0)"> </text><text xml:space="preserve" font-family="CenturySchoolbook" font-size="18.0" fill="#000000" transform="matrix(1.00, 0.00, -0.00, -1.00, 172.0, 259.0)"> </text><text xml:space="preserve" font-family="CenturySchoolbook" font-size="18.0" fill="#000000" transform="matrix(1.00, 0.00, -0.00, -1.00, 177.0, 259.0)"> </text><text xml:space="preserve" font-family="CenturySchoolbook" font-size="18.0" fill="#000000" transform="matrix(1.00, 0.00, -0.00, -1.00, 182.0, 259.0)"> </text><text xml:space="preserve" font-family="CenturySchoolbook" font-size="18.0" fill="#000000" transform="matrix(1.00, 0.00, -0.00, -1.00, 187.0, 259.0)"> </text><text xml:space="preserve" font-family="CenturySchoolbook" font-size="18.0" fill="#000000" transform="matrix(1.00, 0.00, -0.00, -1.00, 192.0, 259.0)"> </text><text xml:space="preserve" font-family="CenturySchoolbook" font-size="18.0" fill="#000000" transform="matrix(1.00, 0.00, -0.00, -1.00, 197.0, 259.0)">2</text><text xml:space="preserve" font-family="CenturySchoolbook" font-size="18.0" fill="#000000" transform="matrix(1.00, 0.00, -0.00, -1.00, 207.0, 259.0)"> </text><text xml:space="preserve" font-family="CenturySchoolbook" font-size="18.0" fill="#000000" transform="matrix(1.00, 0.00, -0.00, -1.00, 212.0, 259.0)"> </text><text xml:space="preserve" font-family="CenturySchoolbook" font-size="18.0" fill="#000000" transform="matrix(1.00, 0.00, -0.00, -1.00, 217.0, 259.0)"> </text><text xml:space="preserve" font-family="CenturySchoolbook" font-size="18.0" fill="#000000" transform="matrix(1.00, 0.00, -0.00, -1.00, 222.0, 259.0)"> </text><text xml:space="preserve" font-family="CenturySchoolbook" font-size="18.0" fill="#000000" transform="matrix(1.00, 0.00, -0.00, -1.00, 227.0, 259.0)"> </text><text xml:space="preserve" font-family="CenturySchoolbook" font-size="18.0" fill="#000000" transform="matrix(1.00, 0.00, -0.00, -1.00, 232.0, 259.0)"> </text><text xml:space="preserve" font-family="CenturySchoolbook" font-size="18.0" fill="#000000" transform="matrix(1.00, 0.00, -0.00, -1.00, 237.0, 259.0)"> </text><text xml:space="preserve" font-family="CenturySchoolbook" font-size="18.0" fill="#000000" transform="matrix(1.00, 0.00, -0.00, -1.00, 242.0, 259.0)"> </text><text xml:space="preserve" font-family="CenturySchoolbook" font-size="18.0" fill="#000000" transform="matrix(1.00, 0.00, -0.00, -1.00, 247.0, 259.0)"> </text><text xml:space="preserve" font-family="CenturySchoolbook" font-size="18.0" fill="#000000" transform="matrix(1.00, 0.00, -0.00, -1.00, 252.0, 259.0)"> </text><text xml:space="preserve" font-family="CenturySchoolbook" font-size="18.0" fill="#000000" transform="matrix(1.00, 0.00, -0.00, -1.00, 257.0, 259.0)"> </text><text xml:space="preserve" font-family="CenturySchoolbook" font-size="18.0" fill="#000000" transform="matrix(1.00, 0.00, -0.00, -1.00, 262.0, 259.0)"> </text><text xml:space="preserve" font-family="CenturySchoolbook" font-size="18.0" fill="#000000" transform="matrix(1.00, 0.00, -0.00, -1.00, 267.0, 259.0)">?</text><text xml:space="preserve" font-family="CenturySchoolbook" font-size="18.0" fill="#000000" transform="matrix(1.00, 0.00, -0.00, -1.00, 274.9, 259.0)"> </text><text xml:space="preserve" font-family="CenturySchoolbook" font-size="18.0" fill="#000000" transform="matrix(1.00, 0.00, -0.00, -1.00, 279.9, 259.0)"> </text><text xml:space="preserve" font-family="CenturySchoolbook" font-size="18.0" fill="#000000" transform="matrix(1.00, 0.00, -0.00, -1.00, 284.9, 259.0)"> </text><text xml:space="preserve" font-family="CenturySchoolbook" font-size="18.0" fill="#000000" transform="matrix(1.00, 0.00, -0.00, -1.00, 289.9, 259.0)"> </text><text xml:space="preserve" font-family="CenturySchoolbook" font-size="18.0" fill="#000000" transform="matrix(1.00, 0.00, -0.00, -1.00, 294.9, 259.0)"> </text><text xml:space="preserve" font-family="CenturySchoolbook" font-size="18.0" fill="#000000" transform="matrix(1.00, 0.00, -0.00, -1.00, 299.9, 259.0)"> </text><text xml:space="preserve" font-family="CenturySchoolbook" font-size="18.0" fill="#000000" transform="matrix(1.00, 0.00, -0.00, -1.00, 304.9, 259.0)"> </text><text xml:space="preserve" font-family="CenturySchoolbook" font-size="18.0" fill="#000000" transform="matrix(1.00, 0.00, -0.00, -1.00, 309.9, 259.0)"> </text><text xml:space="preserve" font-family="CenturySchoolbook" font-size="18.0" fill="#000000" transform="matrix(1.00, 0.00, -0.00, -1.00, 314.9, 259.0)"> </text><text xml:space="preserve" font-family="CenturySchoolbook" font-size="18.0" fill="#000000" transform="matrix(1.00, 0.00, -0.00, -1.00, 319.9, 259.0)"> </text><text xml:space="preserve" font-family="CenturySchoolbook" font-size="18.0" fill="#000000" transform="matrix(1.00, 0.00, -0.00, -1.00, 324.9, 259.0)"> </text><text xml:space="preserve" font-family="CenturySchoolbook" font-size="18.0" fill="#000000" transform="matrix(1.00, 0.00, -0.00, -1.00, 329.9, 259.0)">4</text><text xml:space="preserve" font-family="CenturySchoolbook" font-size="18.0" fill="#000000" transform="matrix(1.00, 0.00, -0.00, -1.00, 339.9, 259.0)"> </text><text xml:space="preserve" font-family="CenturySchoolbook" font-size="18.0" fill="#000000" transform="matrix(1.00, 0.00, -0.00, -1.00, 344.9, 259.0)"> </text><text xml:space="preserve" font-family="CenturySchoolbook" font-size="18.0" fill="#000000" transform="matrix(1.00, 0.00, -0.00, -1.00, 349.9, 259.0)"> </text><text xml:space="preserve" font-family="CenturySchoolbook" font-size="18.0" fill="#000000" transform="matrix(1.00, 0.00, -0.00, -1.00, 354.9, 259.0)"> </text><text xml:space="preserve" font-family="CenturySchoolbook" font-size="18.0" fill="#000000" transform="matrix(1.00, 0.00, -0.00, -1.00, 359.9, 259.0)"> </text><text xml:space="preserve" font-family="CenturySchoolbook" font-size="18.0" fill="#000000" transform="matrix(1.00, 0.00, -0.00, -1.00, 364.9, 259.0)"> </text><text xml:space="preserve" font-family="CenturySchoolbook" font-size="18.0" fill="#000000" transform="matrix(1.00, 0.00, -0.00, -1.00, 369.9, 259.0)"> </text><text xml:space="preserve" font-family="CenturySchoolbook" font-size="18.0" fill="#000000" transform="matrix(1.00, 0.00, -0.00, -1.00, 374.9, 259.0)"> </text><text xml:space="preserve" font-family="CenturySchoolbook" font-size="18.0" fill="#000000" transform="matrix(1.00, 0.00, -0.00, -1.00, 379.9, 259.0)"> </text><text xml:space="preserve" font-family="CenturySchoolbook" font-size="18.0" fill="#000000" transform="matrix(1.00, 0.00, -0.00, -1.00, 384.9, 259.0)"> </text><text xml:space="preserve" font-family="CenturySchoolbook" font-size="18.0" fill="#000000" transform="matrix(1.00, 0.00, -0.00, -1.00, 389.9, 259.0)"> </text><text xml:space="preserve" font-family="CenturySchoolbook" font-size="18.0" fill="#000000" transform="matrix(1.00, 0.00, -0.00, -1.00, 394.9, 259.0)"> </text><text xml:space="preserve" font-family="CenturySchoolbook" font-size="18.0" fill="#000000" transform="matrix(1.00, 0.00, -0.00, -1.00, 399.9, 259.0)"> </text><text xml:space="preserve" font-family="CenturySchoolbook" font-size="18.0" fill="#000000" transform="matrix(1.00, 0.00, -0.00, -1.00, 404.9, 259.0)"> </text><text xml:space="preserve" font-family="CenturySchoolbook" font-size="18.0" fill="#000000" transform="matrix(1.00, 0.00, -0.00, -1.00, 409.9, 259.0)"> </text><text xml:space="preserve" font-family="CenturySchoolbook" font-size="18.0" fill="#000000" transform="matrix(1.00, 0.00, -0.00, -1.00, 414.9, 259.0)">5</text><text xml:space="preserve" font-family="CenturySchoolbook" font-size="18.0" fill="#000000" transform="matrix(1.00, 0.00, -0.00, -1.00, 424.9, 259.0)"> </text><text xml:space="preserve" font-family="CenturySchoolbook" font-size="18.0" fill="#000000" transform="matrix(1.00, 0.00, -0.00, -1.00, 429.9, 259.0)"> </text><text xml:space="preserve" font-family="CenturySchoolbook" font-size="18.0" fill="#000000" transform="matrix(1.00, 0.00, -0.00, -1.00, 434.9, 259.0)"> </text><text xml:space="preserve" font-family="CenturySchoolbook" font-size="18.0" fill="#000000" transform="matrix(1.00, 0.00, -0.00, -1.00, 439.9, 259.0)"> </text><text xml:space="preserve" font-family="CenturySchoolbook" font-size="18.0" fill="#000000" transform="matrix(1.00, 0.00, -0.00, -1.00, 444.9, 259.0)"> </text><text xml:space="preserve" font-family="CenturySchoolbook" font-size="18.0" fill="#000000" transform="matrix(1.00, 0.00, -0.00, -1.00, 449.9, 259.0)"> </text><text xml:space="preserve" font-family="CenturySchoolbook" font-size="18.0" fill="#000000" transform="matrix(1.00, 0.00, -0.00, -1.00, 454.9, 259.0)"> </text><text xml:space="preserve" font-family="CenturySchoolbook" font-size="18.0" fill="#000000" transform="matrix(1.00, 0.00, -0.00, -1.00, 459.9, 259.0)"> </text><text xml:space="preserve" font-family="CenturySchoolbook" font-size="18.0" fill="#000000" transform="matrix(1.00, 0.00, -0.00, -1.00, 464.9, 259.0)"> </text><text xml:space="preserve" font-family="CenturySchoolbook" font-size="18.0" fill="#000000" transform="matrix(1.00, 0.00, -0.00, -1.00, 469.9, 259.0)"> </text><text xml:space="preserve" font-family="CenturySchoolbook" font-size="18.0" fill="#000000" transform="matrix(1.00, 0.00, -0.00, -1.00, 474.9, 259.0)"> </text><text xml:space="preserve" font-family="CenturySchoolbook" font-size="18.0" fill="#000000" transform="matrix(1.00, 0.00, -0.00, -1.00, 479.9, 259.0)"> </text><text xml:space="preserve" font-family="CenturySchoolbook" font-size="18.0" fill="#000000" transform="matrix(1.00, 0.00, -0.00, -1.00, 484.9, 259.0)"> </text><text xml:space="preserve" font-family="CenturySchoolbook" font-size="18.0" fill="#000000" transform="matrix(1.00, 0.00, -0.00, -1.00, 489.9, 259.0)"> </text><text xml:space="preserve" font-family="CenturySchoolbook" font-size="18.0" fill="#000000" transform="matrix(1.00, 0.00, -0.00, -1.00, 494.9, 259.0)"> </text><text xml:space="preserve" font-family="CenturySchoolbook" font-size="18.0" fill="#000000" transform="matrix(1.00, 0.00, -0.00, -1.00, 499.9, 259.0)">6</text><text xml:space="preserve" font-family="CenturySchoolbook" font-size="18.0" fill="#000000" transform="matrix(1.00, 0.00, -0.00, -1.00, 509.9, 259.0)"> </text><text xml:space="preserve" font-family="CenturySchoolbook" font-size="18.0" fill="#000000" transform="matrix(1.00, 0.00, -0.00, -1.00, 514.9, 259.0)"> </text><text xml:space="preserve" font-family="CenturySchoolbook" font-size="18.0" fill="#000000" transform="matrix(1.00, 0.00, -0.00, -1.00, 519.9, 259.0)"> </text><text xml:space="preserve" font-family="CenturySchoolbook" font-size="18.0" fill="#000000" transform="matrix(1.00, 0.00, -0.00, -1.00, 524.9, 259.0)"> </text><text xml:space="preserve" font-family="CenturySchoolbook" font-size="18.0" fill="#000000" transform="matrix(1.00, 0.00, -0.00, -1.00, 529.9, 259.0)"> </text><text xml:space="preserve" font-family="CenturySchoolbook" font-size="18.0" fill="#000000" transform="matrix(1.00, 0.00, -0.00, -1.00, 534.9, 259.0)"> </text><text xml:space="preserve" font-family="CenturySchoolbook" font-size="18.0" fill="#000000" transform="matrix(1.00, 0.00, -0.00, -1.00, 539.9, 259.0)"> </text><text xml:space="preserve" font-family="CenturySchoolbook" font-size="18.0" fill="#000000" transform="matrix(1.00, 0.00, -0.00, -1.00, 544.9, 259.0)">7</text><text xml:space="preserve" font-family="CenturySchoolbook" font-size="18.0" fill="#000000" transform="matrix(1.00, 0.00, -0.00, -1.00, 554.9, 259.0)"> </text><text xml:space="preserve" font-family="CenturySchoolbook" font-size="18.0" fill="#000000" transform="matrix(1.00, 0.00, -0.00, -1.00, 559.9, 259.0)">…</text><text xml:space="preserve" font-family="CenturySchoolbook" font-size="18.0" fill="#000000" transform="matrix(1.00, 0.00, -0.00, -1.00, 577.9, 259.0)"> </text></g></g><g><clipPath id="clip-354"><path d="M 472.6 364.2 L 473.7 161.5 L 470.9 161.4 L 469.8 364.2 Z M 472.6 364.2 "></path></clipPath><g clip-path="url(#clip-354)"><path d="M 0.0 0.0 L 200.7 0.0 " fill="none" stroke="#6E6E74" stroke-width="0.75" stroke-linejoin="round" transform="matrix(0.01, -1.00, -1.00, -0.01, 471.2, 363.2)"></path></g></g><g><clipPath id="clip-355"><path d="M 532.6 323.4 L 658.4 323.4 L 658.4 356.3 L 532.6 356.3 Z M 532.6 323.4 "></path></clipPath><g clip-path="url(#clip-355)"><text xml:space="preserve" font-family="CenturySchoolbook" font-size="18.0" fill="#000000" transform="matrix(1.00, 0.00, -0.00, -1.00, 538.0, 333.0)">B</text><text xml:space="preserve" font-family="CenturySchoolbook" font-size="18.0" fill="#000000" transform="matrix(1.00, 0.00, -0.00, -1.00, 551.0, 333.0)">u</text><text xml:space="preserve" font-family="CenturySchoolbook" font-size="18.0" fill="#000000" transform="matrix(1.00, 0.00, -0.00, -1.00, 562.0, 333.0)">c</text><text xml:space="preserve" font-family="CenturySchoolbook" font-size="18.0" fill="#000000" transform="matrix(1.00, 0.00, -0.00, -1.00, 570.0, 333.0)">k</text><text xml:space="preserve" font-family="CenturySchoolbook" font-size="18.0" fill="#000000" transform="matrix(1.00, 0.00, -0.00, -1.00, 580.6, 333.0)">e</text><text xml:space="preserve" font-family="CenturySchoolbook" font-size="18.0" fill="#000000" transform="matrix(1.00, 0.00, -0.00, -1.00, 589.6, 333.0)">t</text><text xml:space="preserve" font-family="CenturySchoolbook" font-size="18.0" fill="#000000" transform="matrix(1.00, 0.00, -0.00, -1.00, 596.7, 333.0)"> </text><text xml:space="preserve" font-family="CenturySchoolbook" font-size="18.0" fill="#000000" transform="matrix(1.00, 0.00, -0.00, -1.00, 601.7, 333.0)">2</text></g></g><g><clipPath id="clip-356"><path d="M 139.4 323.4 L 275.6 323.4 L 275.6 356.3 L 139.4 356.3 Z M 139.4 323.4 "></path></clipPath><g clip-path="url(#clip-356)"><text xml:space="preserve" font-family="CenturySchoolbook" font-size="18.0" fill="#000000" transform="matrix(1.00, 0.00, -0.00, -1.00, 145.0, 333.0)">B</text><text xml:space="preserve" font-family="CenturySchoolbook" font-size="18.0" fill="#000000" transform="matrix(1.00, 0.00, -0.00, -1.00, 158.0, 333.0)">u</text><text xml:space="preserve" font-family="CenturySchoolbook" font-size="18.0" fill="#000000" transform="matrix(1.00, 0.00, -0.00, -1.00, 169.0, 333.0)">c</text><text xml:space="preserve" font-family="CenturySchoolbook" font-size="18.0" fill="#000000" transform="matrix(1.00, 0.00, -0.00, -1.00, 177.0, 333.0)">k</text><text xml:space="preserve" font-family="CenturySchoolbook" font-size="18.0" fill="#000000" transform="matrix(1.00, 0.00, -0.00, -1.00, 187.6, 333.0)">e</text><text xml:space="preserve" font-family="CenturySchoolbook" font-size="18.0" fill="#000000" transform="matrix(1.00, 0.00, -0.00, -1.00, 196.6, 333.0)">t</text><text xml:space="preserve" font-family="CenturySchoolbook" font-size="18.0" fill="#000000" transform="matrix(1.00, 0.00, -0.00, -1.00, 203.7, 333.0)"> </text><text xml:space="preserve" font-family="CenturySchoolbook" font-size="18.0" fill="#000000" transform="matrix(1.00, 0.00, -0.00, -1.00, 208.7, 333.0)">1</text></g></g><g><clipPath id="clip-357"><path d="M 502.5 150.8 L 501.3 205.1 L 506.5 205.3 L 507.7 150.9 Z M 502.5 150.8 "></path></clipPath><g clip-path="url(#clip-357)"><path d="M 0.0 0.0 L 48.5 0.0 L 48.9 0.0 " fill="none" stroke="#6E6E74" stroke-width="0.75" stroke-linejoin="round" transform="matrix(-0.02, 1.00, 1.00, 0.02, 505.0, 151.8)"></path><path d="M 502.4 200.9 L 504.0 204.2 L 505.6 201.0 Z M 502.4 200.9 " fill="#6E6E74"></path></g></g><g><clipPath id="clip-358"><path d="M 482.1 88.6 L 589.0 88.6 L 589.0 143.4 L 482.1 143.4 Z M 482.1 88.6 "></path></clipPath><g clip-path="url(#clip-358)"><text xml:space="preserve" font-family="CenturySchoolbook" font-size="18.0" fill="#000000" transform="matrix(1.00, 0.00, -0.00, -1.00, 487.0, 120.0)">R</text><text xml:space="preserve" font-family="CenturySchoolbook" font-size="18.0" fill="#000000" transform="matrix(1.00, 0.00, -0.00, -1.00, 500.0, 120.0)">e</text><text xml:space="preserve" font-family="CenturySchoolbook" font-size="18.0" fill="#000000" transform="matrix(1.00, 0.00, -0.00, -1.00, 509.0, 120.0)">a</text><text xml:space="preserve" font-family="CenturySchoolbook" font-size="18.0" fill="#000000" transform="matrix(1.00, 0.00, -0.00, -1.00, 519.0, 120.0)">d</text><text xml:space="preserve" font-family="CenturySchoolbook" font-size="18.0" fill="#000000" transform="matrix(1.00, 0.00, -0.00, -1.00, 529.4, 120.0)">e</text><text xml:space="preserve" font-family="CenturySchoolbook" font-size="18.0" fill="#000000" transform="matrix(1.00, 0.00, -0.00, -1.00, 538.4, 120.0)">r</text><text xml:space="preserve" font-family="CenturySchoolbook" font-size="18.0" fill="#000000" transform="matrix(1.00, 0.00, -0.00, -1.00, 546.3, 120.0)"> </text><text xml:space="preserve" font-family="CenturySchoolbook" font-size="18.0" fill="#000000" transform="matrix(1.00, 0.00, -0.00, -1.00, 551.3, 120.0)">@</text><text xml:space="preserve" font-family="CenturySchoolbook" font-size="18.0" fill="#000000" transform="matrix(1.00, 0.00, -0.00, -1.00, 564.6, 120.0)"> </text><text xml:space="preserve" font-family="CenturySchoolbook" font-size="18.0" fill="#000000" transform="matrix(1.00, 0.00, -0.00, -1.00, 487.0, 98.0)">b</text><text xml:space="preserve" font-family="CenturySchoolbook" font-size="18.0" fill="#000000" transform="matrix(1.00, 0.00, -0.00, -1.00, 497.0, 98.0)">u</text><text xml:space="preserve" font-family="CenturySchoolbook" font-size="18.0" fill="#000000" transform="matrix(1.00, 0.00, -0.00, -1.00, 508.0, 98.0)">c</text><text xml:space="preserve" font-family="CenturySchoolbook" font-size="18.0" fill="#000000" transform="matrix(1.00, 0.00, -0.00, -1.00, 516.0, 98.0)">k</text><text xml:space="preserve" font-family="CenturySchoolbook" font-size="18.0" fill="#000000" transform="matrix(1.00, 0.00, -0.00, -1.00, 526.7, 98.0)">e</text><text xml:space="preserve" font-family="CenturySchoolbook" font-size="18.0" fill="#000000" transform="matrix(1.00, 0.00, -0.00, -1.00, 535.7, 98.0)">t</text><text xml:space="preserve" font-family="CenturySchoolbook" font-size="18.0" fill="#000000" transform="matrix(1.00, 0.00, -0.00, -1.00, 542.7, 98.0)"> </text><text xml:space="preserve" font-family="CenturySchoolbook" font-size="18.0" fill="#000000" transform="matrix(1.00, 0.00, -0.00, -1.00, 547.7, 98.0)">2</text></g></g><g><clipPath id="clip-359"><path d="M 271.2 161.5 L 271.2 201.6 L 276.4 201.6 L 276.4 161.5 Z M 271.2 161.5 "></path></clipPath><g clip-path="url(#clip-359)"><path d="M 0.0 0.0 L 34.3 0.0 L 34.7 0.0 " fill="none" stroke="#6E6E74" stroke-width="0.75" stroke-linejoin="round" transform="matrix(0.00, 1.00, 1.00, 0.00, 273.8, 162.5)"></path><path d="M 272.2 197.4 L 273.8 200.6 L 275.4 197.4 Z M 272.2 197.4 " fill="#6E6E74"></path></g></g><g><clipPath id="clip-360"><path d="M 225.6 107.2 L 379.7 107.2 L 379.7 162.0 L 225.6 162.0 Z M 225.6 107.2 "></path></clipPath><g clip-path="url(#clip-360)"><text xml:space="preserve" font-family="CenturySchoolbook" font-size="18.0" fill="#000000" transform="matrix(1.00, 0.00, -0.00, -1.00, 231.0, 138.0)">M</text><text xml:space="preserve" font-family="CenturySchoolbook" font-size="18.0" fill="#000000" transform="matrix(1.00, 0.00, -0.00, -1.00, 248.0, 138.0)">e</text><text xml:space="preserve" font-family="CenturySchoolbook" font-size="18.0" fill="#000000" transform="matrix(1.00, 0.00, -0.00, -1.00, 257.0, 138.0)">s</text><text xml:space="preserve" font-family="CenturySchoolbook" font-size="18.0" fill="#000000" transform="matrix(1.00, 0.00, -0.00, -1.00, 265.3, 138.0)">s</text><text xml:space="preserve" font-family="CenturySchoolbook" font-size="18.0" fill="#000000" transform="matrix(1.00, 0.00, -0.00, -1.00, 273.6, 138.0)">a</text><text xml:space="preserve" font-family="CenturySchoolbook" font-size="18.0" fill="#000000" transform="matrix(1.00, 0.00, -0.00, -1.00, 283.7, 138.0)">g</text><text xml:space="preserve" font-family="CenturySchoolbook" font-size="18.0" fill="#000000" transform="matrix(1.00, 0.00, -0.00, -1.00, 293.3, 138.0)">e</text><text xml:space="preserve" font-family="CenturySchoolbook" font-size="18.0" fill="#000000" transform="matrix(1.00, 0.00, -0.00, -1.00, 302.3, 138.0)"> </text><text xml:space="preserve" font-family="CenturySchoolbook" font-size="18.0" fill="#000000" transform="matrix(1.00, 0.00, -0.00, -1.00, 307.3, 138.0)">3</text><text xml:space="preserve" font-family="CenturySchoolbook" font-size="18.0" fill="#000000" transform="matrix(1.00, 0.00, -0.00, -1.00, 317.3, 138.0)"> </text><text xml:space="preserve" font-family="CenturySchoolbook" font-size="18.0" fill="#000000" transform="matrix(1.00, 0.00, -0.00, -1.00, 231.0, 116.0)">m</text><text xml:space="preserve" font-family="CenturySchoolbook" font-size="18.0" fill="#000000" transform="matrix(1.00, 0.00, -0.00, -1.00, 247.0, 116.0)">i</text><text xml:space="preserve" font-family="CenturySchoolbook" font-size="18.0" fill="#000000" transform="matrix(1.00, 0.00, -0.00, -1.00, 252.7, 116.0)">s</text><text xml:space="preserve" font-family="CenturySchoolbook" font-size="18.0" fill="#000000" transform="matrix(1.00, 0.00, -0.00, -1.00, 261.0, 116.0)">s</text><text xml:space="preserve" font-family="CenturySchoolbook" font-size="18.0" fill="#000000" transform="matrix(1.00, 0.00, -0.00, -1.00, 269.4, 116.0)">i</text><text xml:space="preserve" font-family="CenturySchoolbook" font-size="18.0" fill="#000000" transform="matrix(1.00, 0.00, -0.00, -1.00, 275.0, 116.0)">n</text><text xml:space="preserve" font-family="CenturySchoolbook" font-size="18.0" fill="#000000" transform="matrix(1.00, 0.00, -0.00, -1.00, 286.0, 116.0)">g</text></g></g><g><clipPath id="clip-361"><path d="M 529.5 301.6 L 530.6 211.3 L 527.9 211.2 L 526.8 301.6 Z M 529.5 301.6 "></path></clipPath><g clip-path="url(#clip-361)"><path d="M 0.0 0.0 L 88.4 0.0 " fill="none" stroke="#6E6E74" stroke-width="0.75" stroke-linejoin="round" transform="matrix(0.01, -1.00, -1.00, -0.01, 528.2, 300.6)"></path></g></g><g><clipPath id="clip-362"><path d="M 452.4 210.0 L 472.7 210.0 L 472.7 301.5 L 452.4 301.5 Z M 452.4 210.0 "></path></clipPath><g clip-path="url(#clip-362)"><path d="M 454.0 299.9 L 471.2 299.9 L 471.2 211.5 L 454.0 211.5 Z M 454.0 299.9 " fill="#00B050"></path><path d="M 0.0 0.0 L 17.2 0.0 L 17.2 88.4 L 0.0 88.4 Z M 0.0 0.0 " fill="none" stroke="#515154" stroke-width="1.10" stroke-linejoin="round" transform="matrix(1.00, 0.00, 0.00, -1.00, 454.0, 299.9)"></path></g></g><g><clipPath id="clip-363"><path d="M 457.1 147.9 L 456.0 202.3 L 461.2 202.4 L 462.3 148.0 Z M 457.1 147.9 "></path></clipPath><g clip-path="url(#clip-363)"><path d="M 0.0 0.0 L 48.5 0.0 L 48.9 0.0 " fill="none" stroke="#6E6E74" stroke-width="0.75" stroke-linejoin="round" transform="matrix(-0.02, 1.00, 1.00, 0.02, 459.7, 149.0)"></path><path d="M 457.1 198.1 L 458.6 201.3 L 460.3 198.1 Z M 457.1 198.1 " fill="#6E6E74"></path></g></g><g><clipPath id="clip-364"><path d="M 351.1 149.4 L 478.5 149.4 L 478.5 182.2 L 351.1 182.2 Z M 351.1 149.4 "></path></clipPath><g clip-path="url(#clip-364)"><text xml:space="preserve" font-family="CenturySchoolbook" font-size="18.0" fill="#000000" transform="matrix(1.00, 0.00, -0.00, -1.00, 356.0, 159.0)">T</text><text xml:space="preserve" font-family="CenturySchoolbook" font-size="18.0" fill="#000000" transform="matrix(1.00, 0.00, -0.00, -1.00, 368.0, 159.0)">o</text><text xml:space="preserve" font-family="CenturySchoolbook" font-size="18.0" fill="#000000" transform="matrix(1.00, 0.00, -0.00, -1.00, 377.0, 159.0)">m</text><text xml:space="preserve" font-family="CenturySchoolbook" font-size="18.0" fill="#000000" transform="matrix(1.00, 0.00, -0.00, -1.00, 393.0, 159.0)">b</text><text xml:space="preserve" font-family="CenturySchoolbook" font-size="18.0" fill="#000000" transform="matrix(1.00, 0.00, -0.00, -1.00, 403.0, 159.0)">s</text><text xml:space="preserve" font-family="CenturySchoolbook" font-size="18.0" fill="#000000" transform="matrix(1.00, 0.00, -0.00, -1.00, 411.4, 159.0)">t</text><text xml:space="preserve" font-family="CenturySchoolbook" font-size="18.0" fill="#000000" transform="matrix(1.00, 0.00, -0.00, -1.00, 418.4, 159.0)">o</text><text xml:space="preserve" font-family="CenturySchoolbook" font-size="18.0" fill="#000000" transform="matrix(1.00, 0.00, -0.00, -1.00, 427.4, 159.0)">n</text><text xml:space="preserve" font-family="CenturySchoolbook" font-size="18.0" fill="#000000" transform="matrix(1.00, 0.00, -0.00, -1.00, 438.4, 159.0)">e</text></g></g><path d="M 0.0 0.0 L 60.5 0.0 L 61.0 0.0 " fill="none" stroke="#6E6E74" stroke-width="1.10" stroke-linejoin="round" transform="matrix(0.00, 1.00, 1.00, 0.00, 94.0, 134.2)"></path><path d="M 97.2 194.6 L 94.0 201.0 L 90.8 194.6 Z M 97.2 194.6 " fill="#6E6E74"></path><text xml:space="preserve" font-family="CenturySchoolbook" font-size="18.0" fill="#000000" transform="matrix(1.00, 0.00, -0.00, -1.00, 48.0, 103.0)">R</text><text xml:space="preserve" font-family="CenturySchoolbook" font-size="18.0" fill="#000000" transform="matrix(1.00, 0.00, -0.00, -1.00, 61.0, 103.0)">e</text><text xml:space="preserve" font-family="CenturySchoolbook" font-size="18.0" fill="#000000" transform="matrix(1.00, 0.00, -0.00, -1.00, 70.0, 103.0)">p</text><text xml:space="preserve" font-family="CenturySchoolbook" font-size="18.0" fill="#000000" transform="matrix(1.00, 0.00, -0.00, -1.00, 80.3, 103.0)">a</text><text xml:space="preserve" font-family="CenturySchoolbook" font-size="18.0" fill="#000000" transform="matrix(1.00, 0.00, -0.00, -1.00, 90.4, 103.0)">i</text><text xml:space="preserve" font-family="CenturySchoolbook" font-size="18.0" fill="#000000" transform="matrix(1.00, 0.00, -0.00, -1.00, 96.0, 103.0)">r</text><text xml:space="preserve" font-family="CenturySchoolbook" font-size="18.0" fill="#000000" transform="matrix(1.00, 0.00, -0.00, -1.00, 104.0, 103.0)"> </text><text xml:space="preserve" font-family="CenturySchoolbook" font-size="18.0" fill="#000000" transform="matrix(1.00, 0.00, -0.00, -1.00, 109.0, 103.0)">P</text><text xml:space="preserve" font-family="CenturySchoolbook" font-size="18.0" fill="#000000" transform="matrix(1.00, 0.00, -0.00, -1.00, 121.0, 103.0)">o</text><text xml:space="preserve" font-family="CenturySchoolbook" font-size="18.0" fill="#000000" transform="matrix(1.00, 0.00, -0.00, -1.00, 130.0, 103.0)">i</text><text xml:space="preserve" font-family="CenturySchoolbook" font-size="18.0" fill="#000000" transform="matrix(1.00, 0.00, -0.00, -1.00, 135.7, 103.0)">n</text><text xml:space="preserve" font-family="CenturySchoolbook" font-size="18.0" fill="#000000" transform="matrix(1.00, 0.00, -0.00, -1.00, 146.7, 103.0)">t</text><text xml:space="preserve" font-family="CenturySchoolbook" font-size="18.0" fill="#000000" transform="matrix(1.00, 0.00, -0.00, -1.00, 153.7, 103.0)">e</text><text xml:space="preserve" font-family="CenturySchoolbook" font-size="18.0" fill="#000000" transform="matrix(1.00, 0.00, -0.00, -1.00, 162.7, 103.0)">r</text><text xml:space="preserve" font-family="CenturySchoolbook" font-size="18.0" fill="#000000" transform="matrix(1.00, 0.00, -0.00, -1.00, 170.7, 103.0)"> </text><text xml:space="preserve" font-family="CenturySchoolbook" font-size="18.0" fill="#000000" transform="matrix(1.00, 0.00, -0.00, -1.00, 48.0, 81.0)">@</text><text xml:space="preserve" font-family="CenturySchoolbook" font-size="18.0" fill="#000000" transform="matrix(1.00, 0.00, -0.00, -1.00, 61.3, 81.0)"> </text><text xml:space="preserve" font-family="CenturySchoolbook" font-size="18.0" fill="#000000" transform="matrix(1.00, 0.00, -0.00, -1.00, 66.3, 81.0)">b</text><text xml:space="preserve" font-family="CenturySchoolbook" font-size="18.0" fill="#000000" transform="matrix(1.00, 0.00, -0.00, -1.00, 76.3, 81.0)">u</text><text xml:space="preserve" font-family="CenturySchoolbook" font-size="18.0" fill="#000000" transform="matrix(1.00, 0.00, -0.00, -1.00, 87.3, 81.0)">c</text><text xml:space="preserve" font-family="CenturySchoolbook" font-size="18.0" fill="#000000" transform="matrix(1.00, 0.00, -0.00, -1.00, 95.2, 81.0)">k</text><text xml:space="preserve" font-family="CenturySchoolbook" font-size="18.0" fill="#000000" transform="matrix(1.00, 0.00, -0.00, -1.00, 105.9, 81.0)">e</text><text xml:space="preserve" font-family="CenturySchoolbook" font-size="18.0" fill="#000000" transform="matrix(1.00, 0.00, -0.00, -1.00, 114.9, 81.0)">t</text><text xml:space="preserve" font-family="CenturySchoolbook" font-size="18.0" fill="#000000" transform="matrix(1.00, 0.00, -0.00, -1.00, 121.9, 81.0)"> </text><text xml:space="preserve" font-family="CenturySchoolbook" font-size="18.0" fill="#000000" transform="matrix(1.00, 0.00, -0.00, -1.00, 126.9, 81.0)">1</text></g></svg>