<?xml version="1.0" encoding="UTF-8" standalone="no"?><svg xmlns="http://www.w3.org/2000/svg" xmlns:xlink="http://www.w3.org/1999/xlink" clip-rule="evenodd" stroke-miterlimit="4.00" viewBox="0 0 960 540"><desc>SVG generated by Keynote</desc><defs></defs><g transform="matrix(1.00, 0.00, -0.00, -1.00, 0.0, 540.0)"><path d="M 0.0 540.0 L 960.0 540.0 L 960.0 0.0 L 0.0 0.0 Z M 0.0 540.0 " fill="#FFFFFF"></path><path d="M 889.2 540.0 L 961.2 540.0 L 961.2 0.0 L 889.2 0.0 Z M 889.2 540.0 " fill="#343437"></path><g><clipPath id="clip-67"><path d="M 89.7 410.8 L 872.2 410.8 L 872.2 507.6 L 89.7 507.6 Z M 89.7 410.8 "></path></clipPath><g clip-path="url(#clip-67)"><text xml:space="preserve" font-family="CenturySchoolbook" font-size="44.0" fill="#000000" transform="matrix(1.00, 0.00, -0.00, -1.00, 103.0, 420.0)">R</text><text xml:space="preserve" font-family="CenturySchoolbook" font-size="44.0" fill="#000000" transform="matrix(1.00, 0.00, -0.00, -1.00, 133.8, 420.0)">e</text><text xml:space="preserve" font-family="CenturySchoolbook" font-size="44.0" fill="#000000" transform="matrix(1.00, 0.00, -0.00, -1.00, 154.8, 420.0)">p</text><text xml:space="preserve" font-family="CenturySchoolbook" font-size="44.0" fill="#000000" transform="matrix(1.00, 0.00, -0.00, -1.00, 179.1, 420.0)">a</text><text xml:space="preserve" font-family="CenturySchoolbook" font-size="44.0" fill="#000000" transform="matrix(1.00, 0.00, -0.00, -1.00, 202.5, 420.0)">i</text><text xml:space="preserve" font-family="CenturySchoolbook" font-size="44.0" fill="#000000" transform="matrix(1.00, 0.00, -0.00, -1.00, 215.4, 420.0)">r</text><text xml:space="preserve" font-family="CenturySchoolbook" font-size="44.0" fill="#000000" transform="matrix(1.00, 0.00, -0.00, -1.00, 233.9, 420.0)">i</text><text xml:space="preserve" font-family="CenturySchoolbook" font-size="44.0" fill="#000000" transform="matrix(1.00, 0.00, -0.00, -1.00, 246.8, 420.0)">n</text><text xml:space="preserve" font-family="CenturySchoolbook" font-size="44.0" fill="#000000" transform="matrix(1.00, 0.00, -0.00, -1.00, 272.7, 420.0)">g</text><text xml:space="preserve" font-family="CenturySchoolbook" font-size="44.0" fill="#000000" transform="matrix(1.00, 0.00, -0.00, -1.00, 295.3, 420.0)"> </text><text xml:space="preserve" font-family="CenturySchoolbook" font-size="44.0" fill="#000000" transform="matrix(1.00, 0.00, -0.00, -1.00, 306.5, 420.0)">D</text><text xml:space="preserve" font-family="CenturySchoolbook" font-size="44.0" fill="#000000" transform="matrix(1.00, 0.00, -0.00, -1.00, 339.8, 420.0)">e</text><text xml:space="preserve" font-family="CenturySchoolbook" font-size="44.0" fill="#000000" transform="matrix(1.00, 0.00, -0.00, -1.00, 360.8, 420.0)">l</text><text xml:space="preserve" font-family="CenturySchoolbook" font-size="44.0" fill="#000000" transform="matrix(1.00, 0.00, -0.00, -1.00, 373.6, 420.0)">a</text><text xml:space="preserve" font-family="CenturySchoolbook" font-size="44.0" fill="#000000" transform="matrix(1.00, 0.00, -0.00, -1.00, 397.1, 420.0)">y</text><text xml:space="preserve" font-family="CenturySchoolbook" font-size="44.0" fill="#000000" transform="matrix(1.00, 0.00, -0.00, -1.00, 419.8, 420.0)">e</text><text xml:space="preserve" font-family="CenturySchoolbook" font-size="44.0" fill="#000000" transform="matrix(1.00, 0.00, -0.00, -1.00, 440.8, 420.0)">d</text><text xml:space="preserve" font-family="CenturySchoolbook" font-size="44.0" fill="#000000" transform="matrix(1.00, 0.00, -0.00, -1.00, 465.0, 420.0)"> </text><text xml:space="preserve" font-family="CenturySchoolbook" font-size="44.0" fill="#000000" transform="matrix(1.00, 0.00, -0.00, -1.00, 476.3, 420.0)">W</text><text xml:space="preserve" font-family="CenturySchoolbook" font-size="44.0" fill="#000000" transform="matrix(1.00, 0.00, -0.00, -1.00, 518.4, 420.0)">r</text><text xml:space="preserve" font-family="CenturySchoolbook" font-size="44.0" fill="#000000" transform="matrix(1.00, 0.00, -0.00, -1.00, 537.0, 420.0)">i</text><text xml:space="preserve" font-family="CenturySchoolbook" font-size="44.0" fill="#000000" transform="matrix(1.00, 0.00, -0.00, -1.00, 549.8, 420.0)">t</text><text xml:space="preserve" font-family="CenturySchoolbook" font-size="44.0" fill="#000000" transform="matrix(1.00, 0.00, -0.00, -1.00, 566.0, 420.0)">e</text><text xml:space="preserve" font-family="CenturySchoolbook" font-size="44.0" fill="#000000" transform="matrix(1.00, 0.00, -0.00, -1.00, 587.0, 420.0)">s</text></g></g><text xml:space="preserve" font-family="ArialMT" font-size="14.4" fill="#6E6E74" transform="matrix(1.00, 0.00, -0.00, -1.00, 103.0, 376.7)">•</text><text xml:space="preserve" font-family="CenturySchoolbook" font-size="18.0" fill="#000000" transform="matrix(1.00, 0.00, -0.00, -1.00, 117.0, 374.0)">S</text><text xml:space="preserve" font-family="CenturySchoolbook" font-size="18.0" fill="#000000" transform="matrix(1.00, 0.00, -0.00, -1.00, 128.3, 374.0)">c</text><text xml:space="preserve" font-family="CenturySchoolbook" font-size="18.0" fill="#000000" transform="matrix(1.00, 0.00, -0.00, -1.00, 136.3, 374.0)">e</text><text xml:space="preserve" font-family="CenturySchoolbook" font-size="18.0" fill="#000000" transform="matrix(1.00, 0.00, -0.00, -1.00, 145.3, 374.0)">n</text><text xml:space="preserve" font-family="CenturySchoolbook" font-size="18.0" fill="#000000" transform="matrix(1.00, 0.00, -0.00, -1.00, 156.3, 374.0)">a</text><text xml:space="preserve" font-family="CenturySchoolbook" font-size="18.0" fill="#000000" transform="matrix(1.00, 0.00, -0.00, -1.00, 166.3, 374.0)">r</text><text xml:space="preserve" font-family="CenturySchoolbook" font-size="18.0" fill="#000000" transform="matrix(1.00, 0.00, -0.00, -1.00, 174.3, 374.0)">i</text><text xml:space="preserve" font-family="CenturySchoolbook" font-size="18.0" fill="#000000" transform="matrix(1.00, 0.00, -0.00, -1.00, 180.0, 374.0)">o</text><text xml:space="preserve" font-family="CenturySchoolbook" font-size="18.0" fill="#000000" transform="matrix(1.00, 0.00, -0.00, -1.00, 189.0, 374.0)">s</text><text xml:space="preserve" font-family="CenturySchoolbook" font-size="18.0" fill="#000000" transform="matrix(1.00, 0.00, -0.00, -1.00, 197.3, 374.0)">:</text><text xml:space="preserve" font-family="CenturySchoolbook" font-size="18.0" fill="#000000" transform="matrix(1.00, 0.00, -0.00, -1.00, 202.3, 374.0)"> </text><text xml:space="preserve" font-family="LucidaGrande" font-size="16.0" fill="#6E6E74" transform="matrix(1.00, 0.00, -0.00, -1.00, 124.6, 353.4)">●</text><text xml:space="preserve" font-family="CenturySchoolbook" font-size="16.0" fill="#262626" transform="matrix(1.00, 0.00, -0.00, -1.00, 139.0, 353.0)">M</text><text xml:space="preserve" font-family="CenturySchoolbook" font-size="16.0" fill="#262626" transform="matrix(1.00, 0.00, -0.00, -1.00, 154.1, 353.0)">e</text><text xml:space="preserve" font-family="CenturySchoolbook" font-size="16.0" fill="#262626" transform="matrix(1.00, 0.00, -0.00, -1.00, 162.1, 353.0)">s</text><text xml:space="preserve" font-family="CenturySchoolbook" font-size="16.0" fill="#262626" transform="matrix(1.00, 0.00, -0.00, -1.00, 169.5, 353.0)">s</text><text xml:space="preserve" font-family="CenturySchoolbook" font-size="16.0" fill="#262626" transform="matrix(1.00, 0.00, -0.00, -1.00, 176.9, 353.0)">a</text><text xml:space="preserve" font-family="CenturySchoolbook" font-size="16.0" fill="#262626" transform="matrix(1.00, 0.00, -0.00, -1.00, 185.8, 353.0)">g</text><text xml:space="preserve" font-family="CenturySchoolbook" font-size="16.0" fill="#262626" transform="matrix(1.00, 0.00, -0.00, -1.00, 194.4, 353.0)">e</text><text xml:space="preserve" font-family="CenturySchoolbook" font-size="16.0" fill="#262626" transform="matrix(1.00, 0.00, -0.00, -1.00, 202.4, 353.0)"> </text><text xml:space="preserve" font-family="CenturySchoolbook" font-size="16.0" fill="#262626" transform="matrix(1.00, 0.00, -0.00, -1.00, 206.8, 353.0)">t</text><text xml:space="preserve" font-family="CenturySchoolbook" font-size="16.0" fill="#262626" transform="matrix(1.00, 0.00, -0.00, -1.00, 213.1, 353.0)">a</text><text xml:space="preserve" font-family="CenturySchoolbook" font-size="16.0" fill="#262626" transform="matrix(1.00, 0.00, -0.00, -1.00, 222.0, 353.0)">k</text><text xml:space="preserve" font-family="CenturySchoolbook" font-size="16.0" fill="#262626" transform="matrix(1.00, 0.00, -0.00, -1.00, 231.5, 353.0)">i</text><text xml:space="preserve" font-family="CenturySchoolbook" font-size="16.0" fill="#262626" transform="matrix(1.00, 0.00, -0.00, -1.00, 236.5, 353.0)">n</text><text xml:space="preserve" font-family="CenturySchoolbook" font-size="16.0" fill="#262626" transform="matrix(1.00, 0.00, -0.00, -1.00, 246.3, 353.0)">g</text><text xml:space="preserve" font-family="CenturySchoolbook" font-size="16.0" fill="#262626" transform="matrix(1.00, 0.00, -0.00, -1.00, 254.9, 353.0)"> </text><text xml:space="preserve" font-family="CenturySchoolbook" font-size="16.0" fill="#262626" transform="matrix(1.00, 0.00, -0.00, -1.00, 259.3, 353.0)">i</text><text xml:space="preserve" font-family="CenturySchoolbook" font-size="16.0" fill="#262626" transform="matrix(1.00, 0.00, -0.00, -1.00, 264.3, 353.0)">t</text><text xml:space="preserve" font-family="CenturySchoolbook" font-size="16.0" fill="#262626" transform="matrix(1.00, 0.00, -0.00, -1.00, 270.6, 353.0)">s</text><text xml:space="preserve" font-family="CenturySchoolbook" font-size="16.0" fill="#262626" transform="matrix(1.00, 0.00, -0.00, -1.00, 278.0, 353.0)"> </text><text xml:space="preserve" font-family="CenturySchoolbook" font-size="16.0" fill="#262626" transform="matrix(1.00, 0.00, -0.00, -1.00, 282.4, 353.0)">t</text><text xml:space="preserve" font-family="CenturySchoolbook" font-size="16.0" fill="#262626" transform="matrix(1.00, 0.00, -0.00, -1.00, 288.6, 353.0)">i</text><text xml:space="preserve" font-family="CenturySchoolbook" font-size="16.0" fill="#262626" transform="matrix(1.00, 0.00, -0.00, -1.00, 293.7, 353.0)">m</text><text xml:space="preserve" font-family="CenturySchoolbook" font-size="16.0" fill="#262626" transform="matrix(1.00, 0.00, -0.00, -1.00, 307.9, 353.0)">e</text><text xml:space="preserve" font-family="CenturySchoolbook" font-size="16.0" fill="#262626" transform="matrix(1.00, 0.00, -0.00, -1.00, 315.9, 353.0)"> </text><text xml:space="preserve" font-family="CenturySchoolbook" font-size="16.0" fill="#262626" transform="matrix(1.00, 0.00, -0.00, -1.00, 320.4, 353.0)">w</text><text xml:space="preserve" font-family="CenturySchoolbook" font-size="16.0" fill="#262626" transform="matrix(1.00, 0.00, -0.00, -1.00, 332.8, 353.0)">r</text><text xml:space="preserve" font-family="CenturySchoolbook" font-size="16.0" fill="#262626" transform="matrix(1.00, 0.00, -0.00, -1.00, 339.9, 353.0)">i</text><text xml:space="preserve" font-family="CenturySchoolbook" font-size="16.0" fill="#262626" transform="matrix(1.00, 0.00, -0.00, -1.00, 344.9, 353.0)">t</text><text xml:space="preserve" font-family="CenturySchoolbook" font-size="16.0" fill="#262626" transform="matrix(1.00, 0.00, -0.00, -1.00, 351.2, 353.0)">i</text><text xml:space="preserve" font-family="CenturySchoolbook" font-size="16.0" fill="#262626" transform="matrix(1.00, 0.00, -0.00, -1.00, 356.2, 353.0)">n</text><text xml:space="preserve" font-family="CenturySchoolbook" font-size="16.0" fill="#262626" transform="matrix(1.00, 0.00, -0.00, -1.00, 366.0, 353.0)">g</text><text xml:space="preserve" font-family="CenturySchoolbook" font-size="16.0" fill="#262626" transform="matrix(1.00, 0.00, -0.00, -1.00, 374.6, 353.0)"> </text><text xml:space="preserve" font-family="CenturySchoolbook" font-size="16.0" fill="#262626" transform="matrix(1.00, 0.00, -0.00, -1.00, 379.0, 353.0)">(</text><text xml:space="preserve" font-family="CenturySchoolbook" font-size="16.0" fill="#262626" transform="matrix(1.00, 0.00, -0.00, -1.00, 384.3, 353.0)">s</text><text xml:space="preserve" font-family="CenturySchoolbook" font-size="16.0" fill="#262626" transform="matrix(1.00, 0.00, -0.00, -1.00, 391.7, 353.0)">t</text><text xml:space="preserve" font-family="CenturySchoolbook" font-size="16.0" fill="#262626" transform="matrix(1.00, 0.00, -0.00, -1.00, 398.0, 353.0)">i</text><text xml:space="preserve" font-family="CenturySchoolbook" font-size="16.0" fill="#262626" transform="matrix(1.00, 0.00, -0.00, -1.00, 403.0, 353.0)">l</text><text xml:space="preserve" font-family="CenturySchoolbook" font-size="16.0" fill="#262626" transform="matrix(1.00, 0.00, -0.00, -1.00, 408.0, 353.0)">l</text><text xml:space="preserve" font-family="CenturySchoolbook" font-size="16.0" fill="#262626" transform="matrix(1.00, 0.00, -0.00, -1.00, 413.1, 353.0)"> </text><text xml:space="preserve" font-family="CenturySchoolbook" font-size="16.0" fill="#262626" transform="matrix(1.00, 0.00, -0.00, -1.00, 417.5, 353.0)">a</text><text xml:space="preserve" font-family="CenturySchoolbook" font-size="16.0" fill="#262626" transform="matrix(1.00, 0.00, -0.00, -1.00, 426.4, 353.0)">l</text><text xml:space="preserve" font-family="CenturySchoolbook" font-size="16.0" fill="#262626" transform="matrix(1.00, 0.00, -0.00, -1.00, 431.5, 353.0)">i</text><text xml:space="preserve" font-family="CenturySchoolbook" font-size="16.0" fill="#262626" transform="matrix(1.00, 0.00, -0.00, -1.00, 436.5, 353.0)">v</text><text xml:space="preserve" font-family="CenturySchoolbook" font-size="16.0" fill="#262626" transform="matrix(1.00, 0.00, -0.00, -1.00, 445.1, 353.0)">e</text><text xml:space="preserve" font-family="CenturySchoolbook" font-size="16.0" fill="#262626" transform="matrix(1.00, 0.00, -0.00, -1.00, 453.1, 353.0)">,</text><text xml:space="preserve" font-family="CenturySchoolbook" font-size="16.0" fill="#262626" transform="matrix(1.00, 0.00, -0.00, -1.00, 457.5, 353.0)"> </text><text xml:space="preserve" font-family="CenturySchoolbook" font-size="16.0" fill="#262626" transform="matrix(1.00, 0.00, -0.00, -1.00, 462.0, 353.0)">b</text><text xml:space="preserve" font-family="CenturySchoolbook" font-size="16.0" fill="#262626" transform="matrix(1.00, 0.00, -0.00, -1.00, 470.9, 353.0)">u</text><text xml:space="preserve" font-family="CenturySchoolbook" font-size="16.0" fill="#262626" transform="matrix(1.00, 0.00, -0.00, -1.00, 480.7, 353.0)">t</text><text xml:space="preserve" font-family="CenturySchoolbook" font-size="16.0" fill="#262626" transform="matrix(1.00, 0.00, -0.00, -1.00, 486.9, 353.0)"> </text><text xml:space="preserve" font-family="CenturySchoolbook" font-size="16.0" fill="#262626" transform="matrix(1.00, 0.00, -0.00, -1.00, 491.3, 353.0)">s</text><text xml:space="preserve" font-family="CenturySchoolbook" font-size="16.0" fill="#262626" transform="matrix(1.00, 0.00, -0.00, -1.00, 498.7, 353.0)">l</text><text xml:space="preserve" font-family="CenturySchoolbook" font-size="16.0" fill="#262626" transform="matrix(1.00, 0.00, -0.00, -1.00, 503.8, 353.0)">o</text><text xml:space="preserve" font-family="CenturySchoolbook" font-size="16.0" fill="#262626" transform="matrix(1.00, 0.00, -0.00, -1.00, 511.8, 353.0)">w</text><text xml:space="preserve" font-family="CenturySchoolbook" font-size="16.0" fill="#262626" transform="matrix(1.00, 0.00, -0.00, -1.00, 524.2, 353.0)">)</text><text xml:space="preserve" font-family="CenturySchoolbook" font-size="16.0" fill="#262626" transform="matrix(1.00, 0.00, -0.00, -1.00, 529.6, 353.0)"> </text><text xml:space="preserve" font-family="LucidaGrande" font-size="16.0" fill="#6E6E74" transform="matrix(1.00, 0.00, -0.00, -1.00, 124.6, 333.3)">●</text><text xml:space="preserve" font-family="CenturySchoolbook" font-size="16.0" fill="#262626" transform="matrix(1.00, 0.00, -0.00, -1.00, 139.0, 333.0)">M</text><text xml:space="preserve" font-family="CenturySchoolbook" font-size="16.0" fill="#262626" transform="matrix(1.00, 0.00, -0.00, -1.00, 154.1, 333.0)">e</text><text xml:space="preserve" font-family="CenturySchoolbook" font-size="16.0" fill="#262626" transform="matrix(1.00, 0.00, -0.00, -1.00, 162.1, 333.0)">s</text><text xml:space="preserve" font-family="CenturySchoolbook" font-size="16.0" fill="#262626" transform="matrix(1.00, 0.00, -0.00, -1.00, 169.5, 333.0)">s</text><text xml:space="preserve" font-family="CenturySchoolbook" font-size="16.0" fill="#262626" transform="matrix(1.00, 0.00, -0.00, -1.00, 176.9, 333.0)">a</text><text xml:space="preserve" font-family="CenturySchoolbook" font-size="16.0" fill="#262626" transform="matrix(1.00, 0.00, -0.00, -1.00, 185.8, 333.0)">g</text><text xml:space="preserve" font-family="CenturySchoolbook" font-size="16.0" fill="#262626" transform="matrix(1.00, 0.00, -0.00, -1.00, 194.4, 333.0)">e</text><text xml:space="preserve" font-family="CenturySchoolbook" font-size="16.0" fill="#262626" transform="matrix(1.00, 0.00, -0.00, -1.00, 202.4, 333.0)"> </text><text xml:space="preserve" font-family="CenturySchoolbook" font-size="16.0" fill="#262626" transform="matrix(1.00, 0.00, -0.00, -1.00, 206.8, 333.0)">c</text><text xml:space="preserve" font-family="CenturySchoolbook" font-size="16.0" fill="#262626" transform="matrix(1.00, 0.00, -0.00, -1.00, 213.9, 333.0)">l</text><text xml:space="preserve" font-family="CenturySchoolbook" font-size="16.0" fill="#262626" transform="matrix(1.00, 0.00, -0.00, -1.00, 219.0, 333.0)">a</text><text xml:space="preserve" font-family="CenturySchoolbook" font-size="16.0" fill="#262626" transform="matrix(1.00, 0.00, -0.00, -1.00, 227.9, 333.0)">i</text><text xml:space="preserve" font-family="CenturySchoolbook" font-size="16.0" fill="#262626" transform="matrix(1.00, 0.00, -0.00, -1.00, 232.9, 333.0)">m</text><text xml:space="preserve" font-family="CenturySchoolbook" font-size="16.0" fill="#262626" transform="matrix(1.00, 0.00, -0.00, -1.00, 247.2, 333.0)">e</text><text xml:space="preserve" font-family="CenturySchoolbook" font-size="16.0" fill="#262626" transform="matrix(1.00, 0.00, -0.00, -1.00, 255.2, 333.0)">d</text><text xml:space="preserve" font-family="CenturySchoolbook" font-size="16.0" fill="#262626" transform="matrix(1.00, 0.00, -0.00, -1.00, 264.3, 333.0)"> </text><text xml:space="preserve" font-family="CenturySchoolbook" font-size="16.0" fill="#262626" transform="matrix(1.00, 0.00, -0.00, -1.00, 268.8, 333.0)">m</text><text xml:space="preserve" font-family="CenturySchoolbook" font-size="16.0" fill="#262626" transform="matrix(1.00, 0.00, -0.00, -1.00, 283.0, 333.0)">o</text><text xml:space="preserve" font-family="CenturySchoolbook" font-size="16.0" fill="#262626" transform="matrix(1.00, 0.00, -0.00, -1.00, 291.0, 333.0)">n</text><text xml:space="preserve" font-family="CenturySchoolbook" font-size="16.0" fill="#262626" transform="matrix(1.00, 0.00, -0.00, -1.00, 300.8, 333.0)">o</text><text xml:space="preserve" font-family="CenturySchoolbook" font-size="16.0" fill="#262626" transform="matrix(1.00, 0.00, -0.00, -1.00, 308.8, 333.0)">t</text><text xml:space="preserve" font-family="CenturySchoolbook" font-size="16.0" fill="#262626" transform="matrix(1.00, 0.00, -0.00, -1.00, 315.0, 333.0)">o</text><text xml:space="preserve" font-family="CenturySchoolbook" font-size="16.0" fill="#262626" transform="matrix(1.00, 0.00, -0.00, -1.00, 323.0, 333.0)">n</text><text xml:space="preserve" font-family="CenturySchoolbook" font-size="16.0" fill="#262626" transform="matrix(1.00, 0.00, -0.00, -1.00, 332.8, 333.0)"> </text><text xml:space="preserve" font-family="CenturySchoolbook" font-size="16.0" fill="#262626" transform="matrix(1.00, 0.00, -0.00, -1.00, 337.2, 333.0)">b</text><text xml:space="preserve" font-family="CenturySchoolbook" font-size="16.0" fill="#262626" transform="matrix(1.00, 0.00, -0.00, -1.00, 346.1, 333.0)">u</text><text xml:space="preserve" font-family="CenturySchoolbook" font-size="16.0" fill="#262626" transform="matrix(1.00, 0.00, -0.00, -1.00, 355.9, 333.0)">t</text><text xml:space="preserve" font-family="CenturySchoolbook" font-size="16.0" fill="#262626" transform="matrix(1.00, 0.00, -0.00, -1.00, 362.1, 333.0)"> </text><text xml:space="preserve" font-family="CenturySchoolbook" font-size="16.0" fill="#262626" transform="matrix(1.00, 0.00, -0.00, -1.00, 366.6, 333.0)">i</text><text xml:space="preserve" font-family="CenturySchoolbook" font-size="16.0" fill="#262626" transform="matrix(1.00, 0.00, -0.00, -1.00, 371.6, 333.0)">s</text><text xml:space="preserve" font-family="CenturySchoolbook" font-size="16.0" fill="#262626" transform="matrix(1.00, 0.00, -0.00, -1.00, 379.0, 333.0)"> </text><text xml:space="preserve" font-family="CenturySchoolbook" font-size="16.0" fill="#262626" transform="matrix(1.00, 0.00, -0.00, -1.00, 383.5, 333.0)">d</text><text xml:space="preserve" font-family="CenturySchoolbook" font-size="16.0" fill="#262626" transform="matrix(1.00, 0.00, -0.00, -1.00, 392.6, 333.0)">e</text><text xml:space="preserve" font-family="CenturySchoolbook" font-size="16.0" fill="#262626" transform="matrix(1.00, 0.00, -0.00, -1.00, 400.6, 333.0)">a</text><text xml:space="preserve" font-family="CenturySchoolbook" font-size="16.0" fill="#262626" transform="matrix(1.00, 0.00, -0.00, -1.00, 409.5, 333.0)">d</text><text xml:space="preserve" font-family="CenturySchoolbook" font-size="16.0" fill="#262626" transform="matrix(1.00, 0.00, -0.00, -1.00, 418.7, 333.0)"> </text><text xml:space="preserve" font-family="ArialMT" font-size="14.4" fill="#6E6E74" transform="matrix(1.00, 0.00, -0.00, -1.00, 103.0, 301.6)">•</text><text xml:space="preserve" font-family="CenturySchoolbook" font-size="18.0" fill="#000000" transform="matrix(1.00, 0.00, -0.00, -1.00, 117.0, 299.0)">R</text><text xml:space="preserve" font-family="CenturySchoolbook" font-size="18.0" fill="#000000" transform="matrix(1.00, 0.00, -0.00, -1.00, 130.0, 299.0)">e</text><text xml:space="preserve" font-family="CenturySchoolbook" font-size="18.0" fill="#000000" transform="matrix(1.00, 0.00, -0.00, -1.00, 139.0, 299.0)">s</text><text xml:space="preserve" font-family="CenturySchoolbook" font-size="18.0" fill="#000000" transform="matrix(1.00, 0.00, -0.00, -1.00, 147.3, 299.0)">o</text><text xml:space="preserve" font-family="CenturySchoolbook" font-size="18.0" fill="#000000" transform="matrix(1.00, 0.00, -0.00, -1.00, 156.3, 299.0)">l</text><text xml:space="preserve" font-family="CenturySchoolbook" font-size="18.0" fill="#000000" transform="matrix(1.00, 0.00, -0.00, -1.00, 162.0, 299.0)">u</text><text xml:space="preserve" font-family="CenturySchoolbook" font-size="18.0" fill="#000000" transform="matrix(1.00, 0.00, -0.00, -1.00, 173.0, 299.0)">t</text><text xml:space="preserve" font-family="CenturySchoolbook" font-size="18.0" fill="#000000" transform="matrix(1.00, 0.00, -0.00, -1.00, 180.0, 299.0)">i</text><text xml:space="preserve" font-family="CenturySchoolbook" font-size="18.0" fill="#000000" transform="matrix(1.00, 0.00, -0.00, -1.00, 185.7, 299.0)">o</text><text xml:space="preserve" font-family="CenturySchoolbook" font-size="18.0" fill="#000000" transform="matrix(1.00, 0.00, -0.00, -1.00, 194.7, 299.0)">n</text><text xml:space="preserve" font-family="CenturySchoolbook" font-size="18.0" fill="#000000" transform="matrix(1.00, 0.00, -0.00, -1.00, 205.7, 299.0)">:</text><text xml:space="preserve" font-family="CenturySchoolbook" font-size="18.0" fill="#000000" transform="matrix(1.00, 0.00, -0.00, -1.00, 210.7, 299.0)"> </text><text xml:space="preserve" font-family="LucidaGrande" font-size="16.0" fill="#6E6E74" transform="matrix(1.00, 0.00, -0.00, -1.00, 124.6, 278.3)">●</text><text xml:space="preserve" font-family="CenturySchoolbook" font-size="16.0" fill="#262626" transform="matrix(1.00, 0.00, -0.00, -1.00, 139.0, 278.0)">W</text><text xml:space="preserve" font-family="CenturySchoolbook" font-size="16.0" fill="#262626" transform="matrix(1.00, 0.00, -0.00, -1.00, 154.7, 278.0)">a</text><text xml:space="preserve" font-family="CenturySchoolbook" font-size="16.0" fill="#262626" transform="matrix(1.00, 0.00, -0.00, -1.00, 163.6, 278.0)">t</text><text xml:space="preserve" font-family="CenturySchoolbook" font-size="16.0" fill="#262626" transform="matrix(1.00, 0.00, -0.00, -1.00, 169.8, 278.0)">c</text><text xml:space="preserve" font-family="CenturySchoolbook" font-size="16.0" fill="#262626" transform="matrix(1.00, 0.00, -0.00, -1.00, 176.9, 278.0)">h</text><text xml:space="preserve" font-family="CenturySchoolbook" font-size="16.0" fill="#262626" transform="matrix(1.00, 0.00, -0.00, -1.00, 186.7, 278.0)"> </text><text xml:space="preserve" font-family="CenturySchoolbook" font-size="16.0" fill="#262626" transform="matrix(1.00, 0.00, -0.00, -1.00, 191.1, 278.0)">f</text><text xml:space="preserve" font-family="CenturySchoolbook" font-size="16.0" fill="#262626" transform="matrix(1.00, 0.00, -0.00, -1.00, 196.5, 278.0)">o</text><text xml:space="preserve" font-family="CenturySchoolbook" font-size="16.0" fill="#262626" transform="matrix(1.00, 0.00, -0.00, -1.00, 204.5, 278.0)">r</text><text xml:space="preserve" font-family="CenturySchoolbook" font-size="16.0" fill="#262626" transform="matrix(1.00, 0.00, -0.00, -1.00, 211.6, 278.0)"> </text><text xml:space="preserve" font-family="CenturySchoolbook" font-size="16.0" fill="#262626" transform="matrix(1.00, 0.00, -0.00, -1.00, 216.0, 278.0)">t</text><text xml:space="preserve" font-family="CenturySchoolbook" font-size="16.0" fill="#262626" transform="matrix(1.00, 0.00, -0.00, -1.00, 222.2, 278.0)">o</text><text xml:space="preserve" font-family="CenturySchoolbook" font-size="16.0" fill="#262626" transform="matrix(1.00, 0.00, -0.00, -1.00, 230.2, 278.0)">m</text><text xml:space="preserve" font-family="CenturySchoolbook" font-size="16.0" fill="#262626" transform="matrix(1.00, 0.00, -0.00, -1.00, 244.5, 278.0)">b</text><text xml:space="preserve" font-family="CenturySchoolbook" font-size="16.0" fill="#262626" transform="matrix(1.00, 0.00, -0.00, -1.00, 253.4, 278.0)">s</text><text xml:space="preserve" font-family="CenturySchoolbook" font-size="16.0" fill="#262626" transform="matrix(1.00, 0.00, -0.00, -1.00, 260.8, 278.0)">t</text><text xml:space="preserve" font-family="CenturySchoolbook" font-size="16.0" fill="#262626" transform="matrix(1.00, 0.00, -0.00, -1.00, 267.0, 278.0)">o</text><text xml:space="preserve" font-family="CenturySchoolbook" font-size="16.0" fill="#262626" transform="matrix(1.00, 0.00, -0.00, -1.00, 275.0, 278.0)">n</text><text xml:space="preserve" font-family="CenturySchoolbook" font-size="16.0" fill="#262626" transform="matrix(1.00, 0.00, -0.00, -1.00, 284.8, 278.0)">e</text><text xml:space="preserve" font-family="CenturySchoolbook" font-size="16.0" fill="#262626" transform="matrix(1.00, 0.00, -0.00, -1.00, 292.8, 278.0)"> </text><text xml:space="preserve" font-family="CenturySchoolbook" font-size="16.0" fill="#262626" transform="matrix(1.00, 0.00, -0.00, -1.00, 297.2, 278.0)">i</text><text xml:space="preserve" font-family="CenturySchoolbook" font-size="16.0" fill="#262626" transform="matrix(1.00, 0.00, -0.00, -1.00, 302.3, 278.0)">n</text><text xml:space="preserve" font-family="CenturySchoolbook" font-size="16.0" fill="#262626" transform="matrix(1.00, 0.00, -0.00, -1.00, 312.0, 278.0)"> </text><text xml:space="preserve" font-family="CenturySchoolbook" font-size="16.0" fill="#262626" transform="matrix(1.00, 0.00, -0.00, -1.00, 316.5, 278.0)">b</text><text xml:space="preserve" font-family="CenturySchoolbook" font-size="16.0" fill="#262626" transform="matrix(1.00, 0.00, -0.00, -1.00, 325.4, 278.0)">u</text><text xml:space="preserve" font-family="CenturySchoolbook" font-size="16.0" fill="#262626" transform="matrix(1.00, 0.00, -0.00, -1.00, 335.1, 278.0)">c</text><text xml:space="preserve" font-family="CenturySchoolbook" font-size="16.0" fill="#262626" transform="matrix(1.00, 0.00, -0.00, -1.00, 342.2, 278.0)">k</text><text xml:space="preserve" font-family="CenturySchoolbook" font-size="16.0" fill="#262626" transform="matrix(1.00, 0.00, -0.00, -1.00, 351.7, 278.0)">e</text><text xml:space="preserve" font-family="CenturySchoolbook" font-size="16.0" fill="#262626" transform="matrix(1.00, 0.00, -0.00, -1.00, 359.7, 278.0)">t</text><text xml:space="preserve" font-family="CenturySchoolbook" font-size="16.0" fill="#262626" transform="matrix(1.00, 0.00, -0.00, -1.00, 366.0, 278.0)"> </text><text xml:space="preserve" font-family="LucidaGrande" font-size="16.0" fill="#6E6E74" transform="matrix(1.00, 0.00, -0.00, -1.00, 124.6, 258.2)">●</text><text xml:space="preserve" font-family="CenturySchoolbook" font-size="16.0" fill="#262626" transform="matrix(1.00, 0.00, -0.00, -1.00, 139.0, 258.0)">W</text><text xml:space="preserve" font-family="CenturySchoolbook" font-size="16.0" fill="#262626" transform="matrix(1.00, 0.00, -0.00, -1.00, 154.7, 258.0)">a</text><text xml:space="preserve" font-family="CenturySchoolbook" font-size="16.0" fill="#262626" transform="matrix(1.00, 0.00, -0.00, -1.00, 163.6, 258.0)">i</text><text xml:space="preserve" font-family="CenturySchoolbook" font-size="16.0" fill="#262626" transform="matrix(1.00, 0.00, -0.00, -1.00, 168.6, 258.0)">t</text><text xml:space="preserve" font-family="CenturySchoolbook" font-size="16.0" fill="#262626" transform="matrix(1.00, 0.00, -0.00, -1.00, 174.9, 258.0)"> </text><text xml:space="preserve" font-family="CenturySchoolbook" font-size="16.0" fill="#262626" transform="matrix(1.00, 0.00, -0.00, -1.00, 179.3, 258.0)">f</text><text xml:space="preserve" font-family="CenturySchoolbook" font-size="16.0" fill="#262626" transform="matrix(1.00, 0.00, -0.00, -1.00, 184.6, 258.0)">o</text><text xml:space="preserve" font-family="CenturySchoolbook" font-size="16.0" fill="#262626" transform="matrix(1.00, 0.00, -0.00, -1.00, 192.6, 258.0)">r</text><text xml:space="preserve" font-family="CenturySchoolbook" font-size="16.0" fill="#262626" transform="matrix(1.00, 0.00, -0.00, -1.00, 199.7, 258.0)"> </text><text xml:space="preserve" font-family="CenturySchoolbook" font-size="16.0" fill="#262626" transform="matrix(1.00, 0.00, -0.00, -1.00, 204.2, 258.0)">r</text><text xml:space="preserve" font-family="CenturySchoolbook" font-size="16.0" fill="#262626" transform="matrix(1.00, 0.00, -0.00, -1.00, 211.3, 258.0)">e</text><text xml:space="preserve" font-family="CenturySchoolbook" font-size="16.0" fill="#262626" transform="matrix(1.00, 0.00, -0.00, -1.00, 219.3, 258.0)">p</text><text xml:space="preserve" font-family="CenturySchoolbook" font-size="16.0" fill="#262626" transform="matrix(1.00, 0.00, -0.00, -1.00, 228.5, 258.0)">a</text><text xml:space="preserve" font-family="CenturySchoolbook" font-size="16.0" fill="#262626" transform="matrix(1.00, 0.00, -0.00, -1.00, 237.4, 258.0)">i</text><text xml:space="preserve" font-family="CenturySchoolbook" font-size="16.0" fill="#262626" transform="matrix(1.00, 0.00, -0.00, -1.00, 242.4, 258.0)">r</text><text xml:space="preserve" font-family="CenturySchoolbook" font-size="16.0" fill="#262626" transform="matrix(1.00, 0.00, -0.00, -1.00, 249.5, 258.0)"> </text><text xml:space="preserve" font-family="CenturySchoolbook" font-size="16.0" fill="#262626" transform="matrix(1.00, 0.00, -0.00, -1.00, 253.9, 258.0)">t</text><text xml:space="preserve" font-family="CenturySchoolbook" font-size="16.0" fill="#262626" transform="matrix(1.00, 0.00, -0.00, -1.00, 260.2, 258.0)">i</text><text xml:space="preserve" font-family="CenturySchoolbook" font-size="16.0" fill="#262626" transform="matrix(1.00, 0.00, -0.00, -1.00, 265.2, 258.0)">m</text><text xml:space="preserve" font-family="CenturySchoolbook" font-size="16.0" fill="#262626" transform="matrix(1.00, 0.00, -0.00, -1.00, 279.4, 258.0)">e</text><text xml:space="preserve" font-family="CenturySchoolbook" font-size="16.0" fill="#262626" transform="matrix(1.00, 0.00, -0.00, -1.00, 287.4, 258.0)">o</text><text xml:space="preserve" font-family="CenturySchoolbook" font-size="16.0" fill="#262626" transform="matrix(1.00, 0.00, -0.00, -1.00, 295.4, 258.0)">u</text><text xml:space="preserve" font-family="CenturySchoolbook" font-size="16.0" fill="#262626" transform="matrix(1.00, 0.00, -0.00, -1.00, 305.2, 258.0)">t</text><text xml:space="preserve" font-family="CenturySchoolbook" font-size="16.0" fill="#262626" transform="matrix(1.00, 0.00, -0.00, -1.00, 311.4, 258.0)"> </text><text xml:space="preserve" font-family="CenturySchoolbook" font-size="16.0" fill="#262626" transform="matrix(1.00, 0.00, -0.00, -1.00, 315.9, 258.0)">(</text><text xml:space="preserve" font-family="CenturySchoolbook" font-size="16.0" fill="#262626" transform="matrix(1.00, 0.00, -0.00, -1.00, 321.2, 258.0)">3</text><text xml:space="preserve" font-family="CenturySchoolbook" font-size="16.0" fill="#262626" transform="matrix(1.00, 0.00, -0.00, -1.00, 330.1, 258.0)">0</text><text xml:space="preserve" font-family="CenturySchoolbook" font-size="16.0" fill="#262626" transform="matrix(1.00, 0.00, -0.00, -1.00, 339.0, 258.0)"> </text><text xml:space="preserve" font-family="CenturySchoolbook" font-size="16.0" fill="#262626" transform="matrix(1.00, 0.00, -0.00, -1.00, 343.5, 258.0)">s</text><text xml:space="preserve" font-family="CenturySchoolbook" font-size="16.0" fill="#262626" transform="matrix(1.00, 0.00, -0.00, -1.00, 350.9, 258.0)">e</text><text xml:space="preserve" font-family="CenturySchoolbook" font-size="16.0" fill="#262626" transform="matrix(1.00, 0.00, -0.00, -1.00, 358.9, 258.0)">c</text><text xml:space="preserve" font-family="CenturySchoolbook" font-size="16.0" fill="#262626" transform="matrix(1.00, 0.00, -0.00, -1.00, 366.0, 258.0)">o</text><text xml:space="preserve" font-family="CenturySchoolbook" font-size="16.0" fill="#262626" transform="matrix(1.00, 0.00, -0.00, -1.00, 374.0, 258.0)">n</text><text xml:space="preserve" font-family="CenturySchoolbook" font-size="16.0" fill="#262626" transform="matrix(1.00, 0.00, -0.00, -1.00, 383.7, 258.0)">d</text><text xml:space="preserve" font-family="CenturySchoolbook" font-size="16.0" fill="#262626" transform="matrix(1.00, 0.00, -0.00, -1.00, 392.9, 258.0)">s</text><text xml:space="preserve" font-family="CenturySchoolbook" font-size="16.0" fill="#262626" transform="matrix(1.00, 0.00, -0.00, -1.00, 400.3, 258.0)">)</text><text xml:space="preserve" font-family="CenturySchoolbook" font-size="16.0" fill="#262626" transform="matrix(1.00, 0.00, -0.00, -1.00, 405.7, 258.0)"> </text><text xml:space="preserve" font-family="CenturySchoolbook" font-size="16.0" fill="#262626" transform="matrix(1.00, 0.00, -0.00, -1.00, 410.1, 258.0)"> </text><text xml:space="preserve" font-family="LucidaGrande" font-size="16.0" fill="#6E6E74" transform="matrix(1.00, 0.00, -0.00, -1.00, 124.6, 238.1)">●</text><text xml:space="preserve" font-family="CenturySchoolbook" font-size="16.0" fill="#262626" transform="matrix(1.00, 0.00, -0.00, -1.00, 139.0, 238.0)">I</text><text xml:space="preserve" font-family="CenturySchoolbook" font-size="16.0" fill="#262626" transform="matrix(1.00, 0.00, -0.00, -1.00, 145.5, 238.0)">f</text><text xml:space="preserve" font-family="CenturySchoolbook" font-size="16.0" fill="#262626" transform="matrix(1.00, 0.00, -0.00, -1.00, 150.8, 238.0)"> </text><text xml:space="preserve" font-family="CenturySchoolbook" font-size="16.0" fill="#262626" transform="matrix(1.00, 0.00, -0.00, -1.00, 155.3, 238.0)">m</text><text xml:space="preserve" font-family="CenturySchoolbook" font-size="16.0" fill="#262626" transform="matrix(1.00, 0.00, -0.00, -1.00, 169.5, 238.0)">e</text><text xml:space="preserve" font-family="CenturySchoolbook" font-size="16.0" fill="#262626" transform="matrix(1.00, 0.00, -0.00, -1.00, 177.5, 238.0)">s</text><text xml:space="preserve" font-family="CenturySchoolbook" font-size="16.0" fill="#262626" transform="matrix(1.00, 0.00, -0.00, -1.00, 184.9, 238.0)">s</text><text xml:space="preserve" font-family="CenturySchoolbook" font-size="16.0" fill="#262626" transform="matrix(1.00, 0.00, -0.00, -1.00, 192.3, 238.0)">a</text><text xml:space="preserve" font-family="CenturySchoolbook" font-size="16.0" fill="#262626" transform="matrix(1.00, 0.00, -0.00, -1.00, 201.2, 238.0)">g</text><text xml:space="preserve" font-family="CenturySchoolbook" font-size="16.0" fill="#262626" transform="matrix(1.00, 0.00, -0.00, -1.00, 209.8, 238.0)">e</text><text xml:space="preserve" font-family="CenturySchoolbook" font-size="16.0" fill="#262626" transform="matrix(1.00, 0.00, -0.00, -1.00, 217.8, 238.0)"> </text><text xml:space="preserve" font-family="CenturySchoolbook" font-size="16.0" fill="#262626" transform="matrix(1.00, 0.00, -0.00, -1.00, 222.3, 238.0)">s</text><text xml:space="preserve" font-family="CenturySchoolbook" font-size="16.0" fill="#262626" transform="matrix(1.00, 0.00, -0.00, -1.00, 229.7, 238.0)">h</text><text xml:space="preserve" font-family="CenturySchoolbook" font-size="16.0" fill="#262626" transform="matrix(1.00, 0.00, -0.00, -1.00, 239.4, 238.0)">o</text><text xml:space="preserve" font-family="CenturySchoolbook" font-size="16.0" fill="#262626" transform="matrix(1.00, 0.00, -0.00, -1.00, 247.4, 238.0)">w</text><text xml:space="preserve" font-family="CenturySchoolbook" font-size="16.0" fill="#262626" transform="matrix(1.00, 0.00, -0.00, -1.00, 259.9, 238.0)">s</text><text xml:space="preserve" font-family="CenturySchoolbook" font-size="16.0" fill="#262626" transform="matrix(1.00, 0.00, -0.00, -1.00, 267.3, 238.0)"> </text><text xml:space="preserve" font-family="CenturySchoolbook" font-size="16.0" fill="#262626" transform="matrix(1.00, 0.00, -0.00, -1.00, 271.7, 238.0)">u</text><text xml:space="preserve" font-family="CenturySchoolbook" font-size="16.0" fill="#262626" transform="matrix(1.00, 0.00, -0.00, -1.00, 281.5, 238.0)">p</text><text xml:space="preserve" font-family="CenturySchoolbook" font-size="16.0" fill="#262626" transform="matrix(1.00, 0.00, -0.00, -1.00, 290.7, 238.0)">,</text><text xml:space="preserve" font-family="CenturySchoolbook" font-size="16.0" fill="#262626" transform="matrix(1.00, 0.00, -0.00, -1.00, 295.1, 238.0)"> </text><text xml:space="preserve" font-family="CenturySchoolbook" font-size="16.0" fill="#262626" transform="matrix(1.00, 0.00, -0.00, -1.00, 299.6, 238.0)">r</text><text xml:space="preserve" font-family="CenturySchoolbook" font-size="16.0" fill="#262626" transform="matrix(1.00, 0.00, -0.00, -1.00, 306.7, 238.0)">e</text><text xml:space="preserve" font-family="CenturySchoolbook" font-size="16.0" fill="#262626" transform="matrix(1.00, 0.00, -0.00, -1.00, 314.7, 238.0)">p</text><text xml:space="preserve" font-family="CenturySchoolbook" font-size="16.0" fill="#262626" transform="matrix(1.00, 0.00, -0.00, -1.00, 323.9, 238.0)">u</text><text xml:space="preserve" font-family="CenturySchoolbook" font-size="16.0" fill="#262626" transform="matrix(1.00, 0.00, -0.00, -1.00, 333.6, 238.0)">b</text><text xml:space="preserve" font-family="CenturySchoolbook" font-size="16.0" fill="#262626" transform="matrix(1.00, 0.00, -0.00, -1.00, 342.5, 238.0)">l</text><text xml:space="preserve" font-family="CenturySchoolbook" font-size="16.0" fill="#262626" transform="matrix(1.00, 0.00, -0.00, -1.00, 347.6, 238.0)">i</text><text xml:space="preserve" font-family="CenturySchoolbook" font-size="16.0" fill="#262626" transform="matrix(1.00, 0.00, -0.00, -1.00, 352.6, 238.0)">s</text><text xml:space="preserve" font-family="CenturySchoolbook" font-size="16.0" fill="#262626" transform="matrix(1.00, 0.00, -0.00, -1.00, 360.0, 238.0)">h</text><text xml:space="preserve" font-family="CenturySchoolbook" font-size="16.0" fill="#262626" transform="matrix(1.00, 0.00, -0.00, -1.00, 369.8, 238.0)"> </text><text xml:space="preserve" font-family="CenturySchoolbook" font-size="16.0" fill="#262626" transform="matrix(1.00, 0.00, -0.00, -1.00, 374.3, 238.0)"> </text><text xml:space="preserve" font-family="LucidaGrande" font-size="16.0" fill="#6E6E74" transform="matrix(1.00, 0.00, -0.00, -1.00, 124.6, 218.0)">●</text><text xml:space="preserve" font-family="CenturySchoolbook" font-size="16.0" fill="#262626" transform="matrix(1.00, 0.00, -0.00, -1.00, 139.0, 218.0)">I</text><text xml:space="preserve" font-family="CenturySchoolbook" font-size="16.0" fill="#262626" transform="matrix(1.00, 0.00, -0.00, -1.00, 145.5, 218.0)">f</text><text xml:space="preserve" font-family="CenturySchoolbook" font-size="16.0" fill="#262626" transform="matrix(1.00, 0.00, -0.00, -1.00, 150.8, 218.0)"> </text><text xml:space="preserve" font-family="CenturySchoolbook" font-size="16.0" fill="#262626" transform="matrix(1.00, 0.00, -0.00, -1.00, 155.3, 218.0)">n</text><text xml:space="preserve" font-family="CenturySchoolbook" font-size="16.0" fill="#262626" transform="matrix(1.00, 0.00, -0.00, -1.00, 165.1, 218.0)">o</text><text xml:space="preserve" font-family="CenturySchoolbook" font-size="16.0" fill="#262626" transform="matrix(1.00, 0.00, -0.00, -1.00, 173.1, 218.0)">t</text><text xml:space="preserve" font-family="CenturySchoolbook" font-size="16.0" fill="#262626" transform="matrix(1.00, 0.00, -0.00, -1.00, 179.3, 218.0)">,</text><text xml:space="preserve" font-family="CenturySchoolbook" font-size="16.0" fill="#262626" transform="matrix(1.00, 0.00, -0.00, -1.00, 183.7, 218.0)"> </text><text xml:space="preserve" font-family="CenturySchoolbook" font-size="16.0" fill="#262626" transform="matrix(1.00, 0.00, -0.00, -1.00, 188.2, 218.0)">f</text><text xml:space="preserve" font-family="CenturySchoolbook" font-size="16.0" fill="#262626" transform="matrix(1.00, 0.00, -0.00, -1.00, 193.5, 218.0)">i</text><text xml:space="preserve" font-family="CenturySchoolbook" font-size="16.0" fill="#262626" transform="matrix(1.00, 0.00, -0.00, -1.00, 198.5, 218.0)">n</text><text xml:space="preserve" font-family="CenturySchoolbook" font-size="16.0" fill="#262626" transform="matrix(1.00, 0.00, -0.00, -1.00, 208.3, 218.0)">a</text><text xml:space="preserve" font-family="CenturySchoolbook" font-size="16.0" fill="#262626" transform="matrix(1.00, 0.00, -0.00, -1.00, 217.2, 218.0)">l</text><text xml:space="preserve" font-family="CenturySchoolbook" font-size="16.0" fill="#262626" transform="matrix(1.00, 0.00, -0.00, -1.00, 222.2, 218.0)">i</text><text xml:space="preserve" font-family="CenturySchoolbook" font-size="16.0" fill="#262626" transform="matrix(1.00, 0.00, -0.00, -1.00, 227.3, 218.0)">z</text><text xml:space="preserve" font-family="CenturySchoolbook" font-size="16.0" fill="#262626" transform="matrix(1.00, 0.00, -0.00, -1.00, 235.0, 218.0)">e</text><text xml:space="preserve" font-family="CenturySchoolbook" font-size="16.0" fill="#262626" transform="matrix(1.00, 0.00, -0.00, -1.00, 243.0, 218.0)"> </text><text xml:space="preserve" font-family="CenturySchoolbook" font-size="16.0" fill="#262626" transform="matrix(1.00, 0.00, -0.00, -1.00, 247.4, 218.0)">b</text><text xml:space="preserve" font-family="CenturySchoolbook" font-size="16.0" fill="#262626" transform="matrix(1.00, 0.00, -0.00, -1.00, 256.3, 218.0)">u</text><text xml:space="preserve" font-family="CenturySchoolbook" font-size="16.0" fill="#262626" transform="matrix(1.00, 0.00, -0.00, -1.00, 266.1, 218.0)">c</text><text xml:space="preserve" font-family="CenturySchoolbook" font-size="16.0" fill="#262626" transform="matrix(1.00, 0.00, -0.00, -1.00, 273.2, 218.0)">k</text><text xml:space="preserve" font-family="CenturySchoolbook" font-size="16.0" fill="#262626" transform="matrix(1.00, 0.00, -0.00, -1.00, 282.7, 218.0)">e</text><text xml:space="preserve" font-family="CenturySchoolbook" font-size="16.0" fill="#262626" transform="matrix(1.00, 0.00, -0.00, -1.00, 290.7, 218.0)">t</text><text xml:space="preserve" font-family="CenturySchoolbook" font-size="16.0" fill="#262626" transform="matrix(1.00, 0.00, -0.00, -1.00, 296.9, 218.0)"> </text><text xml:space="preserve" font-family="CenturySchoolbook" font-size="16.0" fill="#262626" transform="matrix(1.00, 0.00, -0.00, -1.00, 301.3, 218.0)">a</text><text xml:space="preserve" font-family="CenturySchoolbook" font-size="16.0" fill="#262626" transform="matrix(1.00, 0.00, -0.00, -1.00, 310.2, 218.0)">n</text><text xml:space="preserve" font-family="CenturySchoolbook" font-size="16.0" fill="#262626" transform="matrix(1.00, 0.00, -0.00, -1.00, 320.0, 218.0)">d</text><text xml:space="preserve" font-family="CenturySchoolbook" font-size="16.0" fill="#262626" transform="matrix(1.00, 0.00, -0.00, -1.00, 329.2, 218.0)"> </text><text xml:space="preserve" font-family="CenturySchoolbook" font-size="16.0" fill="#262626" transform="matrix(1.00, 0.00, -0.00, -1.00, 333.7, 218.0)">m</text><text xml:space="preserve" font-family="CenturySchoolbook" font-size="16.0" fill="#262626" transform="matrix(1.00, 0.00, -0.00, -1.00, 347.9, 218.0)">o</text><text xml:space="preserve" font-family="CenturySchoolbook" font-size="16.0" fill="#262626" transform="matrix(1.00, 0.00, -0.00, -1.00, 355.9, 218.0)">v</text><text xml:space="preserve" font-family="CenturySchoolbook" font-size="16.0" fill="#262626" transform="matrix(1.00, 0.00, -0.00, -1.00, 364.5, 218.0)">e</text><text xml:space="preserve" font-family="CenturySchoolbook" font-size="16.0" fill="#262626" transform="matrix(1.00, 0.00, -0.00, -1.00, 372.5, 218.0)"> </text><text xml:space="preserve" font-family="CenturySchoolbook" font-size="16.0" fill="#262626" transform="matrix(1.00, 0.00, -0.00, -1.00, 376.9, 218.0)">t</text><text xml:space="preserve" font-family="CenturySchoolbook" font-size="16.0" fill="#262626" transform="matrix(1.00, 0.00, -0.00, -1.00, 383.1, 218.0)">o</text><text xml:space="preserve" font-family="CenturySchoolbook" font-size="16.0" fill="#262626" transform="matrix(1.00, 0.00, -0.00, -1.00, 391.1, 218.0)"> </text><text xml:space="preserve" font-family="CenturySchoolbook" font-size="16.0" fill="#262626" transform="matrix(1.00, 0.00, -0.00, -1.00, 395.6, 218.0)">n</text><text xml:space="preserve" font-family="CenturySchoolbook" font-size="16.0" fill="#262626" transform="matrix(1.00, 0.00, -0.00, -1.00, 405.4, 218.0)">e</text><text xml:space="preserve" font-family="CenturySchoolbook" font-size="16.0" fill="#262626" transform="matrix(1.00, 0.00, -0.00, -1.00, 413.4, 218.0)">x</text><text xml:space="preserve" font-family="CenturySchoolbook" font-size="16.0" fill="#262626" transform="matrix(1.00, 0.00, -0.00, -1.00, 422.0, 218.0)">t</text><text xml:space="preserve" font-family="CenturySchoolbook" font-size="16.0" fill="#262626" transform="matrix(1.00, 0.00, -0.00, -1.00, 428.2, 218.0)"> </text><text xml:space="preserve" font-family="CenturySchoolbook" font-size="16.0" fill="#262626" transform="matrix(1.00, 0.00, -0.00, -1.00, 432.6, 218.0)">b</text><text xml:space="preserve" font-family="CenturySchoolbook" font-size="16.0" fill="#262626" transform="matrix(1.00, 0.00, -0.00, -1.00, 441.5, 218.0)">u</text><text xml:space="preserve" font-family="CenturySchoolbook" font-size="16.0" fill="#262626" transform="matrix(1.00, 0.00, -0.00, -1.00, 451.3, 218.0)">c</text><text xml:space="preserve" font-family="CenturySchoolbook" font-size="16.0" fill="#262626" transform="matrix(1.00, 0.00, -0.00, -1.00, 458.4, 218.0)">k</text><text xml:space="preserve" font-family="CenturySchoolbook" font-size="16.0" fill="#262626" transform="matrix(1.00, 0.00, -0.00, -1.00, 467.9, 218.0)">e</text><text xml:space="preserve" font-family="CenturySchoolbook" font-size="16.0" fill="#262626" transform="matrix(1.00, 0.00, -0.00, -1.00, 475.9, 218.0)">t</text><text xml:space="preserve" font-family="CenturySchoolbook" font-size="16.0" fill="#262626" transform="matrix(1.00, 0.00, -0.00, -1.00, 482.1, 218.0)"> </text><text xml:space="preserve" font-family="CenturySchoolbook" font-size="16.0" fill="#262626" transform="matrix(1.00, 0.00, -0.00, -1.00, 486.6, 218.0)">(</text><text xml:space="preserve" font-family="CenturySchoolbook" font-size="16.0" fill="#262626" transform="matrix(1.00, 0.00, -0.00, -1.00, 491.9, 218.0)">m</text><text xml:space="preserve" font-family="CenturySchoolbook" font-size="16.0" fill="#262626" transform="matrix(1.00, 0.00, -0.00, -1.00, 506.1, 218.0)">e</text><text xml:space="preserve" font-family="CenturySchoolbook" font-size="16.0" fill="#262626" transform="matrix(1.00, 0.00, -0.00, -1.00, 514.1, 218.0)">s</text><text xml:space="preserve" font-family="CenturySchoolbook" font-size="16.0" fill="#262626" transform="matrix(1.00, 0.00, -0.00, -1.00, 521.5, 218.0)">s</text><text xml:space="preserve" font-family="CenturySchoolbook" font-size="16.0" fill="#262626" transform="matrix(1.00, 0.00, -0.00, -1.00, 528.9, 218.0)">a</text><text xml:space="preserve" font-family="CenturySchoolbook" font-size="16.0" fill="#262626" transform="matrix(1.00, 0.00, -0.00, -1.00, 537.8, 218.0)">g</text><text xml:space="preserve" font-family="CenturySchoolbook" font-size="16.0" fill="#262626" transform="matrix(1.00, 0.00, -0.00, -1.00, 546.4, 218.0)">e</text><text xml:space="preserve" font-family="CenturySchoolbook" font-size="16.0" fill="#262626" transform="matrix(1.00, 0.00, -0.00, -1.00, 554.4, 218.0)"> </text><text xml:space="preserve" font-family="CenturySchoolbook" font-size="16.0" fill="#262626" transform="matrix(1.00, 0.00, -0.00, -1.00, 558.9, 218.0)">i</text><text xml:space="preserve" font-family="CenturySchoolbook" font-size="16.0" fill="#262626" transform="matrix(1.00, 0.00, -0.00, -1.00, 563.9, 218.0)">s</text><text xml:space="preserve" font-family="CenturySchoolbook" font-size="16.0" fill="#262626" transform="matrix(1.00, 0.00, -0.00, -1.00, 571.3, 218.0)"> </text><text xml:space="preserve" font-family="CenturySchoolbook" font-size="16.0" fill="#262626" transform="matrix(1.00, 0.00, -0.00, -1.00, 575.7, 218.0)">d</text><text xml:space="preserve" font-family="CenturySchoolbook" font-size="16.0" fill="#262626" transform="matrix(1.00, 0.00, -0.00, -1.00, 584.9, 218.0)">e</text><text xml:space="preserve" font-family="CenturySchoolbook" font-size="16.0" fill="#262626" transform="matrix(1.00, 0.00, -0.00, -1.00, 592.9, 218.0)">a</text><text xml:space="preserve" font-family="CenturySchoolbook" font-size="16.0" fill="#262626" transform="matrix(1.00, 0.00, -0.00, -1.00, 601.8, 218.0)">d</text><text xml:space="preserve" font-family="CenturySchoolbook" font-size="16.0" fill="#262626" transform="matrix(1.00, 0.00, -0.00, -1.00, 611.0, 218.0)">)</text></g></svg>