<?xml version="1.0" encoding="UTF-8" standalone="no"?><svg xmlns="http://www.w3.org/2000/svg" xmlns:xlink="http://www.w3.org/1999/xlink" clip-rule="evenodd" stroke-miterlimit="4.00" viewBox="0 0 960 540"><desc>SVG generated by Keynote</desc><defs></defs><g transform="matrix(1.00, 0.00, -0.00, -1.00, 0.0, 540.0)"><path d="M 0.0 540.0 L 960.0 540.0 L 960.0 0.0 L 0.0 0.0 Z M 0.0 540.0 " fill="#343437"></path><path d="M 0.0 540.0 L 36.0 540.0 L 36.0 0.0 L 0.0 0.0 Z M 0.0 540.0 " fill="#6E6E74"></path><g><clipPath id="clip-125"><path d="M 81.3 165.8 L 859.0 165.8 L 859.0 476.6 L 81.3 476.6 Z M 81.3 165.8 "></path></clipPath><g clip-path="url(#clip-125)"><text xml:space="preserve" font-family="CenturySchoolbook" font-size="72.0" fill="#FFFFFF" transform="matrix(1.00, 0.00, -0.00, -1.00, 103.0, 181.0)">Q</text><text xml:space="preserve" font-family="CenturySchoolbook" font-size="72.0" fill="#FFFFFF" transform="matrix(1.00, 0.00, -0.00, -1.00, 158.5, 181.0)">u</text><text xml:space="preserve" font-family="CenturySchoolbook" font-size="72.0" fill="#FFFFFF" transform="matrix(1.00, 0.00, -0.00, -1.00, 202.0, 181.0)">e</text><text xml:space="preserve" font-family="CenturySchoolbook" font-size="72.0" fill="#FFFFFF" transform="matrix(1.00, 0.00, -0.00, -1.00, 237.5, 181.0)">s</text><text xml:space="preserve" font-family="CenturySchoolbook" font-size="72.0" fill="#FFFFFF" transform="matrix(1.00, 0.00, -0.00, -1.00, 270.3, 181.0)">t</text><text xml:space="preserve" font-family="CenturySchoolbook" font-size="72.0" fill="#FFFFFF" transform="matrix(1.00, 0.00, -0.00, -1.00, 297.8, 181.0)">i</text><text xml:space="preserve" font-family="CenturySchoolbook" font-size="72.0" fill="#FFFFFF" transform="matrix(1.00, 0.00, -0.00, -1.00, 319.9, 181.0)">o</text><text xml:space="preserve" font-family="CenturySchoolbook" font-size="72.0" fill="#FFFFFF" transform="matrix(1.00, 0.00, -0.00, -1.00, 355.4, 181.0)">n</text><text xml:space="preserve" font-family="CenturySchoolbook" font-size="72.0" fill="#FFFFFF" transform="matrix(1.00, 0.00, -0.00, -1.00, 398.9, 181.0)">s</text><text xml:space="preserve" font-family="CenturySchoolbook" font-size="72.0" fill="#FFFFFF" transform="matrix(1.00, 0.00, -0.00, -1.00, 431.7, 181.0)">?</text></g></g><text xml:space="preserve" font-family="CenturySchoolbook" font-size="22.0" fill="#BFBFBF" transform="matrix(1.00, 0.00, -0.00, -1.00, 103.0, 136.0)">o</text><text xml:space="preserve" font-family="CenturySchoolbook" font-size="22.0" fill="#BFBFBF" transform="matrix(1.00, 0.00, -0.00, -1.00, 114.1, 136.0)">r</text><text xml:space="preserve" font-family="CenturySchoolbook" font-size="22.0" fill="#BFBFBF" transform="matrix(1.00, 0.00, -0.00, -1.00, 124.0, 136.0)"> </text><text xml:space="preserve" font-family="CenturySchoolbook" font-size="22.0" fill="#BFBFBF" transform="matrix(1.00, 0.00, -0.00, -1.00, 130.2, 136.0)">f</text><text xml:space="preserve" font-family="CenturySchoolbook" font-size="22.0" fill="#BFBFBF" transform="matrix(1.00, 0.00, -0.00, -1.00, 137.6, 136.0)">e</text><text xml:space="preserve" font-family="CenturySchoolbook" font-size="22.0" fill="#BFBFBF" transform="matrix(1.00, 0.00, -0.00, -1.00, 148.7, 136.0)">e</text><text xml:space="preserve" font-family="CenturySchoolbook" font-size="22.0" fill="#BFBFBF" transform="matrix(1.00, 0.00, -0.00, -1.00, 159.8, 136.0)">d</text><text xml:space="preserve" font-family="CenturySchoolbook" font-size="22.0" fill="#BFBFBF" transform="matrix(1.00, 0.00, -0.00, -1.00, 172.5, 136.0)">b</text><text xml:space="preserve" font-family="CenturySchoolbook" font-size="22.0" fill="#BFBFBF" transform="matrix(1.00, 0.00, -0.00, -1.00, 184.9, 136.0)">a</text><text xml:space="preserve" font-family="CenturySchoolbook" font-size="22.0" fill="#BFBFBF" transform="matrix(1.00, 0.00, -0.00, -1.00, 197.2, 136.0)">c</text><text xml:space="preserve" font-family="CenturySchoolbook" font-size="22.0" fill="#BFBFBF" transform="matrix(1.00, 0.00, -0.00, -1.00, 207.1, 136.0)">k</text><text xml:space="preserve" font-family="CenturySchoolbook" font-size="22.0" fill="#BFBFBF" transform="matrix(1.00, 0.00, -0.00, -1.00, 220.2, 136.0)">/</text><text xml:space="preserve" font-family="CenturySchoolbook" font-size="22.0" fill="#BFBFBF" transform="matrix(1.00, 0.00, -0.00, -1.00, 226.4, 136.0)">t</text><text xml:space="preserve" font-family="CenturySchoolbook" font-size="22.0" fill="#BFBFBF" transform="matrix(1.00, 0.00, -0.00, -1.00, 235.1, 136.0)">h</text><text xml:space="preserve" font-family="CenturySchoolbook" font-size="22.0" fill="#BFBFBF" transform="matrix(1.00, 0.00, -0.00, -1.00, 248.6, 136.0)">o</text><text xml:space="preserve" font-family="CenturySchoolbook" font-size="22.0" fill="#BFBFBF" transform="matrix(1.00, 0.00, -0.00, -1.00, 259.7, 136.0)">u</text><text xml:space="preserve" font-family="CenturySchoolbook" font-size="22.0" fill="#BFBFBF" transform="matrix(1.00, 0.00, -0.00, -1.00, 273.2, 136.0)">g</text><text xml:space="preserve" font-family="CenturySchoolbook" font-size="22.0" fill="#BFBFBF" transform="matrix(1.00, 0.00, -0.00, -1.00, 285.2, 136.0)">h</text><text xml:space="preserve" font-family="CenturySchoolbook" font-size="22.0" fill="#BFBFBF" transform="matrix(1.00, 0.00, -0.00, -1.00, 298.7, 136.0)">t</text><text xml:space="preserve" font-family="CenturySchoolbook" font-size="22.0" fill="#BFBFBF" transform="matrix(1.00, 0.00, -0.00, -1.00, 307.4, 136.0)">s</text><text xml:space="preserve" font-family="CenturySchoolbook" font-size="22.0" fill="#BFBFBF" transform="matrix(1.00, 0.00, -0.00, -1.00, 317.6, 136.0)">/</text><text xml:space="preserve" font-family="CenturySchoolbook" font-size="22.0" fill="#BFBFBF" transform="matrix(1.00, 0.00, -0.00, -1.00, 323.9, 136.0)">v</text><text xml:space="preserve" font-family="CenturySchoolbook" font-size="22.0" fill="#BFBFBF" transform="matrix(1.00, 0.00, -0.00, -1.00, 335.8, 136.0)">i</text><text xml:space="preserve" font-family="CenturySchoolbook" font-size="22.0" fill="#BFBFBF" transform="matrix(1.00, 0.00, -0.00, -1.00, 342.8, 136.0)">s</text><text xml:space="preserve" font-family="CenturySchoolbook" font-size="22.0" fill="#BFBFBF" transform="matrix(1.00, 0.00, -0.00, -1.00, 353.1, 136.0)">c</text><text xml:space="preserve" font-family="CenturySchoolbook" font-size="22.0" fill="#BFBFBF" transform="matrix(1.00, 0.00, -0.00, -1.00, 362.9, 136.0)">e</text><text xml:space="preserve" font-family="CenturySchoolbook" font-size="22.0" fill="#BFBFBF" transform="matrix(1.00, 0.00, -0.00, -1.00, 374.0, 136.0)">r</text><text xml:space="preserve" font-family="CenturySchoolbook" font-size="22.0" fill="#BFBFBF" transform="matrix(1.00, 0.00, -0.00, -1.00, 383.9, 136.0)">a</text><text xml:space="preserve" font-family="CenturySchoolbook" font-size="22.0" fill="#BFBFBF" transform="matrix(1.00, 0.00, -0.00, -1.00, 396.2, 136.0)">l</text><text xml:space="preserve" font-family="CenturySchoolbook" font-size="22.0" fill="#BFBFBF" transform="matrix(1.00, 0.00, -0.00, -1.00, 403.3, 136.0)"> </text><text xml:space="preserve" font-family="CenturySchoolbook" font-size="22.0" fill="#BFBFBF" transform="matrix(1.00, 0.00, -0.00, -1.00, 409.5, 136.0)">r</text><text xml:space="preserve" font-family="CenturySchoolbook" font-size="22.0" fill="#BFBFBF" transform="matrix(1.00, 0.00, -0.00, -1.00, 419.3, 136.0)">e</text><text xml:space="preserve" font-family="CenturySchoolbook" font-size="22.0" fill="#BFBFBF" transform="matrix(1.00, 0.00, -0.00, -1.00, 430.4, 136.0)">a</text><text xml:space="preserve" font-family="CenturySchoolbook" font-size="22.0" fill="#BFBFBF" transform="matrix(1.00, 0.00, -0.00, -1.00, 442.8, 136.0)">c</text><text xml:space="preserve" font-family="CenturySchoolbook" font-size="22.0" fill="#BFBFBF" transform="matrix(1.00, 0.00, -0.00, -1.00, 452.6, 136.0)">t</text><text xml:space="preserve" font-family="CenturySchoolbook" font-size="22.0" fill="#BFBFBF" transform="matrix(1.00, 0.00, -0.00, -1.00, 461.3, 136.0)">i</text><text xml:space="preserve" font-family="CenturySchoolbook" font-size="22.0" fill="#BFBFBF" transform="matrix(1.00, 0.00, -0.00, -1.00, 468.3, 136.0)">o</text><text xml:space="preserve" font-family="CenturySchoolbook" font-size="22.0" fill="#BFBFBF" transform="matrix(1.00, 0.00, -0.00, -1.00, 479.4, 136.0)">n</text><text xml:space="preserve" font-family="CenturySchoolbook" font-size="22.0" fill="#BFBFBF" transform="matrix(1.00, 0.00, -0.00, -1.00, 493.0, 136.0)">s</text><text xml:space="preserve" font-family="CenturySchoolbook" font-size="22.0" fill="#BFBFBF" transform="matrix(1.00, 0.00, -0.00, -1.00, 503.2, 136.0)"> </text><text xml:space="preserve" font-family="CenturySchoolbook" font-size="22.0" fill="#BFBFBF" transform="matrix(1.00, 0.00, -0.00, -1.00, 103.0, 97.0)">C</text><text xml:space="preserve" font-family="CenturySchoolbook" font-size="22.0" fill="#BFBFBF" transform="matrix(1.00, 0.00, -0.00, -1.00, 119.0, 97.0)">o</text><text xml:space="preserve" font-family="CenturySchoolbook" font-size="22.0" fill="#BFBFBF" transform="matrix(1.00, 0.00, -0.00, -1.00, 130.1, 97.0)">n</text><text xml:space="preserve" font-family="CenturySchoolbook" font-size="22.0" fill="#BFBFBF" transform="matrix(1.00, 0.00, -0.00, -1.00, 143.6, 97.0)">t</text><text xml:space="preserve" font-family="CenturySchoolbook" font-size="22.0" fill="#BFBFBF" transform="matrix(1.00, 0.00, -0.00, -1.00, 152.3, 97.0)">r</text><text xml:space="preserve" font-family="CenturySchoolbook" font-size="22.0" fill="#BFBFBF" transform="matrix(1.00, 0.00, -0.00, -1.00, 162.2, 97.0)">i</text><text xml:space="preserve" font-family="CenturySchoolbook" font-size="22.0" fill="#BFBFBF" transform="matrix(1.00, 0.00, -0.00, -1.00, 169.2, 97.0)">b</text><text xml:space="preserve" font-family="CenturySchoolbook" font-size="22.0" fill="#BFBFBF" transform="matrix(1.00, 0.00, -0.00, -1.00, 181.5, 97.0)">u</text><text xml:space="preserve" font-family="CenturySchoolbook" font-size="22.0" fill="#BFBFBF" transform="matrix(1.00, 0.00, -0.00, -1.00, 195.1, 97.0)">t</text><text xml:space="preserve" font-family="CenturySchoolbook" font-size="22.0" fill="#BFBFBF" transform="matrix(1.00, 0.00, -0.00, -1.00, 203.7, 97.0)">e</text><text xml:space="preserve" font-family="CenturySchoolbook" font-size="22.0" fill="#BFBFBF" transform="matrix(1.00, 0.00, -0.00, -1.00, 214.9, 97.0)"> </text><text xml:space="preserve" font-family="CenturySchoolbook" font-size="22.0" fill="#BFBFBF" transform="matrix(1.00, 0.00, -0.00, -1.00, 221.1, 97.0)">t</text><text xml:space="preserve" font-family="CenturySchoolbook" font-size="22.0" fill="#BFBFBF" transform="matrix(1.00, 0.00, -0.00, -1.00, 229.7, 97.0)">o</text><text xml:space="preserve" font-family="CenturySchoolbook" font-size="22.0" fill="#BFBFBF" transform="matrix(1.00, 0.00, -0.00, -1.00, 240.8, 97.0)"> </text><text xml:space="preserve" font-family="CenturySchoolbook" font-size="22.0" fill="#BFBFBF" transform="matrix(1.00, 0.00, -0.00, -1.00, 247.1, 97.0)">t</text><text xml:space="preserve" font-family="CenturySchoolbook" font-size="22.0" fill="#BFBFBF" transform="matrix(1.00, 0.00, -0.00, -1.00, 255.7, 97.0)">h</text><text xml:space="preserve" font-family="CenturySchoolbook" font-size="22.0" fill="#BFBFBF" transform="matrix(1.00, 0.00, -0.00, -1.00, 269.3, 97.0)">e</text><text xml:space="preserve" font-family="CenturySchoolbook" font-size="22.0" fill="#BFBFBF" transform="matrix(1.00, 0.00, -0.00, -1.00, 280.4, 97.0)"> </text><text xml:space="preserve" font-family="CenturySchoolbook" font-size="22.0" fill="#BFBFBF" transform="matrix(1.00, 0.00, -0.00, -1.00, 286.6, 97.0)">a</text><text xml:space="preserve" font-family="CenturySchoolbook" font-size="22.0" fill="#BFBFBF" transform="matrix(1.00, 0.00, -0.00, -1.00, 298.9, 97.0)">n</text><text xml:space="preserve" font-family="CenturySchoolbook" font-size="22.0" fill="#BFBFBF" transform="matrix(1.00, 0.00, -0.00, -1.00, 312.5, 97.0)">t</text><text xml:space="preserve" font-family="CenturySchoolbook" font-size="22.0" fill="#BFBFBF" transform="matrix(1.00, 0.00, -0.00, -1.00, 321.1, 97.0)">i</text><text xml:space="preserve" font-family="CenturySchoolbook" font-size="22.0" fill="#BFBFBF" transform="matrix(1.00, 0.00, -0.00, -1.00, 328.2, 97.0)">p</text><text xml:space="preserve" font-family="CenturySchoolbook" font-size="22.0" fill="#BFBFBF" transform="matrix(1.00, 0.00, -0.00, -1.00, 340.9, 97.0)">a</text><text xml:space="preserve" font-family="CenturySchoolbook" font-size="22.0" fill="#BFBFBF" transform="matrix(1.00, 0.00, -0.00, -1.00, 353.2, 97.0)">t</text><text xml:space="preserve" font-family="CenturySchoolbook" font-size="22.0" fill="#BFBFBF" transform="matrix(1.00, 0.00, -0.00, -1.00, 361.9, 97.0)">t</text><text xml:space="preserve" font-family="CenturySchoolbook" font-size="22.0" fill="#BFBFBF" transform="matrix(1.00, 0.00, -0.00, -1.00, 370.6, 97.0)">e</text><text xml:space="preserve" font-family="CenturySchoolbook" font-size="22.0" fill="#BFBFBF" transform="matrix(1.00, 0.00, -0.00, -1.00, 381.7, 97.0)">r</text><text xml:space="preserve" font-family="CenturySchoolbook" font-size="22.0" fill="#BFBFBF" transform="matrix(1.00, 0.00, -0.00, -1.00, 391.5, 97.0)">n</text><text xml:space="preserve" font-family="CenturySchoolbook" font-size="22.0" fill="#BFBFBF" transform="matrix(1.00, 0.00, -0.00, -1.00, 405.1, 97.0)"> </text><text xml:space="preserve" font-family="CenturySchoolbook" font-size="22.0" fill="#BFBFBF" transform="matrix(1.00, 0.00, -0.00, -1.00, 411.3, 97.0)">@</text><text xml:space="preserve" font-family="CenturySchoolbook" font-size="22.0" fill="#BFBFBF" transform="matrix(1.00, 0.00, -0.00, -1.00, 427.6, 97.0)"> </text><text xml:space="preserve" font-family="CenturySchoolbook" font-size="22.0" fill="#BFBFBF" transform="matrix(1.00, 0.00, -0.00, -1.00, 433.8, 97.0)">p</text><text xml:space="preserve" font-family="CenturySchoolbook" font-size="22.0" fill="#BFBFBF" transform="matrix(1.00, 0.00, -0.00, -1.00, 446.6, 97.0)">a</text><text xml:space="preserve" font-family="CenturySchoolbook" font-size="22.0" fill="#BFBFBF" transform="matrix(1.00, 0.00, -0.00, -1.00, 458.9, 97.0)">r</text><text xml:space="preserve" font-family="CenturySchoolbook" font-size="22.0" fill="#BFBFBF" transform="matrix(1.00, 0.00, -0.00, -1.00, 468.8, 97.0)">a</text><text xml:space="preserve" font-family="CenturySchoolbook" font-size="22.0" fill="#BFBFBF" transform="matrix(1.00, 0.00, -0.00, -1.00, 481.1, 97.0)">d</text><text xml:space="preserve" font-family="CenturySchoolbook" font-size="22.0" fill="#BFBFBF" transform="matrix(1.00, 0.00, -0.00, -1.00, 493.8, 97.0)">o</text><text xml:space="preserve" font-family="CenturySchoolbook" font-size="22.0" fill="#BFBFBF" transform="matrix(1.00, 0.00, -0.00, -1.00, 504.9, 97.0)">x</text><text xml:space="preserve" font-family="CenturySchoolbook" font-size="22.0" fill="#BFBFBF" transform="matrix(1.00, 0.00, -0.00, -1.00, 516.9, 97.0)">i</text><text xml:space="preserve" font-family="CenturySchoolbook" font-size="22.0" fill="#BFBFBF" transform="matrix(1.00, 0.00, -0.00, -1.00, 523.9, 97.0)">c</text><text xml:space="preserve" font-family="CenturySchoolbook" font-size="22.0" fill="#BFBFBF" transform="matrix(1.00, 0.00, -0.00, -1.00, 533.8, 97.0)">a</text><text xml:space="preserve" font-family="CenturySchoolbook" font-size="22.0" fill="#BFBFBF" transform="matrix(1.00, 0.00, -0.00, -1.00, 546.1, 97.0)">l</text><text xml:space="preserve" font-family="CenturySchoolbook" font-size="22.0" fill="#BFBFBF" transform="matrix(1.00, 0.00, -0.00, -1.00, 553.1, 97.0)">.</text><text xml:space="preserve" font-family="CenturySchoolbook" font-size="22.0" fill="#BFBFBF" transform="matrix(1.00, 0.00, -0.00, -1.00, 559.3, 97.0)">i</text><text xml:space="preserve" font-family="CenturySchoolbook" font-size="22.0" fill="#BFBFBF" transform="matrix(1.00, 0.00, -0.00, -1.00, 566.4, 97.0)">o</text><text xml:space="preserve" font-family="CenturySchoolbook" font-size="22.0" fill="#BFBFBF" transform="matrix(1.00, 0.00, -0.00, -1.00, 577.5, 97.0)"> </text><text xml:space="preserve" font-family="CenturySchoolbook" font-size="22.0" fill="#67AABE" transform="matrix(1.00, 0.00, -0.00, -1.00, 103.0, 57.0)">h</text><text xml:space="preserve" font-family="CenturySchoolbook" font-size="22.0" fill="#67AABE" transform="matrix(1.00, 0.00, -0.00, -1.00, 116.5, 57.0)">t</text><text xml:space="preserve" font-family="CenturySchoolbook" font-size="22.0" fill="#67AABE" transform="matrix(1.00, 0.00, -0.00, -1.00, 125.2, 57.0)">t</text><text xml:space="preserve" font-family="CenturySchoolbook" font-size="22.0" fill="#67AABE" transform="matrix(1.00, 0.00, -0.00, -1.00, 133.9, 57.0)">p</text><text xml:space="preserve" font-family="CenturySchoolbook" font-size="22.0" fill="#67AABE" transform="matrix(1.00, 0.00, -0.00, -1.00, 146.6, 57.0)">s</text><text xml:space="preserve" font-family="CenturySchoolbook" font-size="22.0" fill="#67AABE" transform="matrix(1.00, 0.00, -0.00, -1.00, 156.9, 57.0)">:</text><text xml:space="preserve" font-family="CenturySchoolbook" font-size="22.0" fill="#67AABE" transform="matrix(1.00, 0.00, -0.00, -1.00, 163.1, 57.0)">/</text><text xml:space="preserve" font-family="CenturySchoolbook" font-size="22.0" fill="#67AABE" transform="matrix(1.00, 0.00, -0.00, -1.00, 169.3, 57.0)">/</text><text xml:space="preserve" font-family="CenturySchoolbook" font-size="22.0" fill="#67AABE" transform="matrix(1.00, 0.00, -0.00, -1.00, 175.5, 57.0)">g</text><text xml:space="preserve" font-family="CenturySchoolbook" font-size="22.0" fill="#67AABE" transform="matrix(1.00, 0.00, -0.00, -1.00, 187.4, 57.0)">i</text><text xml:space="preserve" font-family="CenturySchoolbook" font-size="22.0" fill="#67AABE" transform="matrix(1.00, 0.00, -0.00, -1.00, 194.4, 57.0)">t</text><text xml:space="preserve" font-family="CenturySchoolbook" font-size="22.0" fill="#67AABE" transform="matrix(1.00, 0.00, -0.00, -1.00, 203.1, 57.0)">h</text><text xml:space="preserve" font-family="CenturySchoolbook" font-size="22.0" fill="#67AABE" transform="matrix(1.00, 0.00, -0.00, -1.00, 216.6, 57.0)">u</text><text xml:space="preserve" font-family="CenturySchoolbook" font-size="22.0" fill="#67AABE" transform="matrix(1.00, 0.00, -0.00, -1.00, 230.2, 57.0)">b</text><text xml:space="preserve" font-family="CenturySchoolbook" font-size="22.0" fill="#67AABE" transform="matrix(1.00, 0.00, -0.00, -1.00, 242.5, 57.0)">.</text><text xml:space="preserve" font-family="CenturySchoolbook" font-size="22.0" fill="#67AABE" transform="matrix(1.00, 0.00, -0.00, -1.00, 248.7, 57.0)">c</text><text xml:space="preserve" font-family="CenturySchoolbook" font-size="22.0" fill="#67AABE" transform="matrix(1.00, 0.00, -0.00, -1.00, 258.6, 57.0)">o</text><text xml:space="preserve" font-family="CenturySchoolbook" font-size="22.0" fill="#67AABE" transform="matrix(1.00, 0.00, -0.00, -1.00, 269.7, 57.0)">m</text><text xml:space="preserve" font-family="CenturySchoolbook" font-size="22.0" fill="#67AABE" transform="matrix(1.00, 0.00, -0.00, -1.00, 289.3, 57.0)">/</text><text xml:space="preserve" font-family="CenturySchoolbook" font-size="22.0" fill="#67AABE" transform="matrix(1.00, 0.00, -0.00, -1.00, 295.5, 57.0)">p</text><text xml:space="preserve" font-family="CenturySchoolbook" font-size="22.0" fill="#67AABE" transform="matrix(1.00, 0.00, -0.00, -1.00, 308.3, 57.0)">a</text><text xml:space="preserve" font-family="CenturySchoolbook" font-size="22.0" fill="#67AABE" transform="matrix(1.00, 0.00, -0.00, -1.00, 320.6, 57.0)">r</text><text xml:space="preserve" font-family="CenturySchoolbook" font-size="22.0" fill="#67AABE" transform="matrix(1.00, 0.00, -0.00, -1.00, 330.4, 57.0)">a</text><text xml:space="preserve" font-family="CenturySchoolbook" font-size="22.0" fill="#67AABE" transform="matrix(1.00, 0.00, -0.00, -1.00, 342.8, 57.0)">d</text><text xml:space="preserve" font-family="CenturySchoolbook" font-size="22.0" fill="#67AABE" transform="matrix(1.00, 0.00, -0.00, -1.00, 355.5, 57.0)">o</text><text xml:space="preserve" font-family="CenturySchoolbook" font-size="22.0" fill="#67AABE" transform="matrix(1.00, 0.00, -0.00, -1.00, 366.6, 57.0)">x</text><text xml:space="preserve" font-family="CenturySchoolbook" font-size="22.0" fill="#67AABE" transform="matrix(1.00, 0.00, -0.00, -1.00, 378.5, 57.0)">i</text><text xml:space="preserve" font-family="CenturySchoolbook" font-size="22.0" fill="#67AABE" transform="matrix(1.00, 0.00, -0.00, -1.00, 385.5, 57.0)">c</text><text xml:space="preserve" font-family="CenturySchoolbook" font-size="22.0" fill="#67AABE" transform="matrix(1.00, 0.00, -0.00, -1.00, 395.4, 57.0)">a</text><text xml:space="preserve" font-family="CenturySchoolbook" font-size="22.0" fill="#67AABE" transform="matrix(1.00, 0.00, -0.00, -1.00, 407.7, 57.0)">l</text><text xml:space="preserve" font-family="CenturySchoolbook" font-size="22.0" fill="#67AABE" transform="matrix(1.00, 0.00, -0.00, -1.00, 414.8, 57.0)">-</text><text xml:space="preserve" font-family="CenturySchoolbook" font-size="22.0" fill="#67AABE" transform="matrix(1.00, 0.00, -0.00, -1.00, 422.2, 57.0)">i</text><text xml:space="preserve" font-family="CenturySchoolbook" font-size="22.0" fill="#67AABE" transform="matrix(1.00, 0.00, -0.00, -1.00, 429.2, 57.0)">o</text><text xml:space="preserve" font-family="CenturySchoolbook" font-size="22.0" fill="#67AABE" transform="matrix(1.00, 0.00, -0.00, -1.00, 440.3, 57.0)">/</text><text xml:space="preserve" font-family="CenturySchoolbook" font-size="22.0" fill="#67AABE" transform="matrix(1.00, 0.00, -0.00, -1.00, 446.5, 57.0)">c</text><text xml:space="preserve" font-family="CenturySchoolbook" font-size="22.0" fill="#67AABE" transform="matrix(1.00, 0.00, -0.00, -1.00, 456.4, 57.0)">a</text><text xml:space="preserve" font-family="CenturySchoolbook" font-size="22.0" fill="#67AABE" transform="matrix(1.00, 0.00, -0.00, -1.00, 468.7, 57.0)">s</text><text xml:space="preserve" font-family="CenturySchoolbook" font-size="22.0" fill="#67AABE" transform="matrix(1.00, 0.00, -0.00, -1.00, 479.0, 57.0)">s</text><text xml:space="preserve" font-family="CenturySchoolbook" font-size="22.0" fill="#67AABE" transform="matrix(1.00, 0.00, -0.00, -1.00, 489.3, 57.0)">i</text><text xml:space="preserve" font-family="CenturySchoolbook" font-size="22.0" fill="#67AABE" transform="matrix(1.00, 0.00, -0.00, -1.00, 496.3, 57.0)">e</text><text xml:space="preserve" font-family="CenturySchoolbook" font-size="22.0" fill="#67AABE" transform="matrix(1.00, 0.00, -0.00, -1.00, 507.4, 57.0)">q</text><g><clipPath id="clip-126"><path d="M 102.0 53.1 L 519.8 53.1 L 519.8 56.2 L 102.0 56.2 Z M 102.0 53.1 "></path></clipPath><g clip-path="url(#clip-126)"><path d="M 3.6 107.3 L 420.5 107.3 " fill="none" stroke="#67AABE" stroke-width="1.10" stroke-miterlimit="0.00" transform="matrix(1.00, 0.00, 0.00, -1.00, 99.4, 162.0)"></path></g></g></g></svg>