<?xml version="1.0" encoding="UTF-8" standalone="no"?><svg xmlns="http://www.w3.org/2000/svg" xmlns:xlink="http://www.w3.org/1999/xlink" clip-rule="evenodd" stroke-miterlimit="4.00" viewBox="0 0 960 540"><desc>SVG generated by Keynote</desc><defs></defs><g transform="matrix(1.00, 0.00, -0.00, -1.00, 0.0, 540.0)"><path d="M 0.0 540.0 L 960.0 540.0 L 960.0 0.0 L 0.0 0.0 Z M 0.0 540.0 " fill="#FFFFFF"></path><path d="M 889.2 540.0 L 961.2 540.0 L 961.2 0.0 L 889.2 0.0 Z M 889.2 540.0 " fill="#343437"></path><g><clipPath id="clip-18"><path d="M 89.7 410.8 L 872.2 410.8 L 872.2 507.6 L 89.7 507.6 Z M 89.7 410.8 "></path></clipPath><g clip-path="url(#clip-18)"><text xml:space="preserve" font-family="CenturySchoolbook" font-size="44.0" fill="#000000" transform="matrix(1.00, 0.00, -0.00, -1.00, 103.0, 420.0)">I</text><text xml:space="preserve" font-family="CenturySchoolbook" font-size="44.0" fill="#000000" transform="matrix(1.00, 0.00, -0.00, -1.00, 119.9, 420.0)">s</text><text xml:space="preserve" font-family="CenturySchoolbook" font-size="44.0" fill="#000000" transform="matrix(1.00, 0.00, -0.00, -1.00, 139.3, 420.0)">s</text><text xml:space="preserve" font-family="CenturySchoolbook" font-size="44.0" fill="#000000" transform="matrix(1.00, 0.00, -0.00, -1.00, 158.7, 420.0)">u</text><text xml:space="preserve" font-family="CenturySchoolbook" font-size="44.0" fill="#000000" transform="matrix(1.00, 0.00, -0.00, -1.00, 184.6, 420.0)">e</text><text xml:space="preserve" font-family="CenturySchoolbook" font-size="44.0" fill="#000000" transform="matrix(1.00, 0.00, -0.00, -1.00, 205.6, 420.0)">s</text><text xml:space="preserve" font-family="CenturySchoolbook" font-size="44.0" fill="#000000" transform="matrix(1.00, 0.00, -0.00, -1.00, 225.0, 420.0)"> </text><text xml:space="preserve" font-family="CenturySchoolbook" font-size="44.0" fill="#000000" transform="matrix(1.00, 0.00, -0.00, -1.00, 236.2, 420.0)">w</text><text xml:space="preserve" font-family="CenturySchoolbook" font-size="44.0" fill="#000000" transform="matrix(1.00, 0.00, -0.00, -1.00, 269.4, 420.0)">i</text><text xml:space="preserve" font-family="CenturySchoolbook" font-size="44.0" fill="#000000" transform="matrix(1.00, 0.00, -0.00, -1.00, 282.3, 420.0)">t</text><text xml:space="preserve" font-family="CenturySchoolbook" font-size="44.0" fill="#000000" transform="matrix(1.00, 0.00, -0.00, -1.00, 298.4, 420.0)">h</text><text xml:space="preserve" font-family="CenturySchoolbook" font-size="44.0" fill="#000000" transform="matrix(1.00, 0.00, -0.00, -1.00, 324.3, 420.0)"> </text><text xml:space="preserve" font-family="CenturySchoolbook" font-size="44.0" fill="#000000" transform="matrix(1.00, 0.00, -0.00, -1.00, 335.5, 420.0)">q</text><text xml:space="preserve" font-family="CenturySchoolbook" font-size="44.0" fill="#000000" transform="matrix(1.00, 0.00, -0.00, -1.00, 359.0, 420.0)">u</text><text xml:space="preserve" font-family="CenturySchoolbook" font-size="44.0" fill="#000000" transform="matrix(1.00, 0.00, -0.00, -1.00, 384.9, 420.0)">e</text><text xml:space="preserve" font-family="CenturySchoolbook" font-size="44.0" fill="#000000" transform="matrix(1.00, 0.00, -0.00, -1.00, 405.9, 420.0)">u</text><text xml:space="preserve" font-family="CenturySchoolbook" font-size="44.0" fill="#000000" transform="matrix(1.00, 0.00, -0.00, -1.00, 431.8, 420.0)">e</text><text xml:space="preserve" font-family="CenturySchoolbook" font-size="44.0" fill="#000000" transform="matrix(1.00, 0.00, -0.00, -1.00, 452.8, 420.0)">s</text><text xml:space="preserve" font-family="CenturySchoolbook" font-size="44.0" fill="#000000" transform="matrix(1.00, 0.00, -0.00, -1.00, 472.2, 420.0)"> </text><text xml:space="preserve" font-family="CenturySchoolbook" font-size="44.0" fill="#000000" transform="matrix(1.00, 0.00, -0.00, -1.00, 483.4, 420.0)">i</text><text xml:space="preserve" font-family="CenturySchoolbook" font-size="44.0" fill="#000000" transform="matrix(1.00, 0.00, -0.00, -1.00, 496.3, 420.0)">n</text><text xml:space="preserve" font-family="CenturySchoolbook" font-size="44.0" fill="#000000" transform="matrix(1.00, 0.00, -0.00, -1.00, 522.2, 420.0)"> </text><text xml:space="preserve" font-family="CenturySchoolbook" font-size="44.0" fill="#000000" transform="matrix(1.00, 0.00, -0.00, -1.00, 533.4, 420.0)">c</text><text xml:space="preserve" font-family="CenturySchoolbook" font-size="44.0" fill="#000000" transform="matrix(1.00, 0.00, -0.00, -1.00, 552.0, 420.0)">*</text></g></g><text xml:space="preserve" font-family="ArialMT" font-size="14.4" fill="#6E6E74" transform="matrix(1.00, 0.00, -0.00, -1.00, 103.0, 376.7)">•</text><text xml:space="preserve" font-family="CenturySchoolbook" font-size="18.0" fill="#000000" transform="matrix(1.00, 0.00, -0.00, -1.00, 117.0, 374.0)">M</text><text xml:space="preserve" font-family="CenturySchoolbook" font-size="18.0" fill="#000000" transform="matrix(1.00, 0.00, -0.00, -1.00, 134.0, 374.0)">o</text><text xml:space="preserve" font-family="CenturySchoolbook" font-size="18.0" fill="#000000" transform="matrix(1.00, 0.00, -0.00, -1.00, 143.0, 374.0)">d</text><text xml:space="preserve" font-family="CenturySchoolbook" font-size="18.0" fill="#000000" transform="matrix(1.00, 0.00, -0.00, -1.00, 153.3, 374.0)">e</text><text xml:space="preserve" font-family="CenturySchoolbook" font-size="18.0" fill="#000000" transform="matrix(1.00, 0.00, -0.00, -1.00, 162.3, 374.0)">l</text><text xml:space="preserve" font-family="CenturySchoolbook" font-size="18.0" fill="#000000" transform="matrix(1.00, 0.00, -0.00, -1.00, 168.0, 374.0)">i</text><text xml:space="preserve" font-family="CenturySchoolbook" font-size="18.0" fill="#000000" transform="matrix(1.00, 0.00, -0.00, -1.00, 173.7, 374.0)">n</text><text xml:space="preserve" font-family="CenturySchoolbook" font-size="18.0" fill="#000000" transform="matrix(1.00, 0.00, -0.00, -1.00, 184.7, 374.0)">g</text><text xml:space="preserve" font-family="CenturySchoolbook" font-size="18.0" fill="#000000" transform="matrix(1.00, 0.00, -0.00, -1.00, 194.3, 374.0)"> </text><text xml:space="preserve" font-family="CenturySchoolbook" font-size="18.0" fill="#000000" transform="matrix(1.00, 0.00, -0.00, -1.00, 199.3, 374.0)">o</text><text xml:space="preserve" font-family="CenturySchoolbook" font-size="18.0" fill="#000000" transform="matrix(1.00, 0.00, -0.00, -1.00, 208.3, 374.0)">f</text><text xml:space="preserve" font-family="CenturySchoolbook" font-size="18.0" fill="#000000" transform="matrix(1.00, 0.00, -0.00, -1.00, 214.3, 374.0)">f</text><text xml:space="preserve" font-family="CenturySchoolbook" font-size="18.0" fill="#000000" transform="matrix(1.00, 0.00, -0.00, -1.00, 220.3, 374.0)"> </text><text xml:space="preserve" font-family="CenturySchoolbook" font-size="18.0" fill="#000000" transform="matrix(1.00, 0.00, -0.00, -1.00, 225.3, 374.0)">d</text><text xml:space="preserve" font-family="CenturySchoolbook" font-size="18.0" fill="#000000" transform="matrix(1.00, 0.00, -0.00, -1.00, 235.6, 374.0)">e</text><text xml:space="preserve" font-family="CenturySchoolbook" font-size="18.0" fill="#000000" transform="matrix(1.00, 0.00, -0.00, -1.00, 244.6, 374.0)">l</text><text xml:space="preserve" font-family="CenturySchoolbook" font-size="18.0" fill="#000000" transform="matrix(1.00, 0.00, -0.00, -1.00, 250.3, 374.0)">e</text><text xml:space="preserve" font-family="CenturySchoolbook" font-size="18.0" fill="#000000" transform="matrix(1.00, 0.00, -0.00, -1.00, 259.3, 374.0)">t</text><text xml:space="preserve" font-family="CenturySchoolbook" font-size="18.0" fill="#000000" transform="matrix(1.00, 0.00, -0.00, -1.00, 266.3, 374.0)">e</text><text xml:space="preserve" font-family="CenturySchoolbook" font-size="18.0" fill="#000000" transform="matrix(1.00, 0.00, -0.00, -1.00, 275.3, 374.0)">s</text><text xml:space="preserve" font-family="CenturySchoolbook" font-size="18.0" fill="#000000" transform="matrix(1.00, 0.00, -0.00, -1.00, 283.6, 374.0)"> </text><text xml:space="preserve" font-family="LucidaGrande" font-size="16.0" fill="#6E6E74" transform="matrix(1.00, 0.00, -0.00, -1.00, 124.6, 353.4)">●</text><text xml:space="preserve" font-family="CenturySchoolbook" font-size="16.0" fill="#262626" transform="matrix(1.00, 0.00, -0.00, -1.00, 139.0, 353.0)">T</text><text xml:space="preserve" font-family="CenturySchoolbook" font-size="16.0" fill="#262626" transform="matrix(1.00, 0.00, -0.00, -1.00, 149.7, 353.0)">o</text><text xml:space="preserve" font-family="CenturySchoolbook" font-size="16.0" fill="#262626" transform="matrix(1.00, 0.00, -0.00, -1.00, 157.7, 353.0)">m</text><text xml:space="preserve" font-family="CenturySchoolbook" font-size="16.0" fill="#262626" transform="matrix(1.00, 0.00, -0.00, -1.00, 171.9, 353.0)">b</text><text xml:space="preserve" font-family="CenturySchoolbook" font-size="16.0" fill="#262626" transform="matrix(1.00, 0.00, -0.00, -1.00, 180.8, 353.0)">s</text><text xml:space="preserve" font-family="CenturySchoolbook" font-size="16.0" fill="#262626" transform="matrix(1.00, 0.00, -0.00, -1.00, 188.2, 353.0)">t</text><text xml:space="preserve" font-family="CenturySchoolbook" font-size="16.0" fill="#262626" transform="matrix(1.00, 0.00, -0.00, -1.00, 194.4, 353.0)">o</text><text xml:space="preserve" font-family="CenturySchoolbook" font-size="16.0" fill="#262626" transform="matrix(1.00, 0.00, -0.00, -1.00, 202.4, 353.0)">n</text><text xml:space="preserve" font-family="CenturySchoolbook" font-size="16.0" fill="#262626" transform="matrix(1.00, 0.00, -0.00, -1.00, 212.2, 353.0)">e</text><text xml:space="preserve" font-family="CenturySchoolbook" font-size="16.0" fill="#262626" transform="matrix(1.00, 0.00, -0.00, -1.00, 220.2, 353.0)">s</text><text xml:space="preserve" font-family="CenturySchoolbook" font-size="16.0" fill="#262626" transform="matrix(1.00, 0.00, -0.00, -1.00, 227.6, 353.0)"> </text><text xml:space="preserve" font-family="ArialMT" font-size="14.4" fill="#6E6E74" transform="matrix(1.00, 0.00, -0.00, -1.00, 103.0, 321.7)">•</text><text xml:space="preserve" font-family="CenturySchoolbook" font-size="18.0" fill="#000000" transform="matrix(1.00, 0.00, -0.00, -1.00, 117.0, 319.0)">E</text><text xml:space="preserve" font-family="CenturySchoolbook" font-size="18.0" fill="#000000" transform="matrix(1.00, 0.00, -0.00, -1.00, 130.0, 319.0)">v</text><text xml:space="preserve" font-family="CenturySchoolbook" font-size="18.0" fill="#000000" transform="matrix(1.00, 0.00, -0.00, -1.00, 139.7, 319.0)">e</text><text xml:space="preserve" font-family="CenturySchoolbook" font-size="18.0" fill="#000000" transform="matrix(1.00, 0.00, -0.00, -1.00, 148.7, 319.0)">n</text><text xml:space="preserve" font-family="CenturySchoolbook" font-size="18.0" fill="#000000" transform="matrix(1.00, 0.00, -0.00, -1.00, 159.7, 319.0)">l</text><text xml:space="preserve" font-family="CenturySchoolbook" font-size="18.0" fill="#000000" transform="matrix(1.00, 0.00, -0.00, -1.00, 165.3, 319.0)">y</text><text xml:space="preserve" font-family="CenturySchoolbook" font-size="18.0" fill="#000000" transform="matrix(1.00, 0.00, -0.00, -1.00, 175.0, 319.0)"> </text><text xml:space="preserve" font-family="CenturySchoolbook" font-size="18.0" fill="#000000" transform="matrix(1.00, 0.00, -0.00, -1.00, 180.0, 319.0)">d</text><text xml:space="preserve" font-family="CenturySchoolbook" font-size="18.0" fill="#000000" transform="matrix(1.00, 0.00, -0.00, -1.00, 190.3, 319.0)">i</text><text xml:space="preserve" font-family="CenturySchoolbook" font-size="18.0" fill="#000000" transform="matrix(1.00, 0.00, -0.00, -1.00, 196.0, 319.0)">s</text><text xml:space="preserve" font-family="CenturySchoolbook" font-size="18.0" fill="#000000" transform="matrix(1.00, 0.00, -0.00, -1.00, 204.3, 319.0)">t</text><text xml:space="preserve" font-family="CenturySchoolbook" font-size="18.0" fill="#000000" transform="matrix(1.00, 0.00, -0.00, -1.00, 211.3, 319.0)">r</text><text xml:space="preserve" font-family="CenturySchoolbook" font-size="18.0" fill="#000000" transform="matrix(1.00, 0.00, -0.00, -1.00, 219.3, 319.0)">i</text><text xml:space="preserve" font-family="CenturySchoolbook" font-size="18.0" fill="#000000" transform="matrix(1.00, 0.00, -0.00, -1.00, 225.0, 319.0)">b</text><text xml:space="preserve" font-family="CenturySchoolbook" font-size="18.0" fill="#000000" transform="matrix(1.00, 0.00, -0.00, -1.00, 235.0, 319.0)">u</text><text xml:space="preserve" font-family="CenturySchoolbook" font-size="18.0" fill="#000000" transform="matrix(1.00, 0.00, -0.00, -1.00, 246.0, 319.0)">t</text><text xml:space="preserve" font-family="CenturySchoolbook" font-size="18.0" fill="#000000" transform="matrix(1.00, 0.00, -0.00, -1.00, 253.0, 319.0)">i</text><text xml:space="preserve" font-family="CenturySchoolbook" font-size="18.0" fill="#000000" transform="matrix(1.00, 0.00, -0.00, -1.00, 258.7, 319.0)">n</text><text xml:space="preserve" font-family="CenturySchoolbook" font-size="18.0" fill="#000000" transform="matrix(1.00, 0.00, -0.00, -1.00, 269.7, 319.0)">g</text><text xml:space="preserve" font-family="CenturySchoolbook" font-size="18.0" fill="#000000" transform="matrix(1.00, 0.00, -0.00, -1.00, 279.3, 319.0)"> </text><text xml:space="preserve" font-family="CenturySchoolbook" font-size="18.0" fill="#000000" transform="matrix(1.00, 0.00, -0.00, -1.00, 284.3, 319.0)">m</text><text xml:space="preserve" font-family="CenturySchoolbook" font-size="18.0" fill="#000000" transform="matrix(1.00, 0.00, -0.00, -1.00, 300.3, 319.0)">e</text><text xml:space="preserve" font-family="CenturySchoolbook" font-size="18.0" fill="#000000" transform="matrix(1.00, 0.00, -0.00, -1.00, 309.3, 319.0)">s</text><text xml:space="preserve" font-family="CenturySchoolbook" font-size="18.0" fill="#000000" transform="matrix(1.00, 0.00, -0.00, -1.00, 317.7, 319.0)">s</text><text xml:space="preserve" font-family="CenturySchoolbook" font-size="18.0" fill="#000000" transform="matrix(1.00, 0.00, -0.00, -1.00, 326.0, 319.0)">a</text><text xml:space="preserve" font-family="CenturySchoolbook" font-size="18.0" fill="#000000" transform="matrix(1.00, 0.00, -0.00, -1.00, 336.0, 319.0)">g</text><text xml:space="preserve" font-family="CenturySchoolbook" font-size="18.0" fill="#000000" transform="matrix(1.00, 0.00, -0.00, -1.00, 345.7, 319.0)">e</text><text xml:space="preserve" font-family="CenturySchoolbook" font-size="18.0" fill="#000000" transform="matrix(1.00, 0.00, -0.00, -1.00, 354.7, 319.0)">s</text><text xml:space="preserve" font-family="CenturySchoolbook" font-size="18.0" fill="#000000" transform="matrix(1.00, 0.00, -0.00, -1.00, 363.0, 319.0)">?</text><text xml:space="preserve" font-family="CenturySchoolbook" font-size="18.0" fill="#000000" transform="matrix(1.00, 0.00, -0.00, -1.00, 371.0, 319.0)"> </text><text xml:space="preserve" font-family="LucidaGrande" font-size="16.0" fill="#6E6E74" transform="matrix(1.00, 0.00, -0.00, -1.00, 124.6, 298.4)">●</text><text xml:space="preserve" font-family="CenturySchoolbook" font-size="16.0" fill="#262626" transform="matrix(1.00, 0.00, -0.00, -1.00, 139.0, 298.0)">W</text><text xml:space="preserve" font-family="CenturySchoolbook" font-size="16.0" fill="#262626" transform="matrix(1.00, 0.00, -0.00, -1.00, 154.7, 298.0)">h</text><text xml:space="preserve" font-family="CenturySchoolbook" font-size="16.0" fill="#262626" transform="matrix(1.00, 0.00, -0.00, -1.00, 164.5, 298.0)">a</text><text xml:space="preserve" font-family="CenturySchoolbook" font-size="16.0" fill="#262626" transform="matrix(1.00, 0.00, -0.00, -1.00, 173.4, 298.0)">t</text><text xml:space="preserve" font-family="CenturySchoolbook" font-size="16.0" fill="#262626" transform="matrix(1.00, 0.00, -0.00, -1.00, 179.6, 298.0)"> </text><text xml:space="preserve" font-family="CenturySchoolbook" font-size="16.0" fill="#262626" transform="matrix(1.00, 0.00, -0.00, -1.00, 184.0, 298.0)">i</text><text xml:space="preserve" font-family="CenturySchoolbook" font-size="16.0" fill="#262626" transform="matrix(1.00, 0.00, -0.00, -1.00, 189.1, 298.0)">s</text><text xml:space="preserve" font-family="CenturySchoolbook" font-size="16.0" fill="#262626" transform="matrix(1.00, 0.00, -0.00, -1.00, 196.5, 298.0)"> </text><text xml:space="preserve" font-family="CenturySchoolbook" font-size="16.0" fill="#262626" transform="matrix(1.00, 0.00, -0.00, -1.00, 200.9, 298.0)">t</text><text xml:space="preserve" font-family="CenturySchoolbook" font-size="16.0" fill="#262626" transform="matrix(1.00, 0.00, -0.00, -1.00, 207.2, 298.0)">h</text><text xml:space="preserve" font-family="CenturySchoolbook" font-size="16.0" fill="#262626" transform="matrix(1.00, 0.00, -0.00, -1.00, 216.9, 298.0)">e</text><text xml:space="preserve" font-family="CenturySchoolbook" font-size="16.0" fill="#262626" transform="matrix(1.00, 0.00, -0.00, -1.00, 224.9, 298.0)"> </text><text xml:space="preserve" font-family="CenturySchoolbook" font-size="16.0" fill="#262626" transform="matrix(1.00, 0.00, -0.00, -1.00, 229.4, 298.0)">p</text><text xml:space="preserve" font-family="CenturySchoolbook" font-size="16.0" fill="#262626" transform="matrix(1.00, 0.00, -0.00, -1.00, 238.6, 298.0)">a</text><text xml:space="preserve" font-family="CenturySchoolbook" font-size="16.0" fill="#262626" transform="matrix(1.00, 0.00, -0.00, -1.00, 247.5, 298.0)">r</text><text xml:space="preserve" font-family="CenturySchoolbook" font-size="16.0" fill="#262626" transform="matrix(1.00, 0.00, -0.00, -1.00, 254.6, 298.0)">t</text><text xml:space="preserve" font-family="CenturySchoolbook" font-size="16.0" fill="#262626" transform="matrix(1.00, 0.00, -0.00, -1.00, 260.8, 298.0)">i</text><text xml:space="preserve" font-family="CenturySchoolbook" font-size="16.0" fill="#262626" transform="matrix(1.00, 0.00, -0.00, -1.00, 265.8, 298.0)">t</text><text xml:space="preserve" font-family="CenturySchoolbook" font-size="16.0" fill="#262626" transform="matrix(1.00, 0.00, -0.00, -1.00, 272.1, 298.0)">i</text><text xml:space="preserve" font-family="CenturySchoolbook" font-size="16.0" fill="#262626" transform="matrix(1.00, 0.00, -0.00, -1.00, 277.1, 298.0)">o</text><text xml:space="preserve" font-family="CenturySchoolbook" font-size="16.0" fill="#262626" transform="matrix(1.00, 0.00, -0.00, -1.00, 285.1, 298.0)">n</text><text xml:space="preserve" font-family="CenturySchoolbook" font-size="16.0" fill="#262626" transform="matrix(1.00, 0.00, -0.00, -1.00, 294.9, 298.0)"> </text><text xml:space="preserve" font-family="CenturySchoolbook" font-size="16.0" fill="#262626" transform="matrix(1.00, 0.00, -0.00, -1.00, 299.3, 298.0)">k</text><text xml:space="preserve" font-family="CenturySchoolbook" font-size="16.0" fill="#262626" transform="matrix(1.00, 0.00, -0.00, -1.00, 308.8, 298.0)">e</text><text xml:space="preserve" font-family="CenturySchoolbook" font-size="16.0" fill="#262626" transform="matrix(1.00, 0.00, -0.00, -1.00, 316.8, 298.0)">y</text><text xml:space="preserve" font-family="CenturySchoolbook" font-size="16.0" fill="#262626" transform="matrix(1.00, 0.00, -0.00, -1.00, 325.4, 298.0)">?</text><text xml:space="preserve" font-family="CenturySchoolbook" font-size="16.0" fill="#262626" transform="matrix(1.00, 0.00, -0.00, -1.00, 332.5, 298.0)"> </text><text xml:space="preserve" font-family="ArialMT" font-size="14.4" fill="#6E6E74" transform="matrix(1.00, 0.00, -0.00, -1.00, 103.0, 266.7)">•</text><text xml:space="preserve" font-family="CenturySchoolbook" font-size="18.0" fill="#000000" transform="matrix(1.00, 0.00, -0.00, -1.00, 117.0, 264.0)">H</text><text xml:space="preserve" font-family="CenturySchoolbook" font-size="18.0" fill="#000000" transform="matrix(1.00, 0.00, -0.00, -1.00, 132.0, 264.0)">o</text><text xml:space="preserve" font-family="CenturySchoolbook" font-size="18.0" fill="#000000" transform="matrix(1.00, 0.00, -0.00, -1.00, 141.0, 264.0)">w</text><text xml:space="preserve" font-family="CenturySchoolbook" font-size="18.0" fill="#000000" transform="matrix(1.00, 0.00, -0.00, -1.00, 155.0, 264.0)"> </text><text xml:space="preserve" font-family="CenturySchoolbook" font-size="18.0" fill="#000000" transform="matrix(1.00, 0.00, -0.00, -1.00, 160.0, 264.0)">t</text><text xml:space="preserve" font-family="CenturySchoolbook" font-size="18.0" fill="#000000" transform="matrix(1.00, 0.00, -0.00, -1.00, 167.0, 264.0)">o</text><text xml:space="preserve" font-family="CenturySchoolbook" font-size="18.0" fill="#000000" transform="matrix(1.00, 0.00, -0.00, -1.00, 176.0, 264.0)"> </text><text xml:space="preserve" font-family="CenturySchoolbook" font-size="18.0" fill="#000000" transform="matrix(1.00, 0.00, -0.00, -1.00, 181.0, 264.0)">s</text><text xml:space="preserve" font-family="CenturySchoolbook" font-size="18.0" fill="#000000" transform="matrix(1.00, 0.00, -0.00, -1.00, 189.3, 264.0)">y</text><text xml:space="preserve" font-family="CenturySchoolbook" font-size="18.0" fill="#000000" transform="matrix(1.00, 0.00, -0.00, -1.00, 199.0, 264.0)">n</text><text xml:space="preserve" font-family="CenturySchoolbook" font-size="18.0" fill="#000000" transform="matrix(1.00, 0.00, -0.00, -1.00, 210.0, 264.0)">c</text><text xml:space="preserve" font-family="CenturySchoolbook" font-size="18.0" fill="#000000" transform="matrix(1.00, 0.00, -0.00, -1.00, 218.0, 264.0)">h</text><text xml:space="preserve" font-family="CenturySchoolbook" font-size="18.0" fill="#000000" transform="matrix(1.00, 0.00, -0.00, -1.00, 229.0, 264.0)">r</text><text xml:space="preserve" font-family="CenturySchoolbook" font-size="18.0" fill="#000000" transform="matrix(1.00, 0.00, -0.00, -1.00, 236.9, 264.0)">o</text><text xml:space="preserve" font-family="CenturySchoolbook" font-size="18.0" fill="#000000" transform="matrix(1.00, 0.00, -0.00, -1.00, 245.9, 264.0)">n</text><text xml:space="preserve" font-family="CenturySchoolbook" font-size="18.0" fill="#000000" transform="matrix(1.00, 0.00, -0.00, -1.00, 256.9, 264.0)">i</text><text xml:space="preserve" font-family="CenturySchoolbook" font-size="18.0" fill="#000000" transform="matrix(1.00, 0.00, -0.00, -1.00, 262.6, 264.0)">z</text><text xml:space="preserve" font-family="CenturySchoolbook" font-size="18.0" fill="#000000" transform="matrix(1.00, 0.00, -0.00, -1.00, 271.3, 264.0)">e</text><text xml:space="preserve" font-family="CenturySchoolbook" font-size="18.0" fill="#000000" transform="matrix(1.00, 0.00, -0.00, -1.00, 280.3, 264.0)"> </text><text xml:space="preserve" font-family="CenturySchoolbook" font-size="18.0" fill="#000000" transform="matrix(1.00, 0.00, -0.00, -1.00, 285.3, 264.0)">c</text><text xml:space="preserve" font-family="CenturySchoolbook" font-size="18.0" fill="#000000" transform="matrix(1.00, 0.00, -0.00, -1.00, 293.2, 264.0)">o</text><text xml:space="preserve" font-family="CenturySchoolbook" font-size="18.0" fill="#000000" transform="matrix(1.00, 0.00, -0.00, -1.00, 302.2, 264.0)">n</text><text xml:space="preserve" font-family="CenturySchoolbook" font-size="18.0" fill="#000000" transform="matrix(1.00, 0.00, -0.00, -1.00, 313.2, 264.0)">s</text><text xml:space="preserve" font-family="CenturySchoolbook" font-size="18.0" fill="#000000" transform="matrix(1.00, 0.00, -0.00, -1.00, 321.6, 264.0)">u</text><text xml:space="preserve" font-family="CenturySchoolbook" font-size="18.0" fill="#000000" transform="matrix(1.00, 0.00, -0.00, -1.00, 332.6, 264.0)">m</text><text xml:space="preserve" font-family="CenturySchoolbook" font-size="18.0" fill="#000000" transform="matrix(1.00, 0.00, -0.00, -1.00, 348.6, 264.0)">e</text><text xml:space="preserve" font-family="CenturySchoolbook" font-size="18.0" fill="#000000" transform="matrix(1.00, 0.00, -0.00, -1.00, 357.6, 264.0)">r</text><text xml:space="preserve" font-family="CenturySchoolbook" font-size="18.0" fill="#000000" transform="matrix(1.00, 0.00, -0.00, -1.00, 365.6, 264.0)">s</text><text xml:space="preserve" font-family="CenturySchoolbook" font-size="18.0" fill="#000000" transform="matrix(1.00, 0.00, -0.00, -1.00, 373.9, 264.0)">?</text></g></svg>