<?xml version="1.0" encoding="UTF-8" standalone="no"?><svg xmlns="http://www.w3.org/2000/svg" xmlns:xlink="http://www.w3.org/1999/xlink" clip-rule="evenodd" stroke-miterlimit="4.00" viewBox="0 0 960 540"><desc>SVG generated by Keynote</desc><defs></defs><g transform="matrix(1.00, 0.00, -0.00, -1.00, 0.0, 540.0)"><path d="M 0.0 540.0 L 960.0 540.0 L 960.0 0.0 L 0.0 0.0 Z M 0.0 540.0 " fill="#FFFFFF"></path><path d="M 889.2 540.0 L 961.2 540.0 L 961.2 0.0 L 889.2 0.0 Z M 889.2 540.0 " fill="#343437"></path><path d="M 0.0 540.0 L 36.0 540.0 L 36.0 0.0 L 0.0 0.0 Z M 0.0 540.0 " fill="#6E6E74"></path><g><clipPath id="clip-113"><path d="M 81.3 165.8 L 859.0 165.8 L 859.0 476.6 L 81.3 476.6 Z M 81.3 165.8 "></path></clipPath><g clip-path="url(#clip-113)"><text xml:space="preserve" font-family="CenturySchoolbook" font-size="72.0" fill="#000000" transform="matrix(1.00, 0.00, -0.00, -1.00, 103.0, 181.0)">W</text><text xml:space="preserve" font-family="CenturySchoolbook" font-size="72.0" fill="#000000" transform="matrix(1.00, 0.00, -0.00, -1.00, 173.1, 181.0)">h</text><text xml:space="preserve" font-family="CenturySchoolbook" font-size="72.0" fill="#000000" transform="matrix(1.00, 0.00, -0.00, -1.00, 216.6, 181.0)">a</text><text xml:space="preserve" font-family="CenturySchoolbook" font-size="72.0" fill="#000000" transform="matrix(1.00, 0.00, -0.00, -1.00, 256.1, 181.0)">t</text><text xml:space="preserve" font-family="CenturySchoolbook" font-size="72.0" fill="#000000" transform="matrix(1.00, 0.00, -0.00, -1.00, 283.7, 181.0)"> </text><text xml:space="preserve" font-family="CenturySchoolbook" font-size="72.0" fill="#000000" transform="matrix(1.00, 0.00, -0.00, -1.00, 303.2, 181.0)">i</text><text xml:space="preserve" font-family="CenturySchoolbook" font-size="72.0" fill="#000000" transform="matrix(1.00, 0.00, -0.00, -1.00, 325.3, 181.0)">s</text><text xml:space="preserve" font-family="CenturySchoolbook" font-size="72.0" fill="#000000" transform="matrix(1.00, 0.00, -0.00, -1.00, 358.2, 181.0)"> </text><text xml:space="preserve" font-family="CenturySchoolbook" font-size="72.0" fill="#000000" transform="matrix(1.00, 0.00, -0.00, -1.00, 377.7, 181.0)">i</text><text xml:space="preserve" font-family="CenturySchoolbook" font-size="72.0" fill="#000000" transform="matrix(1.00, 0.00, -0.00, -1.00, 399.8, 181.0)">n</text><text xml:space="preserve" font-family="CenturySchoolbook" font-size="72.0" fill="#000000" transform="matrix(1.00, 0.00, -0.00, -1.00, 443.3, 181.0)">v</text><text xml:space="preserve" font-family="CenturySchoolbook" font-size="72.0" fill="#000000" transform="matrix(1.00, 0.00, -0.00, -1.00, 481.5, 181.0)">i</text><text xml:space="preserve" font-family="CenturySchoolbook" font-size="72.0" fill="#000000" transform="matrix(1.00, 0.00, -0.00, -1.00, 503.6, 181.0)">s</text><text xml:space="preserve" font-family="CenturySchoolbook" font-size="72.0" fill="#000000" transform="matrix(1.00, 0.00, -0.00, -1.00, 536.5, 181.0)">i</text><text xml:space="preserve" font-family="CenturySchoolbook" font-size="72.0" fill="#000000" transform="matrix(1.00, 0.00, -0.00, -1.00, 558.6, 181.0)">b</text><text xml:space="preserve" font-family="CenturySchoolbook" font-size="72.0" fill="#000000" transform="matrix(1.00, 0.00, -0.00, -1.00, 598.2, 181.0)">i</text><text xml:space="preserve" font-family="CenturySchoolbook" font-size="72.0" fill="#000000" transform="matrix(1.00, 0.00, -0.00, -1.00, 620.3, 181.0)">l</text><text xml:space="preserve" font-family="CenturySchoolbook" font-size="72.0" fill="#000000" transform="matrix(1.00, 0.00, -0.00, -1.00, 642.5, 181.0)">i</text><text xml:space="preserve" font-family="CenturySchoolbook" font-size="72.0" fill="#000000" transform="matrix(1.00, 0.00, -0.00, -1.00, 664.7, 181.0)">t</text><text xml:space="preserve" font-family="CenturySchoolbook" font-size="72.0" fill="#000000" transform="matrix(1.00, 0.00, -0.00, -1.00, 692.2, 181.0)">y</text><text xml:space="preserve" font-family="CenturySchoolbook" font-size="72.0" fill="#000000" transform="matrix(1.00, 0.00, -0.00, -1.00, 730.4, 181.0)">?</text></g></g></g></svg>