<?xml version="1.0" encoding="UTF-8" standalone="no"?><svg xmlns="http://www.w3.org/2000/svg" xmlns:xlink="http://www.w3.org/1999/xlink" clip-rule="evenodd" stroke-miterlimit="4.00" viewBox="0 0 960 540"><desc>SVG generated by Keynote</desc><defs></defs><g transform="matrix(1.00, 0.00, -0.00, -1.00, 0.0, 540.0)"><path d="M 0.0 540.0 L 960.0 540.0 L 960.0 0.0 L 0.0 0.0 Z M 0.0 540.0 " fill="#343437"></path><path d="M 0.0 540.0 L 36.0 540.0 L 36.0 0.0 L 0.0 0.0 Z M 0.0 540.0 " fill="#6E6E74"></path><text xml:space="preserve" font-family="CenturySchoolbook" font-size="72.0" fill="#FFFFFF" transform="matrix(1.00, 0.00, -0.00, -1.00, 103.0, 255.0)">S</text><text xml:space="preserve" font-family="CenturySchoolbook" font-size="72.0" fill="#FFFFFF" transform="matrix(1.00, 0.00, -0.00, -1.00, 147.8, 255.0)">H</text><text xml:space="preserve" font-family="CenturySchoolbook" font-size="72.0" fill="#FFFFFF" transform="matrix(1.00, 0.00, -0.00, -1.00, 207.3, 255.0)">O</text><text xml:space="preserve" font-family="CenturySchoolbook" font-size="72.0" fill="#FFFFFF" transform="matrix(1.00, 0.00, -0.00, -1.00, 262.8, 255.0)">W</text><text xml:space="preserve" font-family="CenturySchoolbook" font-size="72.0" fill="#FFFFFF" transform="matrix(1.00, 0.00, -0.00, -1.00, 332.9, 255.0)"> </text><text xml:space="preserve" font-family="CenturySchoolbook" font-size="72.0" fill="#FFFFFF" transform="matrix(1.00, 0.00, -0.00, -1.00, 352.4, 255.0)">M</text><text xml:space="preserve" font-family="CenturySchoolbook" font-size="72.0" fill="#FFFFFF" transform="matrix(1.00, 0.00, -0.00, -1.00, 419.9, 255.0)">E</text><text xml:space="preserve" font-family="CenturySchoolbook" font-size="72.0" fill="#FFFFFF" transform="matrix(1.00, 0.00, -0.00, -1.00, 471.3, 255.0)"> </text><text xml:space="preserve" font-family="CenturySchoolbook" font-size="72.0" fill="#FFFFFF" transform="matrix(1.00, 0.00, -0.00, -1.00, 490.8, 255.0)">T</text><text xml:space="preserve" font-family="CenturySchoolbook" font-size="72.0" fill="#FFFFFF" transform="matrix(1.00, 0.00, -0.00, -1.00, 538.3, 255.0)">H</text><text xml:space="preserve" font-family="CenturySchoolbook" font-size="72.0" fill="#FFFFFF" transform="matrix(1.00, 0.00, -0.00, -1.00, 597.8, 255.0)">E</text><text xml:space="preserve" font-family="CenturySchoolbook" font-size="72.0" fill="#FFFFFF" transform="matrix(1.00, 0.00, -0.00, -1.00, 649.3, 255.0)"> </text><g><clipPath id="clip-293"><path d="M 81.3 165.8 L 859.0 165.8 L 859.0 476.6 L 81.3 476.6 Z M 81.3 165.8 "></path></clipPath><g clip-path="url(#clip-293)"><text xml:space="preserve" font-family="CenturySchoolbook" font-size="72.0" fill="#FFFFFF" transform="matrix(1.00, 0.00, -0.00, -1.00, 103.0, 181.0)">C</text><text xml:space="preserve" font-family="CenturySchoolbook" font-size="72.0" fill="#FFFFFF" transform="matrix(1.00, 0.00, -0.00, -1.00, 154.5, 181.0)">O</text><text xml:space="preserve" font-family="CenturySchoolbook" font-size="72.0" fill="#FFFFFF" transform="matrix(1.00, 0.00, -0.00, -1.00, 210.0, 181.0)">D</text><text xml:space="preserve" font-family="CenturySchoolbook" font-size="72.0" fill="#FFFFFF" transform="matrix(1.00, 0.00, -0.00, -1.00, 265.5, 181.0)">E</text></g></g></g></svg>