<?xml version="1.0" encoding="UTF-8" standalone="no"?><svg xmlns="http://www.w3.org/2000/svg" xmlns:xlink="http://www.w3.org/1999/xlink" clip-rule="evenodd" stroke-miterlimit="4.00" viewBox="0 0 960 540"><desc>SVG generated by Keynote</desc><defs></defs><g transform="matrix(1.00, 0.00, -0.00, -1.00, 0.0, 540.0)"><path d="M 0.0 540.0 L 960.0 540.0 L 960.0 0.0 L 0.0 0.0 Z M 0.0 540.0 " fill="#FFFFFF"></path><path d="M 889.2 540.0 L 961.2 540.0 L 961.2 0.0 L 889.2 0.0 Z M 889.2 540.0 " fill="#343437"></path><g><clipPath id="clip-25"><path d="M 89.7 410.8 L 872.2 410.8 L 872.2 507.6 L 89.7 507.6 Z M 89.7 410.8 "></path></clipPath><g clip-path="url(#clip-25)"><text xml:space="preserve" font-family="CenturySchoolbook" font-size="44.0" fill="#000000" transform="matrix(1.00, 0.00, -0.00, -1.00, 103.0, 420.0)">C</text><text xml:space="preserve" font-family="CenturySchoolbook" font-size="44.0" fill="#000000" transform="matrix(1.00, 0.00, -0.00, -1.00, 133.8, 420.0)">a</text><text xml:space="preserve" font-family="CenturySchoolbook" font-size="44.0" fill="#000000" transform="matrix(1.00, 0.00, -0.00, -1.00, 157.3, 420.0)">s</text><text xml:space="preserve" font-family="CenturySchoolbook" font-size="44.0" fill="#000000" transform="matrix(1.00, 0.00, -0.00, -1.00, 176.6, 420.0)">s</text><text xml:space="preserve" font-family="CenturySchoolbook" font-size="44.0" fill="#000000" transform="matrix(1.00, 0.00, -0.00, -1.00, 196.0, 420.0)">i</text><text xml:space="preserve" font-family="CenturySchoolbook" font-size="44.0" fill="#000000" transform="matrix(1.00, 0.00, -0.00, -1.00, 208.9, 420.0)">e</text><text xml:space="preserve" font-family="CenturySchoolbook" font-size="44.0" fill="#000000" transform="matrix(1.00, 0.00, -0.00, -1.00, 229.9, 420.0)">Q</text></g></g><text xml:space="preserve" font-family="ArialMT" font-size="14.4" fill="#6E6E74" transform="matrix(1.00, 0.00, -0.00, -1.00, 103.0, 376.7)">•</text><text xml:space="preserve" font-family="CenturySchoolbook" font-size="18.0" fill="#000000" transform="matrix(1.00, 0.00, -0.00, -1.00, 117.0, 374.0)">H</text><text xml:space="preserve" font-family="CenturySchoolbook" font-size="18.0" fill="#000000" transform="matrix(1.00, 0.00, -0.00, -1.00, 132.0, 374.0)">T</text><text xml:space="preserve" font-family="CenturySchoolbook" font-size="18.0" fill="#000000" transform="matrix(1.00, 0.00, -0.00, -1.00, 144.0, 374.0)">T</text><text xml:space="preserve" font-family="CenturySchoolbook" font-size="18.0" fill="#000000" transform="matrix(1.00, 0.00, -0.00, -1.00, 156.0, 374.0)">P</text><text xml:space="preserve" font-family="CenturySchoolbook" font-size="18.0" fill="#000000" transform="matrix(1.00, 0.00, -0.00, -1.00, 168.0, 374.0)">(</text><text xml:space="preserve" font-family="CenturySchoolbook" font-size="18.0" fill="#000000" transform="matrix(1.00, 0.00, -0.00, -1.00, 174.0, 374.0)">s</text><text xml:space="preserve" font-family="CenturySchoolbook" font-size="18.0" fill="#000000" transform="matrix(1.00, 0.00, -0.00, -1.00, 182.3, 374.0)">)</text><text xml:space="preserve" font-family="CenturySchoolbook" font-size="18.0" fill="#000000" transform="matrix(1.00, 0.00, -0.00, -1.00, 188.3, 374.0)"> </text><text xml:space="preserve" font-family="CenturySchoolbook" font-size="18.0" fill="#000000" transform="matrix(1.00, 0.00, -0.00, -1.00, 193.3, 374.0)">b</text><text xml:space="preserve" font-family="CenturySchoolbook" font-size="18.0" fill="#000000" transform="matrix(1.00, 0.00, -0.00, -1.00, 203.3, 374.0)">a</text><text xml:space="preserve" font-family="CenturySchoolbook" font-size="18.0" fill="#000000" transform="matrix(1.00, 0.00, -0.00, -1.00, 213.4, 374.0)">s</text><text xml:space="preserve" font-family="CenturySchoolbook" font-size="18.0" fill="#000000" transform="matrix(1.00, 0.00, -0.00, -1.00, 221.7, 374.0)">e</text><text xml:space="preserve" font-family="CenturySchoolbook" font-size="18.0" fill="#000000" transform="matrix(1.00, 0.00, -0.00, -1.00, 230.7, 374.0)">d</text><text xml:space="preserve" font-family="CenturySchoolbook" font-size="18.0" fill="#000000" transform="matrix(1.00, 0.00, -0.00, -1.00, 241.0, 374.0)"> </text><text xml:space="preserve" font-family="CenturySchoolbook" font-size="18.0" fill="#000000" transform="matrix(1.00, 0.00, -0.00, -1.00, 246.0, 374.0)">A</text><text xml:space="preserve" font-family="CenturySchoolbook" font-size="18.0" fill="#000000" transform="matrix(1.00, 0.00, -0.00, -1.00, 259.0, 374.0)">P</text><text xml:space="preserve" font-family="CenturySchoolbook" font-size="18.0" fill="#000000" transform="matrix(1.00, 0.00, -0.00, -1.00, 271.0, 374.0)">I</text><text xml:space="preserve" font-family="CenturySchoolbook" font-size="18.0" fill="#000000" transform="matrix(1.00, 0.00, -0.00, -1.00, 278.4, 374.0)"> </text><text xml:space="preserve" font-family="ArialMT" font-size="14.4" fill="#6E6E74" transform="matrix(1.00, 0.00, -0.00, -1.00, 103.0, 341.8)">•</text><text xml:space="preserve" font-family="CenturySchoolbook" font-size="18.0" fill="#000000" transform="matrix(1.00, 0.00, -0.00, -1.00, 117.0, 339.0)">N</text><text xml:space="preserve" font-family="CenturySchoolbook" font-size="18.0" fill="#000000" transform="matrix(1.00, 0.00, -0.00, -1.00, 131.7, 339.0)">o</text><text xml:space="preserve" font-family="CenturySchoolbook" font-size="18.0" fill="#000000" transform="matrix(1.00, 0.00, -0.00, -1.00, 140.7, 339.0)"> </text><text xml:space="preserve" font-family="CenturySchoolbook" font-size="18.0" fill="#000000" transform="matrix(1.00, 0.00, -0.00, -1.00, 145.7, 339.0)">l</text><text xml:space="preserve" font-family="CenturySchoolbook" font-size="18.0" fill="#000000" transform="matrix(1.00, 0.00, -0.00, -1.00, 151.3, 339.0)">o</text><text xml:space="preserve" font-family="CenturySchoolbook" font-size="18.0" fill="#000000" transform="matrix(1.00, 0.00, -0.00, -1.00, 160.3, 339.0)">c</text><text xml:space="preserve" font-family="CenturySchoolbook" font-size="18.0" fill="#000000" transform="matrix(1.00, 0.00, -0.00, -1.00, 168.3, 339.0)">k</text><text xml:space="preserve" font-family="CenturySchoolbook" font-size="18.0" fill="#000000" transform="matrix(1.00, 0.00, -0.00, -1.00, 179.0, 339.0)">i</text><text xml:space="preserve" font-family="CenturySchoolbook" font-size="18.0" fill="#000000" transform="matrix(1.00, 0.00, -0.00, -1.00, 184.7, 339.0)">n</text><text xml:space="preserve" font-family="CenturySchoolbook" font-size="18.0" fill="#000000" transform="matrix(1.00, 0.00, -0.00, -1.00, 195.6, 339.0)">g</text><text xml:space="preserve" font-family="CenturySchoolbook" font-size="18.0" fill="#000000" transform="matrix(1.00, 0.00, -0.00, -1.00, 205.3, 339.0)"> </text><text xml:space="preserve" font-family="ArialMT" font-size="14.4" fill="#6E6E74" transform="matrix(1.00, 0.00, -0.00, -1.00, 103.0, 306.9)">•</text><text xml:space="preserve" font-family="CenturySchoolbook" font-size="18.0" fill="#000000" transform="matrix(1.00, 0.00, -0.00, -1.00, 117.0, 304.0)">F</text><text xml:space="preserve" font-family="CenturySchoolbook" font-size="18.0" fill="#000000" transform="matrix(1.00, 0.00, -0.00, -1.00, 129.0, 304.0)">i</text><text xml:space="preserve" font-family="CenturySchoolbook" font-size="18.0" fill="#000000" transform="matrix(1.00, 0.00, -0.00, -1.00, 134.7, 304.0)">x</text><text xml:space="preserve" font-family="CenturySchoolbook" font-size="18.0" fill="#000000" transform="matrix(1.00, 0.00, -0.00, -1.00, 144.3, 304.0)">e</text><text xml:space="preserve" font-family="CenturySchoolbook" font-size="18.0" fill="#000000" transform="matrix(1.00, 0.00, -0.00, -1.00, 153.3, 304.0)">d</text><text xml:space="preserve" font-family="CenturySchoolbook" font-size="18.0" fill="#000000" transform="matrix(1.00, 0.00, -0.00, -1.00, 163.7, 304.0)"> </text><text xml:space="preserve" font-family="CenturySchoolbook" font-size="18.0" fill="#000000" transform="matrix(1.00, 0.00, -0.00, -1.00, 168.7, 304.0)">s</text><text xml:space="preserve" font-family="CenturySchoolbook" font-size="18.0" fill="#000000" transform="matrix(1.00, 0.00, -0.00, -1.00, 177.0, 304.0)">i</text><text xml:space="preserve" font-family="CenturySchoolbook" font-size="18.0" fill="#000000" transform="matrix(1.00, 0.00, -0.00, -1.00, 182.7, 304.0)">z</text><text xml:space="preserve" font-family="CenturySchoolbook" font-size="18.0" fill="#000000" transform="matrix(1.00, 0.00, -0.00, -1.00, 191.3, 304.0)">e</text><text xml:space="preserve" font-family="CenturySchoolbook" font-size="18.0" fill="#000000" transform="matrix(1.00, 0.00, -0.00, -1.00, 200.3, 304.0)"> </text><text xml:space="preserve" font-family="CenturySchoolbook" font-size="18.0" fill="#000000" transform="matrix(1.00, 0.00, -0.00, -1.00, 205.3, 304.0)">b</text><text xml:space="preserve" font-family="CenturySchoolbook" font-size="18.0" fill="#000000" transform="matrix(1.00, 0.00, -0.00, -1.00, 215.3, 304.0)">u</text><text xml:space="preserve" font-family="CenturySchoolbook" font-size="18.0" fill="#000000" transform="matrix(1.00, 0.00, -0.00, -1.00, 226.3, 304.0)">c</text><text xml:space="preserve" font-family="CenturySchoolbook" font-size="18.0" fill="#000000" transform="matrix(1.00, 0.00, -0.00, -1.00, 234.3, 304.0)">k</text><text xml:space="preserve" font-family="CenturySchoolbook" font-size="18.0" fill="#000000" transform="matrix(1.00, 0.00, -0.00, -1.00, 245.0, 304.0)">e</text><text xml:space="preserve" font-family="CenturySchoolbook" font-size="18.0" fill="#000000" transform="matrix(1.00, 0.00, -0.00, -1.00, 254.0, 304.0)">t</text><text xml:space="preserve" font-family="CenturySchoolbook" font-size="18.0" fill="#000000" transform="matrix(1.00, 0.00, -0.00, -1.00, 261.0, 304.0)"> </text><text xml:space="preserve" font-family="CenturySchoolbook" font-size="18.0" fill="#000000" transform="matrix(1.00, 0.00, -0.00, -1.00, 266.0, 304.0)">p</text><text xml:space="preserve" font-family="CenturySchoolbook" font-size="18.0" fill="#000000" transform="matrix(1.00, 0.00, -0.00, -1.00, 276.3, 304.0)">a</text><text xml:space="preserve" font-family="CenturySchoolbook" font-size="18.0" fill="#000000" transform="matrix(1.00, 0.00, -0.00, -1.00, 286.3, 304.0)">r</text><text xml:space="preserve" font-family="CenturySchoolbook" font-size="18.0" fill="#000000" transform="matrix(1.00, 0.00, -0.00, -1.00, 294.3, 304.0)">t</text><text xml:space="preserve" font-family="CenturySchoolbook" font-size="18.0" fill="#000000" transform="matrix(1.00, 0.00, -0.00, -1.00, 301.3, 304.0)">i</text><text xml:space="preserve" font-family="CenturySchoolbook" font-size="18.0" fill="#000000" transform="matrix(1.00, 0.00, -0.00, -1.00, 307.0, 304.0)">t</text><text xml:space="preserve" font-family="CenturySchoolbook" font-size="18.0" fill="#000000" transform="matrix(1.00, 0.00, -0.00, -1.00, 314.0, 304.0)">i</text><text xml:space="preserve" font-family="CenturySchoolbook" font-size="18.0" fill="#000000" transform="matrix(1.00, 0.00, -0.00, -1.00, 319.7, 304.0)">o</text><text xml:space="preserve" font-family="CenturySchoolbook" font-size="18.0" fill="#000000" transform="matrix(1.00, 0.00, -0.00, -1.00, 328.7, 304.0)">n</text><text xml:space="preserve" font-family="CenturySchoolbook" font-size="18.0" fill="#000000" transform="matrix(1.00, 0.00, -0.00, -1.00, 339.7, 304.0)">i</text><text xml:space="preserve" font-family="CenturySchoolbook" font-size="18.0" fill="#000000" transform="matrix(1.00, 0.00, -0.00, -1.00, 345.3, 304.0)">n</text><text xml:space="preserve" font-family="CenturySchoolbook" font-size="18.0" fill="#000000" transform="matrix(1.00, 0.00, -0.00, -1.00, 356.3, 304.0)">g</text><text xml:space="preserve" font-family="CenturySchoolbook" font-size="18.0" fill="#000000" transform="matrix(1.00, 0.00, -0.00, -1.00, 366.0, 304.0)"> </text><text xml:space="preserve" font-family="ArialMT" font-size="14.4" fill="#6E6E74" transform="matrix(1.00, 0.00, -0.00, -1.00, 124.6, 272.0)">•</text><text xml:space="preserve" font-family="CenturySchoolbook" font-size="18.0" fill="#000000" transform="matrix(1.00, 0.00, -0.00, -1.00, 139.0, 270.0)">L</text><text xml:space="preserve" font-family="CenturySchoolbook" font-size="18.0" fill="#000000" transform="matrix(1.00, 0.00, -0.00, -1.00, 151.0, 270.0)">e</text><text xml:space="preserve" font-family="CenturySchoolbook" font-size="18.0" fill="#000000" transform="matrix(1.00, 0.00, -0.00, -1.00, 160.0, 270.0)">v</text><text xml:space="preserve" font-family="CenturySchoolbook" font-size="18.0" fill="#000000" transform="matrix(1.00, 0.00, -0.00, -1.00, 169.7, 270.0)">e</text><text xml:space="preserve" font-family="CenturySchoolbook" font-size="18.0" fill="#000000" transform="matrix(1.00, 0.00, -0.00, -1.00, 178.7, 270.0)">r</text><text xml:space="preserve" font-family="CenturySchoolbook" font-size="18.0" fill="#000000" transform="matrix(1.00, 0.00, -0.00, -1.00, 186.7, 270.0)">a</text><text xml:space="preserve" font-family="CenturySchoolbook" font-size="18.0" fill="#000000" transform="matrix(1.00, 0.00, -0.00, -1.00, 196.7, 270.0)">g</text><text xml:space="preserve" font-family="CenturySchoolbook" font-size="18.0" fill="#000000" transform="matrix(1.00, 0.00, -0.00, -1.00, 206.3, 270.0)">e</text><text xml:space="preserve" font-family="CenturySchoolbook" font-size="18.0" fill="#000000" transform="matrix(1.00, 0.00, -0.00, -1.00, 215.3, 270.0)">s</text><text xml:space="preserve" font-family="CenturySchoolbook" font-size="18.0" fill="#000000" transform="matrix(1.00, 0.00, -0.00, -1.00, 223.7, 270.0)"> </text><text xml:space="preserve" font-family="CenturySchoolbook" font-size="18.0" fill="#000000" transform="matrix(1.00, 0.00, -0.00, -1.00, 228.7, 270.0)">p</text><text xml:space="preserve" font-family="CenturySchoolbook" font-size="18.0" fill="#000000" transform="matrix(1.00, 0.00, -0.00, -1.00, 239.0, 270.0)">o</text><text xml:space="preserve" font-family="CenturySchoolbook" font-size="18.0" fill="#000000" transform="matrix(1.00, 0.00, -0.00, -1.00, 248.0, 270.0)">i</text><text xml:space="preserve" font-family="CenturySchoolbook" font-size="18.0" fill="#000000" transform="matrix(1.00, 0.00, -0.00, -1.00, 253.7, 270.0)">n</text><text xml:space="preserve" font-family="CenturySchoolbook" font-size="18.0" fill="#000000" transform="matrix(1.00, 0.00, -0.00, -1.00, 264.7, 270.0)">t</text><text xml:space="preserve" font-family="CenturySchoolbook" font-size="18.0" fill="#000000" transform="matrix(1.00, 0.00, -0.00, -1.00, 271.7, 270.0)">e</text><text xml:space="preserve" font-family="CenturySchoolbook" font-size="18.0" fill="#000000" transform="matrix(1.00, 0.00, -0.00, -1.00, 280.7, 270.0)">r</text><text xml:space="preserve" font-family="CenturySchoolbook" font-size="18.0" fill="#000000" transform="matrix(1.00, 0.00, -0.00, -1.00, 288.7, 270.0)">s</text><text xml:space="preserve" font-family="CenturySchoolbook" font-size="18.0" fill="#000000" transform="matrix(1.00, 0.00, -0.00, -1.00, 297.0, 270.0)"> </text><text xml:space="preserve" font-family="CenturySchoolbook" font-size="18.0" fill="#000000" transform="matrix(1.00, 0.00, -0.00, -1.00, 302.0, 270.0)">(</text><text xml:space="preserve" font-family="CenturySchoolbook" font-size="18.0" fill="#000000" transform="matrix(1.00, 0.00, -0.00, -1.00, 308.0, 270.0)">k</text><text xml:space="preserve" font-family="CenturySchoolbook" font-size="18.0" fill="#000000" transform="matrix(1.00, 0.00, -0.00, -1.00, 318.7, 270.0)">a</text><text xml:space="preserve" font-family="CenturySchoolbook" font-size="18.0" fill="#000000" transform="matrix(1.00, 0.00, -0.00, -1.00, 328.7, 270.0)">f</text><text xml:space="preserve" font-family="CenturySchoolbook" font-size="18.0" fill="#000000" transform="matrix(1.00, 0.00, -0.00, -1.00, 334.7, 270.0)">k</text><text xml:space="preserve" font-family="CenturySchoolbook" font-size="18.0" fill="#000000" transform="matrix(1.00, 0.00, -0.00, -1.00, 345.3, 270.0)">a</text><text xml:space="preserve" font-family="CenturySchoolbook" font-size="18.0" fill="#000000" transform="matrix(1.00, 0.00, -0.00, -1.00, 355.3, 270.0)">e</text><text xml:space="preserve" font-family="CenturySchoolbook" font-size="18.0" fill="#000000" transform="matrix(1.00, 0.00, -0.00, -1.00, 364.3, 270.0)">s</text><text xml:space="preserve" font-family="CenturySchoolbook" font-size="18.0" fill="#000000" transform="matrix(1.00, 0.00, -0.00, -1.00, 372.7, 270.0)">q</text><text xml:space="preserve" font-family="CenturySchoolbook" font-size="18.0" fill="#000000" transform="matrix(1.00, 0.00, -0.00, -1.00, 382.7, 270.0)">u</text><text xml:space="preserve" font-family="CenturySchoolbook" font-size="18.0" fill="#000000" transform="matrix(1.00, 0.00, -0.00, -1.00, 393.7, 270.0)">e</text><text xml:space="preserve" font-family="CenturySchoolbook" font-size="18.0" fill="#000000" transform="matrix(1.00, 0.00, -0.00, -1.00, 402.7, 270.0)">)</text><text xml:space="preserve" font-family="CenturySchoolbook" font-size="16.0" fill="#262626" transform="matrix(1.00, 0.00, -0.00, -1.00, 408.7, 270.0)"> </text><text xml:space="preserve" font-family="ArialMT" font-size="14.4" fill="#6E6E74" transform="matrix(1.00, 0.00, -0.00, -1.00, 103.0, 237.1)">•</text><text xml:space="preserve" font-family="CenturySchoolbook" font-size="18.0" fill="#000000" transform="matrix(1.00, 0.00, -0.00, -1.00, 117.0, 235.0)">M</text><text xml:space="preserve" font-family="CenturySchoolbook" font-size="18.0" fill="#000000" transform="matrix(1.00, 0.00, -0.00, -1.00, 134.0, 235.0)">e</text><text xml:space="preserve" font-family="CenturySchoolbook" font-size="18.0" fill="#000000" transform="matrix(1.00, 0.00, -0.00, -1.00, 143.0, 235.0)">s</text><text xml:space="preserve" font-family="CenturySchoolbook" font-size="18.0" fill="#000000" transform="matrix(1.00, 0.00, -0.00, -1.00, 151.3, 235.0)">s</text><text xml:space="preserve" font-family="CenturySchoolbook" font-size="18.0" fill="#000000" transform="matrix(1.00, 0.00, -0.00, -1.00, 159.6, 235.0)">a</text><text xml:space="preserve" font-family="CenturySchoolbook" font-size="18.0" fill="#000000" transform="matrix(1.00, 0.00, -0.00, -1.00, 169.7, 235.0)">g</text><text xml:space="preserve" font-family="CenturySchoolbook" font-size="18.0" fill="#000000" transform="matrix(1.00, 0.00, -0.00, -1.00, 179.3, 235.0)">e</text><text xml:space="preserve" font-family="CenturySchoolbook" font-size="18.0" fill="#000000" transform="matrix(1.00, 0.00, -0.00, -1.00, 188.3, 235.0)"> </text><text xml:space="preserve" font-family="CenturySchoolbook" font-size="18.0" fill="#000000" transform="matrix(1.00, 0.00, -0.00, -1.00, 193.3, 235.0)">i</text><text xml:space="preserve" font-family="CenturySchoolbook" font-size="18.0" fill="#000000" transform="matrix(1.00, 0.00, -0.00, -1.00, 199.0, 235.0)">n</text><text xml:space="preserve" font-family="CenturySchoolbook" font-size="18.0" fill="#000000" transform="matrix(1.00, 0.00, -0.00, -1.00, 210.0, 235.0)">v</text><text xml:space="preserve" font-family="CenturySchoolbook" font-size="18.0" fill="#000000" transform="matrix(1.00, 0.00, -0.00, -1.00, 219.7, 235.0)">i</text><text xml:space="preserve" font-family="CenturySchoolbook" font-size="18.0" fill="#000000" transform="matrix(1.00, 0.00, -0.00, -1.00, 225.3, 235.0)">s</text><text xml:space="preserve" font-family="CenturySchoolbook" font-size="18.0" fill="#000000" transform="matrix(1.00, 0.00, -0.00, -1.00, 233.7, 235.0)">i</text><text xml:space="preserve" font-family="CenturySchoolbook" font-size="18.0" fill="#000000" transform="matrix(1.00, 0.00, -0.00, -1.00, 239.3, 235.0)">b</text><text xml:space="preserve" font-family="CenturySchoolbook" font-size="18.0" fill="#000000" transform="matrix(1.00, 0.00, -0.00, -1.00, 249.3, 235.0)">i</text><text xml:space="preserve" font-family="CenturySchoolbook" font-size="18.0" fill="#000000" transform="matrix(1.00, 0.00, -0.00, -1.00, 255.0, 235.0)">l</text><text xml:space="preserve" font-family="CenturySchoolbook" font-size="18.0" fill="#000000" transform="matrix(1.00, 0.00, -0.00, -1.00, 260.7, 235.0)">i</text><text xml:space="preserve" font-family="CenturySchoolbook" font-size="18.0" fill="#000000" transform="matrix(1.00, 0.00, -0.00, -1.00, 266.3, 235.0)">t</text><text xml:space="preserve" font-family="CenturySchoolbook" font-size="18.0" fill="#000000" transform="matrix(1.00, 0.00, -0.00, -1.00, 273.3, 235.0)">y</text><text xml:space="preserve" font-family="CenturySchoolbook" font-size="18.0" fill="#000000" transform="matrix(1.00, 0.00, -0.00, -1.00, 283.0, 235.0)"> </text><text xml:space="preserve" font-family="ArialMT" font-size="14.4" fill="#6E6E74" transform="matrix(1.00, 0.00, -0.00, -1.00, 124.6, 202.2)">•</text><text xml:space="preserve" font-family="CenturySchoolbook" font-size="18.0" fill="#000000" transform="matrix(1.00, 0.00, -0.00, -1.00, 139.0, 200.0)">A</text><text xml:space="preserve" font-family="CenturySchoolbook" font-size="18.0" fill="#000000" transform="matrix(1.00, 0.00, -0.00, -1.00, 152.0, 200.0)">z</text><text xml:space="preserve" font-family="CenturySchoolbook" font-size="18.0" fill="#000000" transform="matrix(1.00, 0.00, -0.00, -1.00, 160.7, 200.0)">u</text><text xml:space="preserve" font-family="CenturySchoolbook" font-size="18.0" fill="#000000" transform="matrix(1.00, 0.00, -0.00, -1.00, 171.7, 200.0)">r</text><text xml:space="preserve" font-family="CenturySchoolbook" font-size="18.0" fill="#000000" transform="matrix(1.00, 0.00, -0.00, -1.00, 179.6, 200.0)">e</text><text xml:space="preserve" font-family="CenturySchoolbook" font-size="18.0" fill="#000000" transform="matrix(1.00, 0.00, -0.00, -1.00, 188.6, 200.0)"> </text><text xml:space="preserve" font-family="CenturySchoolbook" font-size="18.0" fill="#000000" transform="matrix(1.00, 0.00, -0.00, -1.00, 193.6, 200.0)">Q</text><text xml:space="preserve" font-family="CenturySchoolbook" font-size="18.0" fill="#000000" transform="matrix(1.00, 0.00, -0.00, -1.00, 207.6, 200.0)">u</text><text xml:space="preserve" font-family="CenturySchoolbook" font-size="18.0" fill="#000000" transform="matrix(1.00, 0.00, -0.00, -1.00, 218.6, 200.0)">e</text><text xml:space="preserve" font-family="CenturySchoolbook" font-size="18.0" fill="#000000" transform="matrix(1.00, 0.00, -0.00, -1.00, 227.6, 200.0)">u</text><text xml:space="preserve" font-family="CenturySchoolbook" font-size="18.0" fill="#000000" transform="matrix(1.00, 0.00, -0.00, -1.00, 238.6, 200.0)">e</text><text xml:space="preserve" font-family="CenturySchoolbook" font-size="18.0" fill="#000000" transform="matrix(1.00, 0.00, -0.00, -1.00, 247.6, 200.0)">/</text><text xml:space="preserve" font-family="CenturySchoolbook" font-size="18.0" fill="#000000" transform="matrix(1.00, 0.00, -0.00, -1.00, 252.6, 200.0)">S</text><text xml:space="preserve" font-family="CenturySchoolbook" font-size="18.0" fill="#000000" transform="matrix(1.00, 0.00, -0.00, -1.00, 263.9, 200.0)">Q</text><text xml:space="preserve" font-family="CenturySchoolbook" font-size="18.0" fill="#000000" transform="matrix(1.00, 0.00, -0.00, -1.00, 277.9, 200.0)">S</text><text xml:space="preserve" font-family="CenturySchoolbook" font-size="18.0" fill="#000000" transform="matrix(1.00, 0.00, -0.00, -1.00, 289.3, 200.0)"> </text><text xml:space="preserve" font-family="CenturySchoolbook" font-size="18.0" fill="#000000" transform="matrix(1.00, 0.00, -0.00, -1.00, 294.3, 200.0)">i</text><text xml:space="preserve" font-family="CenturySchoolbook" font-size="18.0" fill="#000000" transform="matrix(1.00, 0.00, -0.00, -1.00, 299.9, 200.0)">n</text><text xml:space="preserve" font-family="CenturySchoolbook" font-size="18.0" fill="#000000" transform="matrix(1.00, 0.00, -0.00, -1.00, 310.9, 200.0)">s</text><text xml:space="preserve" font-family="CenturySchoolbook" font-size="18.0" fill="#000000" transform="matrix(1.00, 0.00, -0.00, -1.00, 319.3, 200.0)">p</text><text xml:space="preserve" font-family="CenturySchoolbook" font-size="18.0" fill="#000000" transform="matrix(1.00, 0.00, -0.00, -1.00, 329.6, 200.0)">i</text><text xml:space="preserve" font-family="CenturySchoolbook" font-size="18.0" fill="#000000" transform="matrix(1.00, 0.00, -0.00, -1.00, 335.3, 200.0)">r</text><text xml:space="preserve" font-family="CenturySchoolbook" font-size="18.0" fill="#000000" transform="matrix(1.00, 0.00, -0.00, -1.00, 343.3, 200.0)">e</text><text xml:space="preserve" font-family="CenturySchoolbook" font-size="18.0" fill="#000000" transform="matrix(1.00, 0.00, -0.00, -1.00, 352.3, 200.0)">d</text><text xml:space="preserve" font-family="CenturySchoolbook" font-size="18.0" fill="#000000" transform="matrix(1.00, 0.00, -0.00, -1.00, 362.6, 200.0)"> </text><text xml:space="preserve" font-family="ArialMT" font-size="14.4" fill="#6E6E74" transform="matrix(1.00, 0.00, -0.00, -1.00, 103.0, 167.3)">•</text><text xml:space="preserve" font-family="CenturySchoolbook" font-size="18.0" fill="#000000" transform="matrix(1.00, 0.00, -0.00, -1.00, 117.0, 165.0)">D</text><text xml:space="preserve" font-family="CenturySchoolbook" font-size="18.0" fill="#000000" transform="matrix(1.00, 0.00, -0.00, -1.00, 131.0, 165.0)">o</text><text xml:space="preserve" font-family="CenturySchoolbook" font-size="18.0" fill="#000000" transform="matrix(1.00, 0.00, -0.00, -1.00, 140.0, 165.0)">c</text><text xml:space="preserve" font-family="CenturySchoolbook" font-size="18.0" fill="#000000" transform="matrix(1.00, 0.00, -0.00, -1.00, 148.0, 165.0)">k</text><text xml:space="preserve" font-family="CenturySchoolbook" font-size="18.0" fill="#000000" transform="matrix(1.00, 0.00, -0.00, -1.00, 158.6, 165.0)">e</text><text xml:space="preserve" font-family="CenturySchoolbook" font-size="18.0" fill="#000000" transform="matrix(1.00, 0.00, -0.00, -1.00, 167.6, 165.0)">r</text><text xml:space="preserve" font-family="CenturySchoolbook" font-size="18.0" fill="#000000" transform="matrix(1.00, 0.00, -0.00, -1.00, 175.6, 165.0)"> </text><text xml:space="preserve" font-family="CenturySchoolbook" font-size="18.0" fill="#000000" transform="matrix(1.00, 0.00, -0.00, -1.00, 180.6, 165.0)">d</text><text xml:space="preserve" font-family="CenturySchoolbook" font-size="18.0" fill="#000000" transform="matrix(1.00, 0.00, -0.00, -1.00, 191.0, 165.0)">e</text><text xml:space="preserve" font-family="CenturySchoolbook" font-size="18.0" fill="#000000" transform="matrix(1.00, 0.00, -0.00, -1.00, 200.0, 165.0)">p</text><text xml:space="preserve" font-family="CenturySchoolbook" font-size="18.0" fill="#000000" transform="matrix(1.00, 0.00, -0.00, -1.00, 210.3, 165.0)">l</text><text xml:space="preserve" font-family="CenturySchoolbook" font-size="18.0" fill="#000000" transform="matrix(1.00, 0.00, -0.00, -1.00, 216.0, 165.0)">o</text><text xml:space="preserve" font-family="CenturySchoolbook" font-size="18.0" fill="#000000" transform="matrix(1.00, 0.00, -0.00, -1.00, 225.0, 165.0)">y</text><text xml:space="preserve" font-family="CenturySchoolbook" font-size="18.0" fill="#000000" transform="matrix(1.00, 0.00, -0.00, -1.00, 234.6, 165.0)">m</text><text xml:space="preserve" font-family="CenturySchoolbook" font-size="18.0" fill="#000000" transform="matrix(1.00, 0.00, -0.00, -1.00, 250.7, 165.0)">e</text><text xml:space="preserve" font-family="CenturySchoolbook" font-size="18.0" fill="#000000" transform="matrix(1.00, 0.00, -0.00, -1.00, 259.7, 165.0)">n</text><text xml:space="preserve" font-family="CenturySchoolbook" font-size="18.0" fill="#000000" transform="matrix(1.00, 0.00, -0.00, -1.00, 270.6, 165.0)">t</text><text xml:space="preserve" font-family="CenturySchoolbook" font-size="18.0" fill="#000000" transform="matrix(1.00, 0.00, -0.00, -1.00, 277.7, 165.0)"> </text><text xml:space="preserve" font-family="ArialMT" font-size="14.4" fill="#6E6E74" transform="matrix(1.00, 0.00, -0.00, -1.00, 103.0, 132.4)">•</text><text xml:space="preserve" font-family="CenturySchoolbook" font-size="18.0" fill="#000000" transform="matrix(1.00, 0.00, -0.00, -1.00, 117.0, 130.0)">A</text><text xml:space="preserve" font-family="CenturySchoolbook" font-size="18.0" fill="#000000" transform="matrix(1.00, 0.00, -0.00, -1.00, 130.0, 130.0)">u</text><text xml:space="preserve" font-family="CenturySchoolbook" font-size="18.0" fill="#000000" transform="matrix(1.00, 0.00, -0.00, -1.00, 141.0, 130.0)">t</text><text xml:space="preserve" font-family="CenturySchoolbook" font-size="18.0" fill="#000000" transform="matrix(1.00, 0.00, -0.00, -1.00, 148.0, 130.0)">h</text><text xml:space="preserve" font-family="CenturySchoolbook" font-size="18.0" fill="#000000" transform="matrix(1.00, 0.00, -0.00, -1.00, 159.0, 130.0)">e</text><text xml:space="preserve" font-family="CenturySchoolbook" font-size="18.0" fill="#000000" transform="matrix(1.00, 0.00, -0.00, -1.00, 168.0, 130.0)">n</text><text xml:space="preserve" font-family="CenturySchoolbook" font-size="18.0" fill="#000000" transform="matrix(1.00, 0.00, -0.00, -1.00, 179.0, 130.0)">t</text><text xml:space="preserve" font-family="CenturySchoolbook" font-size="18.0" fill="#000000" transform="matrix(1.00, 0.00, -0.00, -1.00, 186.0, 130.0)">i</text><text xml:space="preserve" font-family="CenturySchoolbook" font-size="18.0" fill="#000000" transform="matrix(1.00, 0.00, -0.00, -1.00, 191.7, 130.0)">c</text><text xml:space="preserve" font-family="CenturySchoolbook" font-size="18.0" fill="#000000" transform="matrix(1.00, 0.00, -0.00, -1.00, 199.6, 130.0)">a</text><text xml:space="preserve" font-family="CenturySchoolbook" font-size="18.0" fill="#000000" transform="matrix(1.00, 0.00, -0.00, -1.00, 209.7, 130.0)">t</text><text xml:space="preserve" font-family="CenturySchoolbook" font-size="18.0" fill="#000000" transform="matrix(1.00, 0.00, -0.00, -1.00, 216.7, 130.0)">i</text><text xml:space="preserve" font-family="CenturySchoolbook" font-size="18.0" fill="#000000" transform="matrix(1.00, 0.00, -0.00, -1.00, 222.3, 130.0)">o</text><text xml:space="preserve" font-family="CenturySchoolbook" font-size="18.0" fill="#000000" transform="matrix(1.00, 0.00, -0.00, -1.00, 231.3, 130.0)">n</text><text xml:space="preserve" font-family="CenturySchoolbook" font-size="18.0" fill="#000000" transform="matrix(1.00, 0.00, -0.00, -1.00, 242.3, 130.0)">/</text><text xml:space="preserve" font-family="CenturySchoolbook" font-size="18.0" fill="#000000" transform="matrix(1.00, 0.00, -0.00, -1.00, 247.3, 130.0)">a</text><text xml:space="preserve" font-family="CenturySchoolbook" font-size="18.0" fill="#000000" transform="matrix(1.00, 0.00, -0.00, -1.00, 257.3, 130.0)">u</text><text xml:space="preserve" font-family="CenturySchoolbook" font-size="18.0" fill="#000000" transform="matrix(1.00, 0.00, -0.00, -1.00, 268.3, 130.0)">t</text><text xml:space="preserve" font-family="CenturySchoolbook" font-size="18.0" fill="#000000" transform="matrix(1.00, 0.00, -0.00, -1.00, 275.3, 130.0)">h</text><text xml:space="preserve" font-family="CenturySchoolbook" font-size="18.0" fill="#000000" transform="matrix(1.00, 0.00, -0.00, -1.00, 286.3, 130.0)">o</text><text xml:space="preserve" font-family="CenturySchoolbook" font-size="18.0" fill="#000000" transform="matrix(1.00, 0.00, -0.00, -1.00, 295.3, 130.0)">r</text><text xml:space="preserve" font-family="CenturySchoolbook" font-size="18.0" fill="#000000" transform="matrix(1.00, 0.00, -0.00, -1.00, 303.3, 130.0)">i</text><text xml:space="preserve" font-family="CenturySchoolbook" font-size="18.0" fill="#000000" transform="matrix(1.00, 0.00, -0.00, -1.00, 309.0, 130.0)">z</text><text xml:space="preserve" font-family="CenturySchoolbook" font-size="18.0" fill="#000000" transform="matrix(1.00, 0.00, -0.00, -1.00, 317.6, 130.0)">a</text><text xml:space="preserve" font-family="CenturySchoolbook" font-size="18.0" fill="#000000" transform="matrix(1.00, 0.00, -0.00, -1.00, 327.7, 130.0)">t</text><text xml:space="preserve" font-family="CenturySchoolbook" font-size="18.0" fill="#000000" transform="matrix(1.00, 0.00, -0.00, -1.00, 334.7, 130.0)">i</text><text xml:space="preserve" font-family="CenturySchoolbook" font-size="18.0" fill="#000000" transform="matrix(1.00, 0.00, -0.00, -1.00, 340.3, 130.0)">o</text><text xml:space="preserve" font-family="CenturySchoolbook" font-size="18.0" fill="#000000" transform="matrix(1.00, 0.00, -0.00, -1.00, 349.3, 130.0)">n</text><text xml:space="preserve" font-family="CenturySchoolbook" font-size="18.0" fill="#000000" transform="matrix(1.00, 0.00, -0.00, -1.00, 360.3, 130.0)"> </text><text xml:space="preserve" font-family="ArialMT" font-size="14.4" fill="#6E6E74" transform="matrix(1.00, 0.00, -0.00, -1.00, 103.0, 97.5)">•</text><text xml:space="preserve" font-family="CenturySchoolbook" font-size="18.0" fill="#000000" transform="matrix(1.00, 0.00, -0.00, -1.00, 117.0, 95.0)">I</text><text xml:space="preserve" font-family="CenturySchoolbook" font-size="18.0" fill="#000000" transform="matrix(1.00, 0.00, -0.00, -1.00, 124.3, 95.0)">d</text><text xml:space="preserve" font-family="CenturySchoolbook" font-size="18.0" fill="#000000" transform="matrix(1.00, 0.00, -0.00, -1.00, 134.7, 95.0)">e</text><text xml:space="preserve" font-family="CenturySchoolbook" font-size="18.0" fill="#000000" transform="matrix(1.00, 0.00, -0.00, -1.00, 143.7, 95.0)">a</text><text xml:space="preserve" font-family="CenturySchoolbook" font-size="18.0" fill="#000000" transform="matrix(1.00, 0.00, -0.00, -1.00, 153.7, 95.0)">l</text><text xml:space="preserve" font-family="CenturySchoolbook" font-size="18.0" fill="#000000" transform="matrix(1.00, 0.00, -0.00, -1.00, 159.4, 95.0)">l</text><text xml:space="preserve" font-family="CenturySchoolbook" font-size="18.0" fill="#000000" transform="matrix(1.00, 0.00, -0.00, -1.00, 165.0, 95.0)">y</text><text xml:space="preserve" font-family="CenturySchoolbook" font-size="18.0" fill="#000000" transform="matrix(1.00, 0.00, -0.00, -1.00, 174.7, 95.0)"> </text><text xml:space="preserve" font-family="CenturySchoolbook" font-size="18.0" fill="#000000" transform="matrix(1.00, 0.00, -0.00, -1.00, 179.7, 95.0)">o</text><text xml:space="preserve" font-family="CenturySchoolbook" font-size="18.0" fill="#000000" transform="matrix(1.00, 0.00, -0.00, -1.00, 188.7, 95.0)">n</text><text xml:space="preserve" font-family="CenturySchoolbook" font-size="18.0" fill="#000000" transform="matrix(1.00, 0.00, -0.00, -1.00, 199.7, 95.0)">c</text><text xml:space="preserve" font-family="CenturySchoolbook" font-size="18.0" fill="#000000" transform="matrix(1.00, 0.00, -0.00, -1.00, 207.7, 95.0)">e</text><text xml:space="preserve" font-family="CenturySchoolbook" font-size="18.0" fill="#000000" transform="matrix(1.00, 0.00, -0.00, -1.00, 216.7, 95.0)"> </text><text xml:space="preserve" font-family="CenturySchoolbook" font-size="18.0" fill="#000000" transform="matrix(1.00, 0.00, -0.00, -1.00, 221.7, 95.0)">d</text><text xml:space="preserve" font-family="CenturySchoolbook" font-size="18.0" fill="#000000" transform="matrix(1.00, 0.00, -0.00, -1.00, 232.0, 95.0)">e</text><text xml:space="preserve" font-family="CenturySchoolbook" font-size="18.0" fill="#000000" transform="matrix(1.00, 0.00, -0.00, -1.00, 241.0, 95.0)">l</text><text xml:space="preserve" font-family="CenturySchoolbook" font-size="18.0" fill="#000000" transform="matrix(1.00, 0.00, -0.00, -1.00, 246.7, 95.0)">i</text><text xml:space="preserve" font-family="CenturySchoolbook" font-size="18.0" fill="#000000" transform="matrix(1.00, 0.00, -0.00, -1.00, 252.3, 95.0)">v</text><text xml:space="preserve" font-family="CenturySchoolbook" font-size="18.0" fill="#000000" transform="matrix(1.00, 0.00, -0.00, -1.00, 262.0, 95.0)">e</text><text xml:space="preserve" font-family="CenturySchoolbook" font-size="18.0" fill="#000000" transform="matrix(1.00, 0.00, -0.00, -1.00, 271.0, 95.0)">r</text><text xml:space="preserve" font-family="CenturySchoolbook" font-size="18.0" fill="#000000" transform="matrix(1.00, 0.00, -0.00, -1.00, 279.0, 95.0)">y</text><text xml:space="preserve" font-family="CenturySchoolbook" font-size="18.0" fill="#000000" transform="matrix(1.00, 0.00, -0.00, -1.00, 288.7, 95.0)"> </text><g><clipPath id="clip-26"><path d="M 97.6 56.6 L 778.0 56.6 L 778.0 392.4 L 97.6 392.4 Z M 97.6 56.6 "></path></clipPath><g clip-path="url(#clip-26)"><text xml:space="preserve" font-family="ArialMT" font-size="14.4" fill="#6E6E74" transform="matrix(1.00, 0.00, -0.00, -1.00, 103.0, 62.6)">•</text><text xml:space="preserve" font-family="CenturySchoolbook" font-size="18.0" fill="#000000" transform="matrix(1.00, 0.00, -0.00, -1.00, 117.0, 60.0)">B</text><text xml:space="preserve" font-family="CenturySchoolbook" font-size="18.0" fill="#000000" transform="matrix(1.00, 0.00, -0.00, -1.00, 130.0, 60.0)">e</text><text xml:space="preserve" font-family="CenturySchoolbook" font-size="18.0" fill="#000000" transform="matrix(1.00, 0.00, -0.00, -1.00, 139.0, 60.0)">s</text><text xml:space="preserve" font-family="CenturySchoolbook" font-size="18.0" fill="#000000" transform="matrix(1.00, 0.00, -0.00, -1.00, 147.3, 60.0)">t</text><text xml:space="preserve" font-family="CenturySchoolbook" font-size="18.0" fill="#000000" transform="matrix(1.00, 0.00, -0.00, -1.00, 154.3, 60.0)"> </text><text xml:space="preserve" font-family="CenturySchoolbook" font-size="18.0" fill="#000000" transform="matrix(1.00, 0.00, -0.00, -1.00, 159.3, 60.0)">a</text><text xml:space="preserve" font-family="CenturySchoolbook" font-size="18.0" fill="#000000" transform="matrix(1.00, 0.00, -0.00, -1.00, 169.4, 60.0)">t</text><text xml:space="preserve" font-family="CenturySchoolbook" font-size="18.0" fill="#000000" transform="matrix(1.00, 0.00, -0.00, -1.00, 176.4, 60.0)">t</text><text xml:space="preserve" font-family="CenturySchoolbook" font-size="18.0" fill="#000000" transform="matrix(1.00, 0.00, -0.00, -1.00, 183.4, 60.0)">e</text><text xml:space="preserve" font-family="CenturySchoolbook" font-size="18.0" fill="#000000" transform="matrix(1.00, 0.00, -0.00, -1.00, 192.4, 60.0)">m</text><text xml:space="preserve" font-family="CenturySchoolbook" font-size="18.0" fill="#000000" transform="matrix(1.00, 0.00, -0.00, -1.00, 208.4, 60.0)">p</text><text xml:space="preserve" font-family="CenturySchoolbook" font-size="18.0" fill="#000000" transform="matrix(1.00, 0.00, -0.00, -1.00, 218.7, 60.0)">t</text><text xml:space="preserve" font-family="CenturySchoolbook" font-size="18.0" fill="#000000" transform="matrix(1.00, 0.00, -0.00, -1.00, 225.7, 60.0)"> </text><text xml:space="preserve" font-family="CenturySchoolbook" font-size="18.0" fill="#000000" transform="matrix(1.00, 0.00, -0.00, -1.00, 230.7, 60.0)">a</text><text xml:space="preserve" font-family="CenturySchoolbook" font-size="18.0" fill="#000000" transform="matrix(1.00, 0.00, -0.00, -1.00, 240.7, 60.0)">t</text><text xml:space="preserve" font-family="CenturySchoolbook" font-size="18.0" fill="#000000" transform="matrix(1.00, 0.00, -0.00, -1.00, 247.7, 60.0)"> </text><text xml:space="preserve" font-family="CenturySchoolbook" font-size="18.0" fill="#000000" transform="matrix(1.00, 0.00, -0.00, -1.00, 252.7, 60.0)">F</text><text xml:space="preserve" font-family="CenturySchoolbook" font-size="18.0" fill="#000000" transform="matrix(1.00, 0.00, -0.00, -1.00, 264.7, 60.0)">I</text><text xml:space="preserve" font-family="CenturySchoolbook" font-size="18.0" fill="#000000" transform="matrix(1.00, 0.00, -0.00, -1.00, 272.1, 60.0)">F</text><text xml:space="preserve" font-family="CenturySchoolbook" font-size="18.0" fill="#000000" transform="matrix(1.00, 0.00, -0.00, -1.00, 284.1, 60.0)">O</text><text xml:space="preserve" font-family="CenturySchoolbook" font-size="18.0" fill="#000000" transform="matrix(1.00, 0.00, -0.00, -1.00, 298.1, 60.0)"> </text><text xml:space="preserve" font-family="CenturySchoolbook" font-size="18.0" fill="#000000" transform="matrix(1.00, 0.00, -0.00, -1.00, 303.1, 60.0)">(</text><text xml:space="preserve" font-family="CenturySchoolbook" font-size="18.0" fill="#000000" transform="matrix(1.00, 0.00, -0.00, -1.00, 309.1, 60.0)">n</text><text xml:space="preserve" font-family="CenturySchoolbook" font-size="18.0" fill="#000000" transform="matrix(1.00, 0.00, -0.00, -1.00, 320.1, 60.0)">o</text><text xml:space="preserve" font-family="CenturySchoolbook" font-size="18.0" fill="#000000" transform="matrix(1.00, 0.00, -0.00, -1.00, 329.1, 60.0)">t</text><text xml:space="preserve" font-family="CenturySchoolbook" font-size="18.0" fill="#000000" transform="matrix(1.00, 0.00, -0.00, -1.00, 336.1, 60.0)"> </text><text xml:space="preserve" font-family="CenturySchoolbook" font-size="18.0" fill="#000000" transform="matrix(1.00, 0.00, -0.00, -1.00, 341.1, 60.0)">g</text><text xml:space="preserve" font-family="CenturySchoolbook" font-size="18.0" fill="#000000" transform="matrix(1.00, 0.00, -0.00, -1.00, 350.7, 60.0)">u</text><text xml:space="preserve" font-family="CenturySchoolbook" font-size="18.0" fill="#000000" transform="matrix(1.00, 0.00, -0.00, -1.00, 361.7, 60.0)">a</text><text xml:space="preserve" font-family="CenturySchoolbook" font-size="18.0" fill="#000000" transform="matrix(1.00, 0.00, -0.00, -1.00, 371.8, 60.0)">r</text><text xml:space="preserve" font-family="CenturySchoolbook" font-size="18.0" fill="#000000" transform="matrix(1.00, 0.00, -0.00, -1.00, 379.7, 60.0)">a</text><text xml:space="preserve" font-family="CenturySchoolbook" font-size="18.0" fill="#000000" transform="matrix(1.00, 0.00, -0.00, -1.00, 389.8, 60.0)">n</text><text xml:space="preserve" font-family="CenturySchoolbook" font-size="18.0" fill="#000000" transform="matrix(1.00, 0.00, -0.00, -1.00, 400.7, 60.0)">t</text><text xml:space="preserve" font-family="CenturySchoolbook" font-size="18.0" fill="#000000" transform="matrix(1.00, 0.00, -0.00, -1.00, 407.8, 60.0)">e</text><text xml:space="preserve" font-family="CenturySchoolbook" font-size="18.0" fill="#000000" transform="matrix(1.00, 0.00, -0.00, -1.00, 416.8, 60.0)">e</text><text xml:space="preserve" font-family="CenturySchoolbook" font-size="18.0" fill="#000000" transform="matrix(1.00, 0.00, -0.00, -1.00, 425.8, 60.0)">d</text><text xml:space="preserve" font-family="CenturySchoolbook" font-size="18.0" fill="#000000" transform="matrix(1.00, 0.00, -0.00, -1.00, 436.1, 60.0)">)</text></g></g></g></svg>