<?xml version="1.0" encoding="UTF-8" standalone="no"?><svg xmlns="http://www.w3.org/2000/svg" xmlns:xlink="http://www.w3.org/1999/xlink" clip-rule="evenodd" stroke-miterlimit="4.00" viewBox="0 0 960 540"><desc>SVG generated by Keynote</desc><defs></defs><g transform="matrix(1.00, 0.00, -0.00, -1.00, 0.0, 540.0)"><path d="M 0.0 540.0 L 960.0 540.0 L 960.0 0.0 L 0.0 0.0 Z M 0.0 540.0 " fill="#FFFFFF"></path><path d="M 889.2 540.0 L 961.2 540.0 L 961.2 0.0 L 889.2 0.0 Z M 889.2 540.0 " fill="#343437"></path><g><clipPath id="clip-302"><path d="M 89.7 410.8 L 872.2 410.8 L 872.2 507.6 L 89.7 507.6 Z M 89.7 410.8 "></path></clipPath><g clip-path="url(#clip-302)"><text xml:space="preserve" font-family="CenturySchoolbook" font-size="44.0" fill="#000000" transform="matrix(1.00, 0.00, -0.00, -1.00, 103.0, 420.0)">C</text><text xml:space="preserve" font-family="CenturySchoolbook" font-size="44.0" fill="#000000" transform="matrix(1.00, 0.00, -0.00, -1.00, 133.8, 420.0)">a</text><text xml:space="preserve" font-family="CenturySchoolbook" font-size="44.0" fill="#000000" transform="matrix(1.00, 0.00, -0.00, -1.00, 157.3, 420.0)">s</text><text xml:space="preserve" font-family="CenturySchoolbook" font-size="44.0" fill="#000000" transform="matrix(1.00, 0.00, -0.00, -1.00, 176.6, 420.0)">s</text><text xml:space="preserve" font-family="CenturySchoolbook" font-size="44.0" fill="#000000" transform="matrix(1.00, 0.00, -0.00, -1.00, 196.0, 420.0)">i</text><text xml:space="preserve" font-family="CenturySchoolbook" font-size="44.0" fill="#000000" transform="matrix(1.00, 0.00, -0.00, -1.00, 208.9, 420.0)">e</text><text xml:space="preserve" font-family="CenturySchoolbook" font-size="44.0" fill="#000000" transform="matrix(1.00, 0.00, -0.00, -1.00, 229.9, 420.0)">Q</text><text xml:space="preserve" font-family="CenturySchoolbook" font-size="44.0" fill="#000000" transform="matrix(1.00, 0.00, -0.00, -1.00, 263.1, 420.0)"> </text><text xml:space="preserve" font-family="CenturySchoolbook" font-size="44.0" fill="#000000" transform="matrix(1.00, 0.00, -0.00, -1.00, 274.3, 420.0)">b</text><text xml:space="preserve" font-family="CenturySchoolbook" font-size="44.0" fill="#000000" transform="matrix(1.00, 0.00, -0.00, -1.00, 297.8, 420.0)">u</text><text xml:space="preserve" font-family="CenturySchoolbook" font-size="44.0" fill="#000000" transform="matrix(1.00, 0.00, -0.00, -1.00, 323.7, 420.0)">c</text><text xml:space="preserve" font-family="CenturySchoolbook" font-size="44.0" fill="#000000" transform="matrix(1.00, 0.00, -0.00, -1.00, 342.2, 420.0)">k</text><text xml:space="preserve" font-family="CenturySchoolbook" font-size="44.0" fill="#000000" transform="matrix(1.00, 0.00, -0.00, -1.00, 367.3, 420.0)">e</text><text xml:space="preserve" font-family="CenturySchoolbook" font-size="44.0" fill="#000000" transform="matrix(1.00, 0.00, -0.00, -1.00, 388.3, 420.0)">t</text><text xml:space="preserve" font-family="CenturySchoolbook" font-size="44.0" fill="#000000" transform="matrix(1.00, 0.00, -0.00, -1.00, 404.4, 420.0)">s</text></g></g><text xml:space="preserve" font-family="ArialMT" font-size="14.4" fill="#6E6E74" transform="matrix(1.00, 0.00, -0.00, -1.00, 103.0, 376.7)">•</text><text xml:space="preserve" font-family="CenturySchoolbook" font-size="18.0" fill="#000000" transform="matrix(1.00, 0.00, -0.00, -1.00, 117.0, 374.0)">M</text><text xml:space="preserve" font-family="CenturySchoolbook" font-size="18.0" fill="#000000" transform="matrix(1.00, 0.00, -0.00, -1.00, 134.0, 374.0)">e</text><text xml:space="preserve" font-family="CenturySchoolbook" font-size="18.0" fill="#000000" transform="matrix(1.00, 0.00, -0.00, -1.00, 143.0, 374.0)">s</text><text xml:space="preserve" font-family="CenturySchoolbook" font-size="18.0" fill="#000000" transform="matrix(1.00, 0.00, -0.00, -1.00, 151.3, 374.0)">s</text><text xml:space="preserve" font-family="CenturySchoolbook" font-size="18.0" fill="#000000" transform="matrix(1.00, 0.00, -0.00, -1.00, 159.6, 374.0)">a</text><text xml:space="preserve" font-family="CenturySchoolbook" font-size="18.0" fill="#000000" transform="matrix(1.00, 0.00, -0.00, -1.00, 169.7, 374.0)">g</text><text xml:space="preserve" font-family="CenturySchoolbook" font-size="18.0" fill="#000000" transform="matrix(1.00, 0.00, -0.00, -1.00, 179.3, 374.0)">e</text><text xml:space="preserve" font-family="CenturySchoolbook" font-size="18.0" fill="#000000" transform="matrix(1.00, 0.00, -0.00, -1.00, 188.3, 374.0)">s</text><text xml:space="preserve" font-family="CenturySchoolbook" font-size="18.0" fill="#000000" transform="matrix(1.00, 0.00, -0.00, -1.00, 196.7, 374.0)"> </text><text xml:space="preserve" font-family="CenturySchoolbook" font-size="18.0" fill="#000000" transform="matrix(1.00, 0.00, -0.00, -1.00, 201.7, 374.0)">s</text><text xml:space="preserve" font-family="CenturySchoolbook" font-size="18.0" fill="#000000" transform="matrix(1.00, 0.00, -0.00, -1.00, 210.0, 374.0)">t</text><text xml:space="preserve" font-family="CenturySchoolbook" font-size="18.0" fill="#000000" transform="matrix(1.00, 0.00, -0.00, -1.00, 217.0, 374.0)">o</text><text xml:space="preserve" font-family="CenturySchoolbook" font-size="18.0" fill="#000000" transform="matrix(1.00, 0.00, -0.00, -1.00, 226.0, 374.0)">r</text><text xml:space="preserve" font-family="CenturySchoolbook" font-size="18.0" fill="#000000" transform="matrix(1.00, 0.00, -0.00, -1.00, 234.0, 374.0)">e</text><text xml:space="preserve" font-family="CenturySchoolbook" font-size="18.0" fill="#000000" transform="matrix(1.00, 0.00, -0.00, -1.00, 243.0, 374.0)">d</text><text xml:space="preserve" font-family="CenturySchoolbook" font-size="18.0" fill="#000000" transform="matrix(1.00, 0.00, -0.00, -1.00, 253.3, 374.0)"> </text><text xml:space="preserve" font-family="CenturySchoolbook" font-size="18.0" fill="#000000" transform="matrix(1.00, 0.00, -0.00, -1.00, 258.3, 374.0)">i</text><text xml:space="preserve" font-family="CenturySchoolbook" font-size="18.0" fill="#000000" transform="matrix(1.00, 0.00, -0.00, -1.00, 264.0, 374.0)">n</text><text xml:space="preserve" font-family="CenturySchoolbook" font-size="18.0" fill="#000000" transform="matrix(1.00, 0.00, -0.00, -1.00, 275.0, 374.0)"> </text><text xml:space="preserve" font-family="CenturySchoolbook" font-size="18.0" fill="#000000" transform="matrix(1.00, 0.00, -0.00, -1.00, 280.0, 374.0)">f</text><text xml:space="preserve" font-family="CenturySchoolbook" font-size="18.0" fill="#000000" transform="matrix(1.00, 0.00, -0.00, -1.00, 286.0, 374.0)">i</text><text xml:space="preserve" font-family="CenturySchoolbook" font-size="18.0" fill="#000000" transform="matrix(1.00, 0.00, -0.00, -1.00, 291.6, 374.0)">x</text><text xml:space="preserve" font-family="CenturySchoolbook" font-size="18.0" fill="#000000" transform="matrix(1.00, 0.00, -0.00, -1.00, 301.3, 374.0)">e</text><text xml:space="preserve" font-family="CenturySchoolbook" font-size="18.0" fill="#000000" transform="matrix(1.00, 0.00, -0.00, -1.00, 310.3, 374.0)">d</text><text xml:space="preserve" font-family="CenturySchoolbook" font-size="18.0" fill="#000000" transform="matrix(1.00, 0.00, -0.00, -1.00, 320.6, 374.0)"> </text><text xml:space="preserve" font-family="CenturySchoolbook" font-size="18.0" fill="#000000" transform="matrix(1.00, 0.00, -0.00, -1.00, 325.6, 374.0)">s</text><text xml:space="preserve" font-family="CenturySchoolbook" font-size="18.0" fill="#000000" transform="matrix(1.00, 0.00, -0.00, -1.00, 334.0, 374.0)">i</text><text xml:space="preserve" font-family="CenturySchoolbook" font-size="18.0" fill="#000000" transform="matrix(1.00, 0.00, -0.00, -1.00, 339.6, 374.0)">z</text><text xml:space="preserve" font-family="CenturySchoolbook" font-size="18.0" fill="#000000" transform="matrix(1.00, 0.00, -0.00, -1.00, 348.3, 374.0)">e</text><text xml:space="preserve" font-family="CenturySchoolbook" font-size="18.0" fill="#000000" transform="matrix(1.00, 0.00, -0.00, -1.00, 357.3, 374.0)">d</text><text xml:space="preserve" font-family="CenturySchoolbook" font-size="18.0" fill="#000000" transform="matrix(1.00, 0.00, -0.00, -1.00, 367.6, 374.0)"> </text><text xml:space="preserve" font-family="CenturySchoolbook" font-size="18.0" fill="#000000" transform="matrix(1.00, 0.00, -0.00, -1.00, 372.6, 374.0)">b</text><text xml:space="preserve" font-family="CenturySchoolbook" font-size="18.0" fill="#000000" transform="matrix(1.00, 0.00, -0.00, -1.00, 382.6, 374.0)">u</text><text xml:space="preserve" font-family="CenturySchoolbook" font-size="18.0" fill="#000000" transform="matrix(1.00, 0.00, -0.00, -1.00, 393.6, 374.0)">c</text><text xml:space="preserve" font-family="CenturySchoolbook" font-size="18.0" fill="#000000" transform="matrix(1.00, 0.00, -0.00, -1.00, 401.6, 374.0)">k</text><text xml:space="preserve" font-family="CenturySchoolbook" font-size="18.0" fill="#000000" transform="matrix(1.00, 0.00, -0.00, -1.00, 412.3, 374.0)">e</text><text xml:space="preserve" font-family="CenturySchoolbook" font-size="18.0" fill="#000000" transform="matrix(1.00, 0.00, -0.00, -1.00, 421.3, 374.0)">t</text><text xml:space="preserve" font-family="CenturySchoolbook" font-size="18.0" fill="#000000" transform="matrix(1.00, 0.00, -0.00, -1.00, 428.3, 374.0)">s</text><text xml:space="preserve" font-family="CenturySchoolbook" font-size="18.0" fill="#000000" transform="matrix(1.00, 0.00, -0.00, -1.00, 436.6, 374.0)"> </text><text xml:space="preserve" font-family="CenturySchoolbook" font-size="18.0" fill="#000000" transform="matrix(1.00, 0.00, -0.00, -1.00, 441.6, 374.0)"> </text><text xml:space="preserve" font-family="LucidaGrande" font-size="16.0" fill="#6E6E74" transform="matrix(1.00, 0.00, -0.00, -1.00, 124.6, 353.4)">●</text><text xml:space="preserve" font-family="CenturySchoolbook" font-size="16.0" fill="#262626" transform="matrix(1.00, 0.00, -0.00, -1.00, 139.0, 353.0)">D</text><text xml:space="preserve" font-family="CenturySchoolbook" font-size="16.0" fill="#262626" transform="matrix(1.00, 0.00, -0.00, -1.00, 151.4, 353.0)">e</text><text xml:space="preserve" font-family="CenturySchoolbook" font-size="16.0" fill="#262626" transform="matrix(1.00, 0.00, -0.00, -1.00, 159.4, 353.0)">t</text><text xml:space="preserve" font-family="CenturySchoolbook" font-size="16.0" fill="#262626" transform="matrix(1.00, 0.00, -0.00, -1.00, 165.7, 353.0)">e</text><text xml:space="preserve" font-family="CenturySchoolbook" font-size="16.0" fill="#262626" transform="matrix(1.00, 0.00, -0.00, -1.00, 173.7, 353.0)">r</text><text xml:space="preserve" font-family="CenturySchoolbook" font-size="16.0" fill="#262626" transform="matrix(1.00, 0.00, -0.00, -1.00, 180.8, 353.0)">m</text><text xml:space="preserve" font-family="CenturySchoolbook" font-size="16.0" fill="#262626" transform="matrix(1.00, 0.00, -0.00, -1.00, 195.0, 353.0)">i</text><text xml:space="preserve" font-family="CenturySchoolbook" font-size="16.0" fill="#262626" transform="matrix(1.00, 0.00, -0.00, -1.00, 200.0, 353.0)">n</text><text xml:space="preserve" font-family="CenturySchoolbook" font-size="16.0" fill="#262626" transform="matrix(1.00, 0.00, -0.00, -1.00, 209.8, 353.0)">i</text><text xml:space="preserve" font-family="CenturySchoolbook" font-size="16.0" fill="#262626" transform="matrix(1.00, 0.00, -0.00, -1.00, 214.8, 353.0)">s</text><text xml:space="preserve" font-family="CenturySchoolbook" font-size="16.0" fill="#262626" transform="matrix(1.00, 0.00, -0.00, -1.00, 222.2, 353.0)">t</text><text xml:space="preserve" font-family="CenturySchoolbook" font-size="16.0" fill="#262626" transform="matrix(1.00, 0.00, -0.00, -1.00, 228.5, 353.0)">i</text><text xml:space="preserve" font-family="CenturySchoolbook" font-size="16.0" fill="#262626" transform="matrix(1.00, 0.00, -0.00, -1.00, 233.5, 353.0)">c</text><text xml:space="preserve" font-family="CenturySchoolbook" font-size="16.0" fill="#262626" transform="matrix(1.00, 0.00, -0.00, -1.00, 240.6, 353.0)"> </text><text xml:space="preserve" font-family="CenturySchoolbook" font-size="16.0" fill="#262626" transform="matrix(1.00, 0.00, -0.00, -1.00, 245.1, 353.0)">w</text><text xml:space="preserve" font-family="CenturySchoolbook" font-size="16.0" fill="#262626" transform="matrix(1.00, 0.00, -0.00, -1.00, 257.5, 353.0)">h</text><text xml:space="preserve" font-family="CenturySchoolbook" font-size="16.0" fill="#262626" transform="matrix(1.00, 0.00, -0.00, -1.00, 267.3, 353.0)">e</text><text xml:space="preserve" font-family="CenturySchoolbook" font-size="16.0" fill="#262626" transform="matrix(1.00, 0.00, -0.00, -1.00, 275.3, 353.0)">n</text><text xml:space="preserve" font-family="CenturySchoolbook" font-size="16.0" fill="#262626" transform="matrix(1.00, 0.00, -0.00, -1.00, 285.0, 353.0)"> </text><text xml:space="preserve" font-family="CenturySchoolbook" font-size="16.0" fill="#262626" transform="matrix(1.00, 0.00, -0.00, -1.00, 289.5, 353.0)">f</text><text xml:space="preserve" font-family="CenturySchoolbook" font-size="16.0" fill="#262626" transform="matrix(1.00, 0.00, -0.00, -1.00, 294.8, 353.0)">u</text><text xml:space="preserve" font-family="CenturySchoolbook" font-size="16.0" fill="#262626" transform="matrix(1.00, 0.00, -0.00, -1.00, 304.6, 353.0)">l</text><text xml:space="preserve" font-family="CenturySchoolbook" font-size="16.0" fill="#262626" transform="matrix(1.00, 0.00, -0.00, -1.00, 309.6, 353.0)">l</text><text xml:space="preserve" font-family="CenturySchoolbook" font-size="16.0" fill="#262626" transform="matrix(1.00, 0.00, -0.00, -1.00, 314.7, 353.0)"> </text><text xml:space="preserve" font-family="LucidaGrande" font-size="16.0" fill="#6E6E74" transform="matrix(1.00, 0.00, -0.00, -1.00, 124.6, 333.3)">●</text><text xml:space="preserve" font-family="CenturySchoolbook" font-size="16.0" fill="#262626" transform="matrix(1.00, 0.00, -0.00, -1.00, 139.0, 333.0)">E</text><text xml:space="preserve" font-family="CenturySchoolbook" font-size="16.0" fill="#262626" transform="matrix(1.00, 0.00, -0.00, -1.00, 150.6, 333.0)">a</text><text xml:space="preserve" font-family="CenturySchoolbook" font-size="16.0" fill="#262626" transform="matrix(1.00, 0.00, -0.00, -1.00, 159.5, 333.0)">s</text><text xml:space="preserve" font-family="CenturySchoolbook" font-size="16.0" fill="#262626" transform="matrix(1.00, 0.00, -0.00, -1.00, 166.9, 333.0)">y</text><text xml:space="preserve" font-family="CenturySchoolbook" font-size="16.0" fill="#262626" transform="matrix(1.00, 0.00, -0.00, -1.00, 175.5, 333.0)"> </text><text xml:space="preserve" font-family="CenturySchoolbook" font-size="16.0" fill="#262626" transform="matrix(1.00, 0.00, -0.00, -1.00, 179.9, 333.0)">t</text><text xml:space="preserve" font-family="CenturySchoolbook" font-size="16.0" fill="#262626" transform="matrix(1.00, 0.00, -0.00, -1.00, 186.1, 333.0)">o</text><text xml:space="preserve" font-family="CenturySchoolbook" font-size="16.0" fill="#262626" transform="matrix(1.00, 0.00, -0.00, -1.00, 194.1, 333.0)"> </text><text xml:space="preserve" font-family="CenturySchoolbook" font-size="16.0" fill="#262626" transform="matrix(1.00, 0.00, -0.00, -1.00, 198.6, 333.0)">r</text><text xml:space="preserve" font-family="CenturySchoolbook" font-size="16.0" fill="#262626" transform="matrix(1.00, 0.00, -0.00, -1.00, 205.7, 333.0)">e</text><text xml:space="preserve" font-family="CenturySchoolbook" font-size="16.0" fill="#262626" transform="matrix(1.00, 0.00, -0.00, -1.00, 213.7, 333.0)">a</text><text xml:space="preserve" font-family="CenturySchoolbook" font-size="16.0" fill="#262626" transform="matrix(1.00, 0.00, -0.00, -1.00, 222.6, 333.0)">s</text><text xml:space="preserve" font-family="CenturySchoolbook" font-size="16.0" fill="#262626" transform="matrix(1.00, 0.00, -0.00, -1.00, 230.0, 333.0)">o</text><text xml:space="preserve" font-family="CenturySchoolbook" font-size="16.0" fill="#262626" transform="matrix(1.00, 0.00, -0.00, -1.00, 238.0, 333.0)">n</text><text xml:space="preserve" font-family="CenturySchoolbook" font-size="16.0" fill="#262626" transform="matrix(1.00, 0.00, -0.00, -1.00, 247.7, 333.0)"> </text><text xml:space="preserve" font-family="CenturySchoolbook" font-size="16.0" fill="#262626" transform="matrix(1.00, 0.00, -0.00, -1.00, 252.2, 333.0)">a</text><text xml:space="preserve" font-family="CenturySchoolbook" font-size="16.0" fill="#262626" transform="matrix(1.00, 0.00, -0.00, -1.00, 261.1, 333.0)">b</text><text xml:space="preserve" font-family="CenturySchoolbook" font-size="16.0" fill="#262626" transform="matrix(1.00, 0.00, -0.00, -1.00, 270.0, 333.0)">o</text><text xml:space="preserve" font-family="CenturySchoolbook" font-size="16.0" fill="#262626" transform="matrix(1.00, 0.00, -0.00, -1.00, 278.0, 333.0)">u</text><text xml:space="preserve" font-family="CenturySchoolbook" font-size="16.0" fill="#262626" transform="matrix(1.00, 0.00, -0.00, -1.00, 287.8, 333.0)">t</text><text xml:space="preserve" font-family="CenturySchoolbook" font-size="16.0" fill="#262626" transform="matrix(1.00, 0.00, -0.00, -1.00, 294.0, 333.0)"> </text><text xml:space="preserve" font-family="ArialMT" font-size="14.4" fill="#6E6E74" transform="matrix(1.00, 0.00, -0.00, -1.00, 103.0, 301.6)">•</text><text xml:space="preserve" font-family="CenturySchoolbook" font-size="18.0" fill="#000000" transform="matrix(1.00, 0.00, -0.00, -1.00, 117.0, 299.0)">M</text><text xml:space="preserve" font-family="CenturySchoolbook" font-size="18.0" fill="#000000" transform="matrix(1.00, 0.00, -0.00, -1.00, 134.0, 299.0)">e</text><text xml:space="preserve" font-family="CenturySchoolbook" font-size="18.0" fill="#000000" transform="matrix(1.00, 0.00, -0.00, -1.00, 143.0, 299.0)">s</text><text xml:space="preserve" font-family="CenturySchoolbook" font-size="18.0" fill="#000000" transform="matrix(1.00, 0.00, -0.00, -1.00, 151.3, 299.0)">s</text><text xml:space="preserve" font-family="CenturySchoolbook" font-size="18.0" fill="#000000" transform="matrix(1.00, 0.00, -0.00, -1.00, 159.6, 299.0)">a</text><text xml:space="preserve" font-family="CenturySchoolbook" font-size="18.0" fill="#000000" transform="matrix(1.00, 0.00, -0.00, -1.00, 169.7, 299.0)">g</text><text xml:space="preserve" font-family="CenturySchoolbook" font-size="18.0" fill="#000000" transform="matrix(1.00, 0.00, -0.00, -1.00, 179.3, 299.0)">e</text><text xml:space="preserve" font-family="CenturySchoolbook" font-size="18.0" fill="#000000" transform="matrix(1.00, 0.00, -0.00, -1.00, 188.3, 299.0)">s</text><text xml:space="preserve" font-family="CenturySchoolbook" font-size="18.0" fill="#000000" transform="matrix(1.00, 0.00, -0.00, -1.00, 196.7, 299.0)"> </text><text xml:space="preserve" font-family="CenturySchoolbook" font-size="18.0" fill="#000000" transform="matrix(1.00, 0.00, -0.00, -1.00, 201.7, 299.0)">g</text><text xml:space="preserve" font-family="CenturySchoolbook" font-size="18.0" fill="#000000" transform="matrix(1.00, 0.00, -0.00, -1.00, 211.3, 299.0)">i</text><text xml:space="preserve" font-family="CenturySchoolbook" font-size="18.0" fill="#000000" transform="matrix(1.00, 0.00, -0.00, -1.00, 217.0, 299.0)">v</text><text xml:space="preserve" font-family="CenturySchoolbook" font-size="18.0" fill="#000000" transform="matrix(1.00, 0.00, -0.00, -1.00, 226.7, 299.0)">e</text><text xml:space="preserve" font-family="CenturySchoolbook" font-size="18.0" fill="#000000" transform="matrix(1.00, 0.00, -0.00, -1.00, 235.7, 299.0)">n</text><text xml:space="preserve" font-family="CenturySchoolbook" font-size="18.0" fill="#000000" transform="matrix(1.00, 0.00, -0.00, -1.00, 246.7, 299.0)"> </text><text xml:space="preserve" font-family="CenturySchoolbook" font-size="18.0" fill="#000000" transform="matrix(1.00, 0.00, -0.00, -1.00, 251.7, 299.0)">m</text><text xml:space="preserve" font-family="CenturySchoolbook" font-size="18.0" fill="#000000" transform="matrix(1.00, 0.00, -0.00, -1.00, 267.7, 299.0)">o</text><text xml:space="preserve" font-family="CenturySchoolbook" font-size="18.0" fill="#000000" transform="matrix(1.00, 0.00, -0.00, -1.00, 276.7, 299.0)">n</text><text xml:space="preserve" font-family="CenturySchoolbook" font-size="18.0" fill="#000000" transform="matrix(1.00, 0.00, -0.00, -1.00, 287.7, 299.0)">o</text><text xml:space="preserve" font-family="CenturySchoolbook" font-size="18.0" fill="#000000" transform="matrix(1.00, 0.00, -0.00, -1.00, 296.7, 299.0)">t</text><text xml:space="preserve" font-family="CenturySchoolbook" font-size="18.0" fill="#000000" transform="matrix(1.00, 0.00, -0.00, -1.00, 303.7, 299.0)">o</text><text xml:space="preserve" font-family="CenturySchoolbook" font-size="18.0" fill="#000000" transform="matrix(1.00, 0.00, -0.00, -1.00, 312.7, 299.0)">n</text><text xml:space="preserve" font-family="CenturySchoolbook" font-size="18.0" fill="#000000" transform="matrix(1.00, 0.00, -0.00, -1.00, 323.7, 299.0)">i</text><text xml:space="preserve" font-family="CenturySchoolbook" font-size="18.0" fill="#000000" transform="matrix(1.00, 0.00, -0.00, -1.00, 329.3, 299.0)">c</text><text xml:space="preserve" font-family="CenturySchoolbook" font-size="18.0" fill="#000000" transform="matrix(1.00, 0.00, -0.00, -1.00, 337.3, 299.0)"> </text><text xml:space="preserve" font-family="CenturySchoolbook" font-size="18.0" fill="#000000" transform="matrix(1.00, 0.00, -0.00, -1.00, 342.3, 299.0)">I</text><text xml:space="preserve" font-family="CenturySchoolbook" font-size="18.0" fill="#000000" transform="matrix(1.00, 0.00, -0.00, -1.00, 349.6, 299.0)">D</text><text xml:space="preserve" font-family="CenturySchoolbook" font-size="18.0" fill="#000000" transform="matrix(1.00, 0.00, -0.00, -1.00, 363.6, 299.0)"> </text><text xml:space="preserve" font-family="LucidaGrande" font-size="16.0" fill="#6E6E74" transform="matrix(1.00, 0.00, -0.00, -1.00, 124.6, 278.3)">●</text><text xml:space="preserve" font-family="CenturySchoolbook" font-size="16.0" fill="#262626" transform="matrix(1.00, 0.00, -0.00, -1.00, 139.0, 278.0)">C</text><text xml:space="preserve" font-family="CenturySchoolbook" font-size="16.0" fill="#262626" transform="matrix(1.00, 0.00, -0.00, -1.00, 150.6, 278.0)">A</text><text xml:space="preserve" font-family="CenturySchoolbook" font-size="16.0" fill="#262626" transform="matrix(1.00, 0.00, -0.00, -1.00, 162.1, 278.0)">S</text><text xml:space="preserve" font-family="CenturySchoolbook" font-size="16.0" fill="#262626" transform="matrix(1.00, 0.00, -0.00, -1.00, 172.2, 278.0)"> </text><text xml:space="preserve" font-family="CenturySchoolbook" font-size="16.0" fill="#262626" transform="matrix(1.00, 0.00, -0.00, -1.00, 176.6, 278.0)">“</text><text xml:space="preserve" font-family="CenturySchoolbook" font-size="16.0" fill="#262626" transform="matrix(1.00, 0.00, -0.00, -1.00, 182.9, 278.0)">i</text><text xml:space="preserve" font-family="CenturySchoolbook" font-size="16.0" fill="#262626" transform="matrix(1.00, 0.00, -0.00, -1.00, 187.9, 278.0)">d</text><text xml:space="preserve" font-family="CenturySchoolbook" font-size="16.0" fill="#262626" transform="matrix(1.00, 0.00, -0.00, -1.00, 197.1, 278.0)">”</text><text xml:space="preserve" font-family="CenturySchoolbook" font-size="16.0" fill="#262626" transform="matrix(1.00, 0.00, -0.00, -1.00, 203.3, 278.0)"> </text><text xml:space="preserve" font-family="CenturySchoolbook" font-size="16.0" fill="#262626" transform="matrix(1.00, 0.00, -0.00, -1.00, 207.8, 278.0)">t</text><text xml:space="preserve" font-family="CenturySchoolbook" font-size="16.0" fill="#262626" transform="matrix(1.00, 0.00, -0.00, -1.00, 214.0, 278.0)">a</text><text xml:space="preserve" font-family="CenturySchoolbook" font-size="16.0" fill="#262626" transform="matrix(1.00, 0.00, -0.00, -1.00, 222.9, 278.0)">b</text><text xml:space="preserve" font-family="CenturySchoolbook" font-size="16.0" fill="#262626" transform="matrix(1.00, 0.00, -0.00, -1.00, 231.8, 278.0)">l</text><text xml:space="preserve" font-family="CenturySchoolbook" font-size="16.0" fill="#262626" transform="matrix(1.00, 0.00, -0.00, -1.00, 236.8, 278.0)">e</text><text xml:space="preserve" font-family="CenturySchoolbook" font-size="16.0" fill="#262626" transform="matrix(1.00, 0.00, -0.00, -1.00, 244.8, 278.0)"> </text><text xml:space="preserve" font-family="CenturySchoolbook" font-size="16.0" fill="#262626" transform="matrix(1.00, 0.00, -0.00, -1.00, 249.3, 278.0)"> </text><text xml:space="preserve" font-family="ArialMT" font-size="14.4" fill="#6E6E74" transform="matrix(1.00, 0.00, -0.00, -1.00, 103.0, 246.6)">•</text><text xml:space="preserve" font-family="CenturySchoolbook" font-size="18.0" fill="#000000" transform="matrix(1.00, 0.00, -0.00, -1.00, 117.0, 244.0)">B</text><text xml:space="preserve" font-family="CenturySchoolbook" font-size="18.0" fill="#000000" transform="matrix(1.00, 0.00, -0.00, -1.00, 130.0, 244.0)">u</text><text xml:space="preserve" font-family="CenturySchoolbook" font-size="18.0" fill="#000000" transform="matrix(1.00, 0.00, -0.00, -1.00, 141.0, 244.0)">c</text><text xml:space="preserve" font-family="CenturySchoolbook" font-size="18.0" fill="#000000" transform="matrix(1.00, 0.00, -0.00, -1.00, 149.0, 244.0)">k</text><text xml:space="preserve" font-family="CenturySchoolbook" font-size="18.0" fill="#000000" transform="matrix(1.00, 0.00, -0.00, -1.00, 159.6, 244.0)">e</text><text xml:space="preserve" font-family="CenturySchoolbook" font-size="18.0" fill="#000000" transform="matrix(1.00, 0.00, -0.00, -1.00, 168.6, 244.0)">t</text><text xml:space="preserve" font-family="CenturySchoolbook" font-size="18.0" fill="#000000" transform="matrix(1.00, 0.00, -0.00, -1.00, 175.7, 244.0)"> </text><text xml:space="preserve" font-family="CenturySchoolbook" font-size="18.0" fill="#000000" transform="matrix(1.00, 0.00, -0.00, -1.00, 180.7, 244.0)">#</text><text xml:space="preserve" font-family="CenturySchoolbook" font-size="18.0" fill="#000000" transform="matrix(1.00, 0.00, -0.00, -1.00, 190.7, 244.0)"> </text><text xml:space="preserve" font-family="CenturySchoolbook" font-size="18.0" fill="#000000" transform="matrix(1.00, 0.00, -0.00, -1.00, 195.7, 244.0)">=</text><text xml:space="preserve" font-family="CenturySchoolbook" font-size="18.0" fill="#000000" transform="matrix(1.00, 0.00, -0.00, -1.00, 206.6, 244.0)"> </text><text xml:space="preserve" font-family="CenturySchoolbook" font-size="18.0" fill="#000000" transform="matrix(1.00, 0.00, -0.00, -1.00, 211.6, 244.0)">m</text><text xml:space="preserve" font-family="CenturySchoolbook" font-size="18.0" fill="#000000" transform="matrix(1.00, 0.00, -0.00, -1.00, 227.6, 244.0)">o</text><text xml:space="preserve" font-family="CenturySchoolbook" font-size="18.0" fill="#000000" transform="matrix(1.00, 0.00, -0.00, -1.00, 236.6, 244.0)">n</text><text xml:space="preserve" font-family="CenturySchoolbook" font-size="18.0" fill="#000000" transform="matrix(1.00, 0.00, -0.00, -1.00, 247.6, 244.0)">o</text><text xml:space="preserve" font-family="CenturySchoolbook" font-size="18.0" fill="#000000" transform="matrix(1.00, 0.00, -0.00, -1.00, 256.6, 244.0)">t</text><text xml:space="preserve" font-family="CenturySchoolbook" font-size="18.0" fill="#000000" transform="matrix(1.00, 0.00, -0.00, -1.00, 263.6, 244.0)">o</text><text xml:space="preserve" font-family="CenturySchoolbook" font-size="18.0" fill="#000000" transform="matrix(1.00, 0.00, -0.00, -1.00, 272.6, 244.0)">n</text><text xml:space="preserve" font-family="CenturySchoolbook" font-size="18.0" fill="#000000" transform="matrix(1.00, 0.00, -0.00, -1.00, 283.6, 244.0)">i</text><text xml:space="preserve" font-family="CenturySchoolbook" font-size="18.0" fill="#000000" transform="matrix(1.00, 0.00, -0.00, -1.00, 289.2, 244.0)">c</text><text xml:space="preserve" font-family="CenturySchoolbook" font-size="18.0" fill="#000000" transform="matrix(1.00, 0.00, -0.00, -1.00, 297.2, 244.0)">I</text><text xml:space="preserve" font-family="CenturySchoolbook" font-size="18.0" fill="#000000" transform="matrix(1.00, 0.00, -0.00, -1.00, 304.6, 244.0)">d</text><text xml:space="preserve" font-family="CenturySchoolbook" font-size="18.0" fill="#000000" transform="matrix(1.00, 0.00, -0.00, -1.00, 314.9, 244.0)"> </text><text xml:space="preserve" font-family="CenturySchoolbook" font-size="18.0" fill="#000000" transform="matrix(1.00, 0.00, -0.00, -1.00, 319.9, 244.0)">/</text><text xml:space="preserve" font-family="CenturySchoolbook" font-size="18.0" fill="#000000" transform="matrix(1.00, 0.00, -0.00, -1.00, 324.9, 244.0)"> </text><text xml:space="preserve" font-family="CenturySchoolbook" font-size="18.0" fill="#000000" transform="matrix(1.00, 0.00, -0.00, -1.00, 329.9, 244.0)">b</text><text xml:space="preserve" font-family="CenturySchoolbook" font-size="18.0" fill="#000000" transform="matrix(1.00, 0.00, -0.00, -1.00, 339.9, 244.0)">u</text><text xml:space="preserve" font-family="CenturySchoolbook" font-size="18.0" fill="#000000" transform="matrix(1.00, 0.00, -0.00, -1.00, 350.9, 244.0)">c</text><text xml:space="preserve" font-family="CenturySchoolbook" font-size="18.0" fill="#000000" transform="matrix(1.00, 0.00, -0.00, -1.00, 358.9, 244.0)">k</text><text xml:space="preserve" font-family="CenturySchoolbook" font-size="18.0" fill="#000000" transform="matrix(1.00, 0.00, -0.00, -1.00, 369.6, 244.0)">e</text><text xml:space="preserve" font-family="CenturySchoolbook" font-size="18.0" fill="#000000" transform="matrix(1.00, 0.00, -0.00, -1.00, 378.6, 244.0)">t</text><text xml:space="preserve" font-family="CenturySchoolbook" font-size="18.0" fill="#000000" transform="matrix(1.00, 0.00, -0.00, -1.00, 385.6, 244.0)">S</text><text xml:space="preserve" font-family="CenturySchoolbook" font-size="18.0" fill="#000000" transform="matrix(1.00, 0.00, -0.00, -1.00, 396.9, 244.0)">i</text><text xml:space="preserve" font-family="CenturySchoolbook" font-size="18.0" fill="#000000" transform="matrix(1.00, 0.00, -0.00, -1.00, 402.6, 244.0)">z</text><text xml:space="preserve" font-family="CenturySchoolbook" font-size="18.0" fill="#000000" transform="matrix(1.00, 0.00, -0.00, -1.00, 411.2, 244.0)">e</text></g></svg>