<?xml version="1.0" encoding="UTF-8" standalone="no"?><svg xmlns="http://www.w3.org/2000/svg" xmlns:xlink="http://www.w3.org/1999/xlink" clip-rule="evenodd" stroke-miterlimit="4.00" viewBox="0 0 960 540"><desc>SVG generated by Keynote</desc><defs></defs><g transform="matrix(1.00, 0.00, -0.00, -1.00, 0.0, 540.0)"><path d="M 0.0 540.0 L 960.0 540.0 L 960.0 0.0 L 0.0 0.0 Z M 0.0 540.0 " fill="#FFFFFF"></path><path d="M 889.2 540.0 L 961.2 540.0 L 961.2 0.0 L 889.2 0.0 Z M 889.2 540.0 " fill="#343437"></path><g><clipPath id="clip-118"><path d="M 89.7 410.8 L 872.2 410.8 L 872.2 507.6 L 89.7 507.6 Z M 89.7 410.8 "></path></clipPath><g clip-path="url(#clip-118)"><text xml:space="preserve" font-family="CenturySchoolbook" font-size="44.0" fill="#000000" transform="matrix(1.00, 0.00, -0.00, -1.00, 103.0, 420.0)">T</text><text xml:space="preserve" font-family="CenturySchoolbook" font-size="44.0" fill="#000000" transform="matrix(1.00, 0.00, -0.00, -1.00, 131.3, 420.0)">h</text><text xml:space="preserve" font-family="CenturySchoolbook" font-size="44.0" fill="#000000" transform="matrix(1.00, 0.00, -0.00, -1.00, 157.2, 420.0)">e</text><text xml:space="preserve" font-family="CenturySchoolbook" font-size="44.0" fill="#000000" transform="matrix(1.00, 0.00, -0.00, -1.00, 178.2, 420.0)"> </text><text xml:space="preserve" font-family="CenturySchoolbook" font-size="44.0" fill="#000000" transform="matrix(1.00, 0.00, -0.00, -1.00, 189.5, 420.0)">h</text><text xml:space="preserve" font-family="CenturySchoolbook" font-size="44.0" fill="#000000" transform="matrix(1.00, 0.00, -0.00, -1.00, 215.3, 420.0)">a</text><text xml:space="preserve" font-family="CenturySchoolbook" font-size="44.0" fill="#000000" transform="matrix(1.00, 0.00, -0.00, -1.00, 238.8, 420.0)">p</text><text xml:space="preserve" font-family="CenturySchoolbook" font-size="44.0" fill="#000000" transform="matrix(1.00, 0.00, -0.00, -1.00, 263.1, 420.0)">p</text><text xml:space="preserve" font-family="CenturySchoolbook" font-size="44.0" fill="#000000" transform="matrix(1.00, 0.00, -0.00, -1.00, 287.3, 420.0)">y</text><text xml:space="preserve" font-family="CenturySchoolbook" font-size="44.0" fill="#000000" transform="matrix(1.00, 0.00, -0.00, -1.00, 310.0, 420.0)"> </text><text xml:space="preserve" font-family="CenturySchoolbook" font-size="44.0" fill="#000000" transform="matrix(1.00, 0.00, -0.00, -1.00, 321.2, 420.0)">p</text><text xml:space="preserve" font-family="CenturySchoolbook" font-size="44.0" fill="#000000" transform="matrix(1.00, 0.00, -0.00, -1.00, 345.5, 420.0)">a</text><text xml:space="preserve" font-family="CenturySchoolbook" font-size="44.0" fill="#000000" transform="matrix(1.00, 0.00, -0.00, -1.00, 368.9, 420.0)">t</text><text xml:space="preserve" font-family="CenturySchoolbook" font-size="44.0" fill="#000000" transform="matrix(1.00, 0.00, -0.00, -1.00, 385.1, 420.0)">h</text></g></g><text xml:space="preserve" font-family="ArialMT" font-size="14.4" fill="#6E6E74" transform="matrix(1.00, 0.00, -0.00, -1.00, 103.0, 376.7)">•</text><text xml:space="preserve" font-family="CenturySchoolbook" font-size="18.0" fill="#000000" transform="matrix(1.00, 0.00, -0.00, -1.00, 117.0, 374.0)">C</text><text xml:space="preserve" font-family="CenturySchoolbook" font-size="18.0" fill="#000000" transform="matrix(1.00, 0.00, -0.00, -1.00, 130.0, 374.0)">l</text><text xml:space="preserve" font-family="CenturySchoolbook" font-size="18.0" fill="#000000" transform="matrix(1.00, 0.00, -0.00, -1.00, 135.7, 374.0)">i</text><text xml:space="preserve" font-family="CenturySchoolbook" font-size="18.0" fill="#000000" transform="matrix(1.00, 0.00, -0.00, -1.00, 141.3, 374.0)">e</text><text xml:space="preserve" font-family="CenturySchoolbook" font-size="18.0" fill="#000000" transform="matrix(1.00, 0.00, -0.00, -1.00, 150.3, 374.0)">n</text><text xml:space="preserve" font-family="CenturySchoolbook" font-size="18.0" fill="#000000" transform="matrix(1.00, 0.00, -0.00, -1.00, 161.3, 374.0)">t</text><text xml:space="preserve" font-family="CenturySchoolbook" font-size="18.0" fill="#000000" transform="matrix(1.00, 0.00, -0.00, -1.00, 168.3, 374.0)"> </text><text xml:space="preserve" font-family="CenturySchoolbook" font-size="18.0" fill="#000000" transform="matrix(1.00, 0.00, -0.00, -1.00, 173.3, 374.0)">c</text><text xml:space="preserve" font-family="CenturySchoolbook" font-size="18.0" fill="#000000" transform="matrix(1.00, 0.00, -0.00, -1.00, 181.3, 374.0)">o</text><text xml:space="preserve" font-family="CenturySchoolbook" font-size="18.0" fill="#000000" transform="matrix(1.00, 0.00, -0.00, -1.00, 190.3, 374.0)">n</text><text xml:space="preserve" font-family="CenturySchoolbook" font-size="18.0" fill="#000000" transform="matrix(1.00, 0.00, -0.00, -1.00, 201.3, 374.0)">s</text><text xml:space="preserve" font-family="CenturySchoolbook" font-size="18.0" fill="#000000" transform="matrix(1.00, 0.00, -0.00, -1.00, 209.6, 374.0)">u</text><text xml:space="preserve" font-family="CenturySchoolbook" font-size="18.0" fill="#000000" transform="matrix(1.00, 0.00, -0.00, -1.00, 220.6, 374.0)">m</text><text xml:space="preserve" font-family="CenturySchoolbook" font-size="18.0" fill="#000000" transform="matrix(1.00, 0.00, -0.00, -1.00, 236.6, 374.0)">e</text><text xml:space="preserve" font-family="CenturySchoolbook" font-size="18.0" fill="#000000" transform="matrix(1.00, 0.00, -0.00, -1.00, 245.6, 374.0)">s</text><text xml:space="preserve" font-family="CenturySchoolbook" font-size="18.0" fill="#000000" transform="matrix(1.00, 0.00, -0.00, -1.00, 254.0, 374.0)"> </text><text xml:space="preserve" font-family="CenturySchoolbook" font-size="18.0" fill="#000000" transform="matrix(1.00, 0.00, -0.00, -1.00, 259.0, 374.0)">m</text><text xml:space="preserve" font-family="CenturySchoolbook" font-size="18.0" fill="#000000" transform="matrix(1.00, 0.00, -0.00, -1.00, 275.0, 374.0)">e</text><text xml:space="preserve" font-family="CenturySchoolbook" font-size="18.0" fill="#000000" transform="matrix(1.00, 0.00, -0.00, -1.00, 284.0, 374.0)">s</text><text xml:space="preserve" font-family="CenturySchoolbook" font-size="18.0" fill="#000000" transform="matrix(1.00, 0.00, -0.00, -1.00, 292.3, 374.0)">s</text><text xml:space="preserve" font-family="CenturySchoolbook" font-size="18.0" fill="#000000" transform="matrix(1.00, 0.00, -0.00, -1.00, 300.6, 374.0)">a</text><text xml:space="preserve" font-family="CenturySchoolbook" font-size="18.0" fill="#000000" transform="matrix(1.00, 0.00, -0.00, -1.00, 310.7, 374.0)">g</text><text xml:space="preserve" font-family="CenturySchoolbook" font-size="18.0" fill="#000000" transform="matrix(1.00, 0.00, -0.00, -1.00, 320.3, 374.0)">e</text><text xml:space="preserve" font-family="CenturySchoolbook" font-size="18.0" fill="#000000" transform="matrix(1.00, 0.00, -0.00, -1.00, 329.3, 374.0)"> </text><text xml:space="preserve" font-family="LucidaGrande" font-size="16.0" fill="#6E6E74" transform="matrix(1.00, 0.00, -0.00, -1.00, 124.6, 353.4)">●</text><text xml:space="preserve" font-family="CenturySchoolbook" font-size="16.0" fill="#262626" transform="matrix(1.00, 0.00, -0.00, -1.00, 139.0, 353.0)">M</text><text xml:space="preserve" font-family="CenturySchoolbook" font-size="16.0" fill="#262626" transform="matrix(1.00, 0.00, -0.00, -1.00, 154.1, 353.0)">e</text><text xml:space="preserve" font-family="CenturySchoolbook" font-size="16.0" fill="#262626" transform="matrix(1.00, 0.00, -0.00, -1.00, 162.1, 353.0)">s</text><text xml:space="preserve" font-family="CenturySchoolbook" font-size="16.0" fill="#262626" transform="matrix(1.00, 0.00, -0.00, -1.00, 169.5, 353.0)">s</text><text xml:space="preserve" font-family="CenturySchoolbook" font-size="16.0" fill="#262626" transform="matrix(1.00, 0.00, -0.00, -1.00, 176.9, 353.0)">a</text><text xml:space="preserve" font-family="CenturySchoolbook" font-size="16.0" fill="#262626" transform="matrix(1.00, 0.00, -0.00, -1.00, 185.8, 353.0)">g</text><text xml:space="preserve" font-family="CenturySchoolbook" font-size="16.0" fill="#262626" transform="matrix(1.00, 0.00, -0.00, -1.00, 194.4, 353.0)">e</text><text xml:space="preserve" font-family="CenturySchoolbook" font-size="16.0" fill="#262626" transform="matrix(1.00, 0.00, -0.00, -1.00, 202.4, 353.0)"> </text><text xml:space="preserve" font-family="CenturySchoolbook" font-size="16.0" fill="#262626" transform="matrix(1.00, 0.00, -0.00, -1.00, 206.8, 353.0)">i</text><text xml:space="preserve" font-family="CenturySchoolbook" font-size="16.0" fill="#262626" transform="matrix(1.00, 0.00, -0.00, -1.00, 211.9, 353.0)">s</text><text xml:space="preserve" font-family="CenturySchoolbook" font-size="16.0" fill="#262626" transform="matrix(1.00, 0.00, -0.00, -1.00, 219.3, 353.0)"> </text><text xml:space="preserve" font-family="CenturySchoolbook" font-size="16.0" fill="#262626" transform="matrix(1.00, 0.00, -0.00, -1.00, 223.7, 353.0)">m</text><text xml:space="preserve" font-family="CenturySchoolbook" font-size="16.0" fill="#262626" transform="matrix(1.00, 0.00, -0.00, -1.00, 238.0, 353.0)">a</text><text xml:space="preserve" font-family="CenturySchoolbook" font-size="16.0" fill="#262626" transform="matrix(1.00, 0.00, -0.00, -1.00, 246.9, 353.0)">r</text><text xml:space="preserve" font-family="CenturySchoolbook" font-size="16.0" fill="#262626" transform="matrix(1.00, 0.00, -0.00, -1.00, 254.0, 353.0)">k</text><text xml:space="preserve" font-family="CenturySchoolbook" font-size="16.0" fill="#262626" transform="matrix(1.00, 0.00, -0.00, -1.00, 263.4, 353.0)">e</text><text xml:space="preserve" font-family="CenturySchoolbook" font-size="16.0" fill="#262626" transform="matrix(1.00, 0.00, -0.00, -1.00, 271.4, 353.0)">d</text><text xml:space="preserve" font-family="CenturySchoolbook" font-size="16.0" fill="#262626" transform="matrix(1.00, 0.00, -0.00, -1.00, 280.6, 353.0)"> </text><text xml:space="preserve" font-family="CenturySchoolbook" font-size="16.0" fill="#262626" transform="matrix(1.00, 0.00, -0.00, -1.00, 285.1, 353.0)">a</text><text xml:space="preserve" font-family="CenturySchoolbook" font-size="16.0" fill="#262626" transform="matrix(1.00, 0.00, -0.00, -1.00, 294.0, 353.0)">s</text><text xml:space="preserve" font-family="CenturySchoolbook" font-size="16.0" fill="#262626" transform="matrix(1.00, 0.00, -0.00, -1.00, 301.4, 353.0)"> </text><text xml:space="preserve" font-family="CenturySchoolbook" font-size="16.0" fill="#262626" transform="matrix(1.00, 0.00, -0.00, -1.00, 305.8, 353.0)">“</text><text xml:space="preserve" font-family="CenturySchoolbook" font-size="16.0" fill="#262626" transform="matrix(1.00, 0.00, -0.00, -1.00, 312.1, 353.0)">i</text><text xml:space="preserve" font-family="CenturySchoolbook" font-size="16.0" fill="#262626" transform="matrix(1.00, 0.00, -0.00, -1.00, 317.1, 353.0)">n</text><text xml:space="preserve" font-family="CenturySchoolbook" font-size="16.0" fill="#262626" transform="matrix(1.00, 0.00, -0.00, -1.00, 326.9, 353.0)">v</text><text xml:space="preserve" font-family="CenturySchoolbook" font-size="16.0" fill="#262626" transform="matrix(1.00, 0.00, -0.00, -1.00, 335.5, 353.0)">i</text><text xml:space="preserve" font-family="CenturySchoolbook" font-size="16.0" fill="#262626" transform="matrix(1.00, 0.00, -0.00, -1.00, 340.5, 353.0)">s</text><text xml:space="preserve" font-family="CenturySchoolbook" font-size="16.0" fill="#262626" transform="matrix(1.00, 0.00, -0.00, -1.00, 347.9, 353.0)">i</text><text xml:space="preserve" font-family="CenturySchoolbook" font-size="16.0" fill="#262626" transform="matrix(1.00, 0.00, -0.00, -1.00, 352.9, 353.0)">b</text><text xml:space="preserve" font-family="CenturySchoolbook" font-size="16.0" fill="#262626" transform="matrix(1.00, 0.00, -0.00, -1.00, 361.8, 353.0)">l</text><text xml:space="preserve" font-family="CenturySchoolbook" font-size="16.0" fill="#262626" transform="matrix(1.00, 0.00, -0.00, -1.00, 366.9, 353.0)">e</text><text xml:space="preserve" font-family="CenturySchoolbook" font-size="16.0" fill="#262626" transform="matrix(1.00, 0.00, -0.00, -1.00, 374.9, 353.0)">”</text><text xml:space="preserve" font-family="CenturySchoolbook" font-size="16.0" fill="#262626" transform="matrix(1.00, 0.00, -0.00, -1.00, 381.1, 353.0)"> </text><text xml:space="preserve" font-family="CenturySchoolbook" font-size="16.0" fill="#262626" transform="matrix(1.00, 0.00, -0.00, -1.00, 385.5, 353.0)">w</text><text xml:space="preserve" font-family="CenturySchoolbook" font-size="16.0" fill="#262626" transform="matrix(1.00, 0.00, -0.00, -1.00, 398.0, 353.0)">i</text><text xml:space="preserve" font-family="CenturySchoolbook" font-size="16.0" fill="#262626" transform="matrix(1.00, 0.00, -0.00, -1.00, 403.0, 353.0)">t</text><text xml:space="preserve" font-family="CenturySchoolbook" font-size="16.0" fill="#262626" transform="matrix(1.00, 0.00, -0.00, -1.00, 409.3, 353.0)">h</text><text xml:space="preserve" font-family="CenturySchoolbook" font-size="16.0" fill="#262626" transform="matrix(1.00, 0.00, -0.00, -1.00, 419.0, 353.0)"> </text><text xml:space="preserve" font-family="CenturySchoolbook" font-size="16.0" fill="#262626" transform="matrix(1.00, 0.00, -0.00, -1.00, 423.5, 353.0)">a</text><text xml:space="preserve" font-family="CenturySchoolbook" font-size="16.0" fill="#262626" transform="matrix(1.00, 0.00, -0.00, -1.00, 432.4, 353.0)"> </text><text xml:space="preserve" font-family="CenturySchoolbook" font-size="16.0" fill="#262626" transform="matrix(1.00, 0.00, -0.00, -1.00, 436.8, 353.0)">“</text><text xml:space="preserve" font-family="CenturySchoolbook" font-size="16.0" fill="#262626" transform="matrix(1.00, 0.00, -0.00, -1.00, 443.0, 353.0)">r</text><text xml:space="preserve" font-family="CenturySchoolbook" font-size="16.0" fill="#262626" transform="matrix(1.00, 0.00, -0.00, -1.00, 450.1, 353.0)">e</text><text xml:space="preserve" font-family="CenturySchoolbook" font-size="16.0" fill="#262626" transform="matrix(1.00, 0.00, -0.00, -1.00, 458.1, 353.0)">-</text><text xml:space="preserve" font-family="CenturySchoolbook" font-size="16.0" fill="#262626" transform="matrix(1.00, 0.00, -0.00, -1.00, 463.5, 353.0)">v</text><text xml:space="preserve" font-family="CenturySchoolbook" font-size="16.0" fill="#262626" transform="matrix(1.00, 0.00, -0.00, -1.00, 472.1, 353.0)">i</text><text xml:space="preserve" font-family="CenturySchoolbook" font-size="16.0" fill="#262626" transform="matrix(1.00, 0.00, -0.00, -1.00, 477.1, 353.0)">s</text><text xml:space="preserve" font-family="CenturySchoolbook" font-size="16.0" fill="#262626" transform="matrix(1.00, 0.00, -0.00, -1.00, 484.5, 353.0)">i</text><text xml:space="preserve" font-family="CenturySchoolbook" font-size="16.0" fill="#262626" transform="matrix(1.00, 0.00, -0.00, -1.00, 489.5, 353.0)">b</text><text xml:space="preserve" font-family="CenturySchoolbook" font-size="16.0" fill="#262626" transform="matrix(1.00, 0.00, -0.00, -1.00, 498.4, 353.0)">i</text><text xml:space="preserve" font-family="CenturySchoolbook" font-size="16.0" fill="#262626" transform="matrix(1.00, 0.00, -0.00, -1.00, 503.5, 353.0)">l</text><text xml:space="preserve" font-family="CenturySchoolbook" font-size="16.0" fill="#262626" transform="matrix(1.00, 0.00, -0.00, -1.00, 508.5, 353.0)">i</text><text xml:space="preserve" font-family="CenturySchoolbook" font-size="16.0" fill="#262626" transform="matrix(1.00, 0.00, -0.00, -1.00, 513.6, 353.0)">t</text><text xml:space="preserve" font-family="CenturySchoolbook" font-size="16.0" fill="#262626" transform="matrix(1.00, 0.00, -0.00, -1.00, 519.8, 353.0)">y</text><text xml:space="preserve" font-family="CenturySchoolbook" font-size="16.0" fill="#262626" transform="matrix(1.00, 0.00, -0.00, -1.00, 528.4, 353.0)">”</text><text xml:space="preserve" font-family="CenturySchoolbook" font-size="16.0" fill="#262626" transform="matrix(1.00, 0.00, -0.00, -1.00, 534.6, 353.0)"> </text><text xml:space="preserve" font-family="CenturySchoolbook" font-size="16.0" fill="#262626" transform="matrix(1.00, 0.00, -0.00, -1.00, 539.1, 353.0)">t</text><text xml:space="preserve" font-family="CenturySchoolbook" font-size="16.0" fill="#262626" transform="matrix(1.00, 0.00, -0.00, -1.00, 545.3, 353.0)">i</text><text xml:space="preserve" font-family="CenturySchoolbook" font-size="16.0" fill="#262626" transform="matrix(1.00, 0.00, -0.00, -1.00, 550.3, 353.0)">m</text><text xml:space="preserve" font-family="CenturySchoolbook" font-size="16.0" fill="#262626" transform="matrix(1.00, 0.00, -0.00, -1.00, 564.6, 353.0)">e</text><text xml:space="preserve" font-family="CenturySchoolbook" font-size="16.0" fill="#262626" transform="matrix(1.00, 0.00, -0.00, -1.00, 572.6, 353.0)">s</text><text xml:space="preserve" font-family="CenturySchoolbook" font-size="16.0" fill="#262626" transform="matrix(1.00, 0.00, -0.00, -1.00, 580.0, 353.0)">t</text><text xml:space="preserve" font-family="CenturySchoolbook" font-size="16.0" fill="#262626" transform="matrix(1.00, 0.00, -0.00, -1.00, 586.2, 353.0)">a</text><text xml:space="preserve" font-family="CenturySchoolbook" font-size="16.0" fill="#262626" transform="matrix(1.00, 0.00, -0.00, -1.00, 595.1, 353.0)">m</text><text xml:space="preserve" font-family="CenturySchoolbook" font-size="16.0" fill="#262626" transform="matrix(1.00, 0.00, -0.00, -1.00, 609.3, 353.0)">p</text><text xml:space="preserve" font-family="CenturySchoolbook" font-size="16.0" fill="#262626" transform="matrix(1.00, 0.00, -0.00, -1.00, 618.5, 353.0)"> </text><text xml:space="preserve" font-family="LucidaGrande" font-size="16.0" fill="#6E6E74" transform="matrix(1.00, 0.00, -0.00, -1.00, 124.6, 333.3)">●</text><text xml:space="preserve" font-family="CenturySchoolbook" font-size="16.0" fill="#262626" transform="matrix(1.00, 0.00, -0.00, -1.00, 139.0, 333.0)">C</text><text xml:space="preserve" font-family="CenturySchoolbook" font-size="16.0" fill="#262626" transform="matrix(1.00, 0.00, -0.00, -1.00, 150.6, 333.0)">l</text><text xml:space="preserve" font-family="CenturySchoolbook" font-size="16.0" fill="#262626" transform="matrix(1.00, 0.00, -0.00, -1.00, 155.6, 333.0)">i</text><text xml:space="preserve" font-family="CenturySchoolbook" font-size="16.0" fill="#262626" transform="matrix(1.00, 0.00, -0.00, -1.00, 160.6, 333.0)">e</text><text xml:space="preserve" font-family="CenturySchoolbook" font-size="16.0" fill="#262626" transform="matrix(1.00, 0.00, -0.00, -1.00, 168.6, 333.0)">n</text><text xml:space="preserve" font-family="CenturySchoolbook" font-size="16.0" fill="#262626" transform="matrix(1.00, 0.00, -0.00, -1.00, 178.4, 333.0)">t</text><text xml:space="preserve" font-family="CenturySchoolbook" font-size="16.0" fill="#262626" transform="matrix(1.00, 0.00, -0.00, -1.00, 184.6, 333.0)"> </text><text xml:space="preserve" font-family="CenturySchoolbook" font-size="16.0" fill="#262626" transform="matrix(1.00, 0.00, -0.00, -1.00, 189.1, 333.0)">g</text><text xml:space="preserve" font-family="CenturySchoolbook" font-size="16.0" fill="#262626" transform="matrix(1.00, 0.00, -0.00, -1.00, 197.7, 333.0)">e</text><text xml:space="preserve" font-family="CenturySchoolbook" font-size="16.0" fill="#262626" transform="matrix(1.00, 0.00, -0.00, -1.00, 205.7, 333.0)">t</text><text xml:space="preserve" font-family="CenturySchoolbook" font-size="16.0" fill="#262626" transform="matrix(1.00, 0.00, -0.00, -1.00, 211.9, 333.0)">s</text><text xml:space="preserve" font-family="CenturySchoolbook" font-size="16.0" fill="#262626" transform="matrix(1.00, 0.00, -0.00, -1.00, 219.3, 333.0)"> </text><text xml:space="preserve" font-family="CenturySchoolbook" font-size="16.0" fill="#262626" transform="matrix(1.00, 0.00, -0.00, -1.00, 223.7, 333.0)">p</text><text xml:space="preserve" font-family="CenturySchoolbook" font-size="16.0" fill="#262626" transform="matrix(1.00, 0.00, -0.00, -1.00, 232.9, 333.0)">o</text><text xml:space="preserve" font-family="CenturySchoolbook" font-size="16.0" fill="#262626" transform="matrix(1.00, 0.00, -0.00, -1.00, 240.9, 333.0)">p</text><text xml:space="preserve" font-family="CenturySchoolbook" font-size="16.0" fill="#262626" transform="matrix(1.00, 0.00, -0.00, -1.00, 250.1, 333.0)"> </text><text xml:space="preserve" font-family="CenturySchoolbook" font-size="16.0" fill="#262626" transform="matrix(1.00, 0.00, -0.00, -1.00, 254.6, 333.0)">r</text><text xml:space="preserve" font-family="CenturySchoolbook" font-size="16.0" fill="#262626" transform="matrix(1.00, 0.00, -0.00, -1.00, 261.7, 333.0)">e</text><text xml:space="preserve" font-family="CenturySchoolbook" font-size="16.0" fill="#262626" transform="matrix(1.00, 0.00, -0.00, -1.00, 269.7, 333.0)">c</text><text xml:space="preserve" font-family="CenturySchoolbook" font-size="16.0" fill="#262626" transform="matrix(1.00, 0.00, -0.00, -1.00, 276.8, 333.0)">e</text><text xml:space="preserve" font-family="CenturySchoolbook" font-size="16.0" fill="#262626" transform="matrix(1.00, 0.00, -0.00, -1.00, 284.8, 333.0)">i</text><text xml:space="preserve" font-family="CenturySchoolbook" font-size="16.0" fill="#262626" transform="matrix(1.00, 0.00, -0.00, -1.00, 289.8, 333.0)">p</text><text xml:space="preserve" font-family="CenturySchoolbook" font-size="16.0" fill="#262626" transform="matrix(1.00, 0.00, -0.00, -1.00, 299.0, 333.0)">t</text><text xml:space="preserve" font-family="CenturySchoolbook" font-size="16.0" fill="#262626" transform="matrix(1.00, 0.00, -0.00, -1.00, 305.2, 333.0)"> </text><text xml:space="preserve" font-family="CenturySchoolbook" font-size="16.0" fill="#262626" transform="matrix(1.00, 0.00, -0.00, -1.00, 309.7, 333.0)">e</text><text xml:space="preserve" font-family="CenturySchoolbook" font-size="16.0" fill="#262626" transform="matrix(1.00, 0.00, -0.00, -1.00, 317.7, 333.0)">n</text><text xml:space="preserve" font-family="CenturySchoolbook" font-size="16.0" fill="#262626" transform="matrix(1.00, 0.00, -0.00, -1.00, 327.4, 333.0)">c</text><text xml:space="preserve" font-family="CenturySchoolbook" font-size="16.0" fill="#262626" transform="matrix(1.00, 0.00, -0.00, -1.00, 334.5, 333.0)">a</text><text xml:space="preserve" font-family="CenturySchoolbook" font-size="16.0" fill="#262626" transform="matrix(1.00, 0.00, -0.00, -1.00, 343.4, 333.0)">p</text><text xml:space="preserve" font-family="CenturySchoolbook" font-size="16.0" fill="#262626" transform="matrix(1.00, 0.00, -0.00, -1.00, 352.6, 333.0)">s</text><text xml:space="preserve" font-family="CenturySchoolbook" font-size="16.0" fill="#262626" transform="matrix(1.00, 0.00, -0.00, -1.00, 360.0, 333.0)">u</text><text xml:space="preserve" font-family="CenturySchoolbook" font-size="16.0" fill="#262626" transform="matrix(1.00, 0.00, -0.00, -1.00, 369.8, 333.0)">l</text><text xml:space="preserve" font-family="CenturySchoolbook" font-size="16.0" fill="#262626" transform="matrix(1.00, 0.00, -0.00, -1.00, 374.8, 333.0)">a</text><text xml:space="preserve" font-family="CenturySchoolbook" font-size="16.0" fill="#262626" transform="matrix(1.00, 0.00, -0.00, -1.00, 383.7, 333.0)">t</text><text xml:space="preserve" font-family="CenturySchoolbook" font-size="16.0" fill="#262626" transform="matrix(1.00, 0.00, -0.00, -1.00, 390.0, 333.0)">i</text><text xml:space="preserve" font-family="CenturySchoolbook" font-size="16.0" fill="#262626" transform="matrix(1.00, 0.00, -0.00, -1.00, 395.0, 333.0)">n</text><text xml:space="preserve" font-family="CenturySchoolbook" font-size="16.0" fill="#262626" transform="matrix(1.00, 0.00, -0.00, -1.00, 404.8, 333.0)">g</text><text xml:space="preserve" font-family="CenturySchoolbook" font-size="16.0" fill="#262626" transform="matrix(1.00, 0.00, -0.00, -1.00, 413.4, 333.0)"> </text><text xml:space="preserve" font-family="CenturySchoolbook" font-size="16.0" fill="#262626" transform="matrix(1.00, 0.00, -0.00, -1.00, 417.8, 333.0)">m</text><text xml:space="preserve" font-family="CenturySchoolbook" font-size="16.0" fill="#262626" transform="matrix(1.00, 0.00, -0.00, -1.00, 432.0, 333.0)">e</text><text xml:space="preserve" font-family="CenturySchoolbook" font-size="16.0" fill="#262626" transform="matrix(1.00, 0.00, -0.00, -1.00, 440.0, 333.0)">t</text><text xml:space="preserve" font-family="CenturySchoolbook" font-size="16.0" fill="#262626" transform="matrix(1.00, 0.00, -0.00, -1.00, 446.3, 333.0)">a</text><text xml:space="preserve" font-family="CenturySchoolbook" font-size="16.0" fill="#262626" transform="matrix(1.00, 0.00, -0.00, -1.00, 455.2, 333.0)">d</text><text xml:space="preserve" font-family="CenturySchoolbook" font-size="16.0" fill="#262626" transform="matrix(1.00, 0.00, -0.00, -1.00, 464.4, 333.0)">a</text><text xml:space="preserve" font-family="CenturySchoolbook" font-size="16.0" fill="#262626" transform="matrix(1.00, 0.00, -0.00, -1.00, 473.3, 333.0)">t</text><text xml:space="preserve" font-family="CenturySchoolbook" font-size="16.0" fill="#262626" transform="matrix(1.00, 0.00, -0.00, -1.00, 479.5, 333.0)">a</text><text xml:space="preserve" font-family="CenturySchoolbook" font-size="16.0" fill="#262626" transform="matrix(1.00, 0.00, -0.00, -1.00, 488.4, 333.0)"> </text><text xml:space="preserve" font-family="CenturySchoolbook" font-size="16.0" fill="#262626" transform="matrix(1.00, 0.00, -0.00, -1.00, 492.8, 333.0)">(</text><text xml:space="preserve" font-family="CenturySchoolbook" font-size="16.0" fill="#262626" transform="matrix(1.00, 0.00, -0.00, -1.00, 498.2, 333.0)">i</text><text xml:space="preserve" font-family="CenturySchoolbook" font-size="16.0" fill="#262626" transform="matrix(1.00, 0.00, -0.00, -1.00, 503.2, 333.0)">n</text><text xml:space="preserve" font-family="CenturySchoolbook" font-size="16.0" fill="#262626" transform="matrix(1.00, 0.00, -0.00, -1.00, 513.0, 333.0)">c</text><text xml:space="preserve" font-family="CenturySchoolbook" font-size="16.0" fill="#262626" transform="matrix(1.00, 0.00, -0.00, -1.00, 520.1, 333.0)">l</text><text xml:space="preserve" font-family="CenturySchoolbook" font-size="16.0" fill="#262626" transform="matrix(1.00, 0.00, -0.00, -1.00, 525.1, 333.0)">u</text><text xml:space="preserve" font-family="CenturySchoolbook" font-size="16.0" fill="#262626" transform="matrix(1.00, 0.00, -0.00, -1.00, 534.9, 333.0)">d</text><text xml:space="preserve" font-family="CenturySchoolbook" font-size="16.0" fill="#262626" transform="matrix(1.00, 0.00, -0.00, -1.00, 544.1, 333.0)">i</text><text xml:space="preserve" font-family="CenturySchoolbook" font-size="16.0" fill="#262626" transform="matrix(1.00, 0.00, -0.00, -1.00, 549.1, 333.0)">n</text><text xml:space="preserve" font-family="CenturySchoolbook" font-size="16.0" fill="#262626" transform="matrix(1.00, 0.00, -0.00, -1.00, 558.9, 333.0)">g</text><text xml:space="preserve" font-family="CenturySchoolbook" font-size="16.0" fill="#262626" transform="matrix(1.00, 0.00, -0.00, -1.00, 567.5, 333.0)"> </text><text xml:space="preserve" font-family="CenturySchoolbook" font-size="16.0" fill="#262626" transform="matrix(1.00, 0.00, -0.00, -1.00, 571.9, 333.0)">v</text><text xml:space="preserve" font-family="CenturySchoolbook" font-size="16.0" fill="#262626" transform="matrix(1.00, 0.00, -0.00, -1.00, 580.5, 333.0)">e</text><text xml:space="preserve" font-family="CenturySchoolbook" font-size="16.0" fill="#262626" transform="matrix(1.00, 0.00, -0.00, -1.00, 588.5, 333.0)">r</text><text xml:space="preserve" font-family="CenturySchoolbook" font-size="16.0" fill="#262626" transform="matrix(1.00, 0.00, -0.00, -1.00, 595.6, 333.0)">s</text><text xml:space="preserve" font-family="CenturySchoolbook" font-size="16.0" fill="#262626" transform="matrix(1.00, 0.00, -0.00, -1.00, 603.0, 333.0)">i</text><text xml:space="preserve" font-family="CenturySchoolbook" font-size="16.0" fill="#262626" transform="matrix(1.00, 0.00, -0.00, -1.00, 608.1, 333.0)">o</text><text xml:space="preserve" font-family="CenturySchoolbook" font-size="16.0" fill="#262626" transform="matrix(1.00, 0.00, -0.00, -1.00, 616.1, 333.0)">n</text><text xml:space="preserve" font-family="CenturySchoolbook" font-size="16.0" fill="#262626" transform="matrix(1.00, 0.00, -0.00, -1.00, 625.8, 333.0)">)</text><text xml:space="preserve" font-family="CenturySchoolbook" font-size="16.0" fill="#262626" transform="matrix(1.00, 0.00, -0.00, -1.00, 631.2, 333.0)"> </text><text xml:space="preserve" font-family="ArialMT" font-size="14.4" fill="#6E6E74" transform="matrix(1.00, 0.00, -0.00, -1.00, 103.0, 301.6)">•</text><text xml:space="preserve" font-family="CenturySchoolbook" font-size="18.0" fill="#000000" transform="matrix(1.00, 0.00, -0.00, -1.00, 117.0, 299.0)">C</text><text xml:space="preserve" font-family="CenturySchoolbook" font-size="18.0" fill="#000000" transform="matrix(1.00, 0.00, -0.00, -1.00, 130.0, 299.0)">l</text><text xml:space="preserve" font-family="CenturySchoolbook" font-size="18.0" fill="#000000" transform="matrix(1.00, 0.00, -0.00, -1.00, 135.7, 299.0)">i</text><text xml:space="preserve" font-family="CenturySchoolbook" font-size="18.0" fill="#000000" transform="matrix(1.00, 0.00, -0.00, -1.00, 141.3, 299.0)">e</text><text xml:space="preserve" font-family="CenturySchoolbook" font-size="18.0" fill="#000000" transform="matrix(1.00, 0.00, -0.00, -1.00, 150.3, 299.0)">n</text><text xml:space="preserve" font-family="CenturySchoolbook" font-size="18.0" fill="#000000" transform="matrix(1.00, 0.00, -0.00, -1.00, 161.3, 299.0)">t</text><text xml:space="preserve" font-family="CenturySchoolbook" font-size="18.0" fill="#000000" transform="matrix(1.00, 0.00, -0.00, -1.00, 168.3, 299.0)"> </text><text xml:space="preserve" font-family="CenturySchoolbook" font-size="18.0" fill="#000000" transform="matrix(1.00, 0.00, -0.00, -1.00, 173.3, 299.0)">a</text><text xml:space="preserve" font-family="CenturySchoolbook" font-size="18.0" fill="#000000" transform="matrix(1.00, 0.00, -0.00, -1.00, 183.3, 299.0)">c</text><text xml:space="preserve" font-family="CenturySchoolbook" font-size="18.0" fill="#000000" transform="matrix(1.00, 0.00, -0.00, -1.00, 191.3, 299.0)">k</text><text xml:space="preserve" font-family="CenturySchoolbook" font-size="18.0" fill="#000000" transform="matrix(1.00, 0.00, -0.00, -1.00, 202.0, 299.0)">s</text><text xml:space="preserve" font-family="CenturySchoolbook" font-size="18.0" fill="#000000" transform="matrix(1.00, 0.00, -0.00, -1.00, 210.3, 299.0)"> </text><text xml:space="preserve" font-family="CenturySchoolbook" font-size="18.0" fill="#000000" transform="matrix(1.00, 0.00, -0.00, -1.00, 215.3, 299.0)">w</text><text xml:space="preserve" font-family="CenturySchoolbook" font-size="18.0" fill="#000000" transform="matrix(1.00, 0.00, -0.00, -1.00, 229.3, 299.0)">i</text><text xml:space="preserve" font-family="CenturySchoolbook" font-size="18.0" fill="#000000" transform="matrix(1.00, 0.00, -0.00, -1.00, 235.0, 299.0)">t</text><text xml:space="preserve" font-family="CenturySchoolbook" font-size="18.0" fill="#000000" transform="matrix(1.00, 0.00, -0.00, -1.00, 242.0, 299.0)">h</text><text xml:space="preserve" font-family="CenturySchoolbook" font-size="18.0" fill="#000000" transform="matrix(1.00, 0.00, -0.00, -1.00, 253.0, 299.0)">i</text><text xml:space="preserve" font-family="CenturySchoolbook" font-size="18.0" fill="#000000" transform="matrix(1.00, 0.00, -0.00, -1.00, 258.7, 299.0)">n</text><text xml:space="preserve" font-family="CenturySchoolbook" font-size="18.0" fill="#000000" transform="matrix(1.00, 0.00, -0.00, -1.00, 269.7, 299.0)"> </text><text xml:space="preserve" font-family="CenturySchoolbook" font-size="18.0" fill="#000000" transform="matrix(1.00, 0.00, -0.00, -1.00, 274.6, 299.0)">t</text><text xml:space="preserve" font-family="CenturySchoolbook" font-size="18.0" fill="#000000" transform="matrix(1.00, 0.00, -0.00, -1.00, 281.7, 299.0)">i</text><text xml:space="preserve" font-family="CenturySchoolbook" font-size="18.0" fill="#000000" transform="matrix(1.00, 0.00, -0.00, -1.00, 287.3, 299.0)">m</text><text xml:space="preserve" font-family="CenturySchoolbook" font-size="18.0" fill="#000000" transform="matrix(1.00, 0.00, -0.00, -1.00, 303.3, 299.0)">e</text><text xml:space="preserve" font-family="CenturySchoolbook" font-size="18.0" fill="#000000" transform="matrix(1.00, 0.00, -0.00, -1.00, 312.3, 299.0)">f</text><text xml:space="preserve" font-family="CenturySchoolbook" font-size="18.0" fill="#000000" transform="matrix(1.00, 0.00, -0.00, -1.00, 318.3, 299.0)">r</text><text xml:space="preserve" font-family="CenturySchoolbook" font-size="18.0" fill="#000000" transform="matrix(1.00, 0.00, -0.00, -1.00, 326.3, 299.0)">a</text><text xml:space="preserve" font-family="CenturySchoolbook" font-size="18.0" fill="#000000" transform="matrix(1.00, 0.00, -0.00, -1.00, 336.3, 299.0)">m</text><text xml:space="preserve" font-family="CenturySchoolbook" font-size="18.0" fill="#000000" transform="matrix(1.00, 0.00, -0.00, -1.00, 352.3, 299.0)">e</text><text xml:space="preserve" font-family="CenturySchoolbook" font-size="18.0" fill="#000000" transform="matrix(1.00, 0.00, -0.00, -1.00, 361.3, 299.0)"> </text><text xml:space="preserve" font-family="LucidaGrande" font-size="16.0" fill="#6E6E74" transform="matrix(1.00, 0.00, -0.00, -1.00, 124.6, 278.3)">●</text><text xml:space="preserve" font-family="CenturySchoolbook" font-size="16.0" fill="#262626" transform="matrix(1.00, 0.00, -0.00, -1.00, 139.0, 278.0)">M</text><text xml:space="preserve" font-family="CenturySchoolbook" font-size="16.0" fill="#262626" transform="matrix(1.00, 0.00, -0.00, -1.00, 154.1, 278.0)">e</text><text xml:space="preserve" font-family="CenturySchoolbook" font-size="16.0" fill="#262626" transform="matrix(1.00, 0.00, -0.00, -1.00, 162.1, 278.0)">s</text><text xml:space="preserve" font-family="CenturySchoolbook" font-size="16.0" fill="#262626" transform="matrix(1.00, 0.00, -0.00, -1.00, 169.5, 278.0)">s</text><text xml:space="preserve" font-family="CenturySchoolbook" font-size="16.0" fill="#262626" transform="matrix(1.00, 0.00, -0.00, -1.00, 176.9, 278.0)">a</text><text xml:space="preserve" font-family="CenturySchoolbook" font-size="16.0" fill="#262626" transform="matrix(1.00, 0.00, -0.00, -1.00, 185.8, 278.0)">g</text><text xml:space="preserve" font-family="CenturySchoolbook" font-size="16.0" fill="#262626" transform="matrix(1.00, 0.00, -0.00, -1.00, 194.4, 278.0)">e</text><text xml:space="preserve" font-family="CenturySchoolbook" font-size="16.0" fill="#262626" transform="matrix(1.00, 0.00, -0.00, -1.00, 202.4, 278.0)"> </text><text xml:space="preserve" font-family="CenturySchoolbook" font-size="16.0" fill="#262626" transform="matrix(1.00, 0.00, -0.00, -1.00, 206.8, 278.0)">m</text><text xml:space="preserve" font-family="CenturySchoolbook" font-size="16.0" fill="#262626" transform="matrix(1.00, 0.00, -0.00, -1.00, 221.1, 278.0)">a</text><text xml:space="preserve" font-family="CenturySchoolbook" font-size="16.0" fill="#262626" transform="matrix(1.00, 0.00, -0.00, -1.00, 230.0, 278.0)">r</text><text xml:space="preserve" font-family="CenturySchoolbook" font-size="16.0" fill="#262626" transform="matrix(1.00, 0.00, -0.00, -1.00, 237.1, 278.0)">k</text><text xml:space="preserve" font-family="CenturySchoolbook" font-size="16.0" fill="#262626" transform="matrix(1.00, 0.00, -0.00, -1.00, 246.6, 278.0)">e</text><text xml:space="preserve" font-family="CenturySchoolbook" font-size="16.0" fill="#262626" transform="matrix(1.00, 0.00, -0.00, -1.00, 254.6, 278.0)">d</text><text xml:space="preserve" font-family="CenturySchoolbook" font-size="16.0" fill="#262626" transform="matrix(1.00, 0.00, -0.00, -1.00, 263.7, 278.0)"> </text><text xml:space="preserve" font-family="CenturySchoolbook" font-size="16.0" fill="#262626" transform="matrix(1.00, 0.00, -0.00, -1.00, 268.2, 278.0)">a</text><text xml:space="preserve" font-family="CenturySchoolbook" font-size="16.0" fill="#262626" transform="matrix(1.00, 0.00, -0.00, -1.00, 277.1, 278.0)">s</text><text xml:space="preserve" font-family="CenturySchoolbook" font-size="16.0" fill="#262626" transform="matrix(1.00, 0.00, -0.00, -1.00, 284.5, 278.0)"> </text><text xml:space="preserve" font-family="CenturySchoolbook" font-size="16.0" fill="#262626" transform="matrix(1.00, 0.00, -0.00, -1.00, 288.9, 278.0)">c</text><text xml:space="preserve" font-family="CenturySchoolbook" font-size="16.0" fill="#262626" transform="matrix(1.00, 0.00, -0.00, -1.00, 296.0, 278.0)">o</text><text xml:space="preserve" font-family="CenturySchoolbook" font-size="16.0" fill="#262626" transform="matrix(1.00, 0.00, -0.00, -1.00, 304.0, 278.0)">n</text><text xml:space="preserve" font-family="CenturySchoolbook" font-size="16.0" fill="#262626" transform="matrix(1.00, 0.00, -0.00, -1.00, 313.8, 278.0)">s</text><text xml:space="preserve" font-family="CenturySchoolbook" font-size="16.0" fill="#262626" transform="matrix(1.00, 0.00, -0.00, -1.00, 321.2, 278.0)">u</text><text xml:space="preserve" font-family="CenturySchoolbook" font-size="16.0" fill="#262626" transform="matrix(1.00, 0.00, -0.00, -1.00, 331.0, 278.0)">m</text><text xml:space="preserve" font-family="CenturySchoolbook" font-size="16.0" fill="#262626" transform="matrix(1.00, 0.00, -0.00, -1.00, 345.2, 278.0)">e</text><text xml:space="preserve" font-family="CenturySchoolbook" font-size="16.0" fill="#262626" transform="matrix(1.00, 0.00, -0.00, -1.00, 353.2, 278.0)">d</text><text xml:space="preserve" font-family="CenturySchoolbook" font-size="16.0" fill="#262626" transform="matrix(1.00, 0.00, -0.00, -1.00, 362.4, 278.0)"> </text><text xml:space="preserve" font-family="CenturySchoolbook" font-size="16.0" fill="#262626" transform="matrix(1.00, 0.00, -0.00, -1.00, 366.8, 278.0)">i</text><text xml:space="preserve" font-family="CenturySchoolbook" font-size="16.0" fill="#262626" transform="matrix(1.00, 0.00, -0.00, -1.00, 371.9, 278.0)">f</text><text xml:space="preserve" font-family="CenturySchoolbook" font-size="16.0" fill="#262626" transform="matrix(1.00, 0.00, -0.00, -1.00, 377.2, 278.0)"> </text><text xml:space="preserve" font-family="CenturySchoolbook" font-size="16.0" fill="#262626" transform="matrix(1.00, 0.00, -0.00, -1.00, 381.7, 278.0)">v</text><text xml:space="preserve" font-family="CenturySchoolbook" font-size="16.0" fill="#262626" transform="matrix(1.00, 0.00, -0.00, -1.00, 390.2, 278.0)">e</text><text xml:space="preserve" font-family="CenturySchoolbook" font-size="16.0" fill="#262626" transform="matrix(1.00, 0.00, -0.00, -1.00, 398.2, 278.0)">r</text><text xml:space="preserve" font-family="CenturySchoolbook" font-size="16.0" fill="#262626" transform="matrix(1.00, 0.00, -0.00, -1.00, 405.3, 278.0)">s</text><text xml:space="preserve" font-family="CenturySchoolbook" font-size="16.0" fill="#262626" transform="matrix(1.00, 0.00, -0.00, -1.00, 412.8, 278.0)">i</text><text xml:space="preserve" font-family="CenturySchoolbook" font-size="16.0" fill="#262626" transform="matrix(1.00, 0.00, -0.00, -1.00, 417.8, 278.0)">o</text><text xml:space="preserve" font-family="CenturySchoolbook" font-size="16.0" fill="#262626" transform="matrix(1.00, 0.00, -0.00, -1.00, 425.8, 278.0)">n</text><text xml:space="preserve" font-family="CenturySchoolbook" font-size="16.0" fill="#262626" transform="matrix(1.00, 0.00, -0.00, -1.00, 435.6, 278.0)"> </text><text xml:space="preserve" font-family="CenturySchoolbook" font-size="16.0" fill="#262626" transform="matrix(1.00, 0.00, -0.00, -1.00, 440.0, 278.0)">i</text><text xml:space="preserve" font-family="CenturySchoolbook" font-size="16.0" fill="#262626" transform="matrix(1.00, 0.00, -0.00, -1.00, 445.0, 278.0)">s</text><text xml:space="preserve" font-family="CenturySchoolbook" font-size="16.0" fill="#262626" transform="matrix(1.00, 0.00, -0.00, -1.00, 452.4, 278.0)"> </text><text xml:space="preserve" font-family="CenturySchoolbook" font-size="16.0" fill="#262626" transform="matrix(1.00, 0.00, -0.00, -1.00, 456.9, 278.0)">t</text><text xml:space="preserve" font-family="CenturySchoolbook" font-size="16.0" fill="#262626" transform="matrix(1.00, 0.00, -0.00, -1.00, 463.1, 278.0)">h</text><text xml:space="preserve" font-family="CenturySchoolbook" font-size="16.0" fill="#262626" transform="matrix(1.00, 0.00, -0.00, -1.00, 472.9, 278.0)">e</text><text xml:space="preserve" font-family="CenturySchoolbook" font-size="16.0" fill="#262626" transform="matrix(1.00, 0.00, -0.00, -1.00, 480.9, 278.0)"> </text><text xml:space="preserve" font-family="CenturySchoolbook" font-size="16.0" fill="#262626" transform="matrix(1.00, 0.00, -0.00, -1.00, 485.3, 278.0)">s</text><text xml:space="preserve" font-family="CenturySchoolbook" font-size="16.0" fill="#262626" transform="matrix(1.00, 0.00, -0.00, -1.00, 492.7, 278.0)">a</text><text xml:space="preserve" font-family="CenturySchoolbook" font-size="16.0" fill="#262626" transform="matrix(1.00, 0.00, -0.00, -1.00, 501.6, 278.0)">m</text><text xml:space="preserve" font-family="CenturySchoolbook" font-size="16.0" fill="#262626" transform="matrix(1.00, 0.00, -0.00, -1.00, 515.9, 278.0)">e</text></g></svg>