<?xml version="1.0" encoding="UTF-8" standalone="no"?><svg xmlns="http://www.w3.org/2000/svg" xmlns:xlink="http://www.w3.org/1999/xlink" clip-rule="evenodd" stroke-miterlimit="4.00" viewBox="0 0 960 540"><desc>SVG generated by Keynote</desc><defs></defs><g transform="matrix(1.00, 0.00, -0.00, -1.00, 0.0, 540.0)"><path d="M 0.0 540.0 L 960.0 540.0 L 960.0 0.0 L 0.0 0.0 Z M 0.0 540.0 " fill="#343437"></path><path d="M 0.0 540.0 L 36.0 540.0 L 36.0 0.0 L 0.0 0.0 Z M 0.0 540.0 " fill="#6E6E74"></path><g><clipPath id="clip-261"><path d="M 81.3 165.8 L 859.0 165.8 L 859.0 476.6 L 81.3 476.6 Z M 81.3 165.8 "></path></clipPath><g clip-path="url(#clip-261)"><text xml:space="preserve" font-family="CenturySchoolbook" font-size="72.0" fill="#FFFFFF" transform="matrix(1.00, 0.00, -0.00, -1.00, 103.0, 181.0)">C</text><text xml:space="preserve" font-family="CenturySchoolbook" font-size="72.0" fill="#FFFFFF" transform="matrix(1.00, 0.00, -0.00, -1.00, 154.0, 181.0)">a</text><text xml:space="preserve" font-family="CenturySchoolbook" font-size="72.0" fill="#FFFFFF" transform="matrix(1.00, 0.00, -0.00, -1.00, 193.1, 181.0)">s</text><text xml:space="preserve" font-family="CenturySchoolbook" font-size="72.0" fill="#FFFFFF" transform="matrix(1.00, 0.00, -0.00, -1.00, 225.4, 181.0)">s</text><text xml:space="preserve" font-family="CenturySchoolbook" font-size="72.0" fill="#FFFFFF" transform="matrix(1.00, 0.00, -0.00, -1.00, 257.7, 181.0)">i</text><text xml:space="preserve" font-family="CenturySchoolbook" font-size="72.0" fill="#FFFFFF" transform="matrix(1.00, 0.00, -0.00, -1.00, 279.4, 181.0)">e</text><text xml:space="preserve" font-family="CenturySchoolbook" font-size="72.0" fill="#FFFFFF" transform="matrix(1.00, 0.00, -0.00, -1.00, 314.5, 181.0)">Q</text></g></g><text xml:space="preserve" font-family="CenturySchoolbook" font-size="19.6" fill="#BFBFBF" transform="matrix(1.00, 0.00, -0.00, -1.00, 103.0, 140.0)">A</text><text xml:space="preserve" font-family="CenturySchoolbook" font-size="19.6" fill="#BFBFBF" transform="matrix(1.00, 0.00, -0.00, -1.00, 117.1, 140.0)"> </text><text xml:space="preserve" font-family="CenturySchoolbook" font-size="19.6" fill="#BFBFBF" transform="matrix(1.00, 0.00, -0.00, -1.00, 122.6, 140.0)">d</text><text xml:space="preserve" font-family="CenturySchoolbook" font-size="19.6" fill="#BFBFBF" transform="matrix(1.00, 0.00, -0.00, -1.00, 133.8, 140.0)">i</text><text xml:space="preserve" font-family="CenturySchoolbook" font-size="19.6" fill="#BFBFBF" transform="matrix(1.00, 0.00, -0.00, -1.00, 140.0, 140.0)">s</text><text xml:space="preserve" font-family="CenturySchoolbook" font-size="19.6" fill="#BFBFBF" transform="matrix(1.00, 0.00, -0.00, -1.00, 149.1, 140.0)">t</text><text xml:space="preserve" font-family="CenturySchoolbook" font-size="19.6" fill="#BFBFBF" transform="matrix(1.00, 0.00, -0.00, -1.00, 156.7, 140.0)">r</text><text xml:space="preserve" font-family="CenturySchoolbook" font-size="19.6" fill="#BFBFBF" transform="matrix(1.00, 0.00, -0.00, -1.00, 165.4, 140.0)">i</text><text xml:space="preserve" font-family="CenturySchoolbook" font-size="19.6" fill="#BFBFBF" transform="matrix(1.00, 0.00, -0.00, -1.00, 171.5, 140.0)">b</text><text xml:space="preserve" font-family="CenturySchoolbook" font-size="19.6" fill="#BFBFBF" transform="matrix(1.00, 0.00, -0.00, -1.00, 182.4, 140.0)">u</text><text xml:space="preserve" font-family="CenturySchoolbook" font-size="19.6" fill="#BFBFBF" transform="matrix(1.00, 0.00, -0.00, -1.00, 194.4, 140.0)">t</text><text xml:space="preserve" font-family="CenturySchoolbook" font-size="19.6" fill="#BFBFBF" transform="matrix(1.00, 0.00, -0.00, -1.00, 202.0, 140.0)">e</text><text xml:space="preserve" font-family="CenturySchoolbook" font-size="19.6" fill="#BFBFBF" transform="matrix(1.00, 0.00, -0.00, -1.00, 211.8, 140.0)">d</text><text xml:space="preserve" font-family="CenturySchoolbook" font-size="19.6" fill="#BFBFBF" transform="matrix(1.00, 0.00, -0.00, -1.00, 223.0, 140.0)"> </text><text xml:space="preserve" font-family="CenturySchoolbook" font-size="19.6" fill="#BFBFBF" transform="matrix(1.00, 0.00, -0.00, -1.00, 228.5, 140.0)">q</text><text xml:space="preserve" font-family="CenturySchoolbook" font-size="19.6" fill="#BFBFBF" transform="matrix(1.00, 0.00, -0.00, -1.00, 239.4, 140.0)">u</text><text xml:space="preserve" font-family="CenturySchoolbook" font-size="19.6" fill="#BFBFBF" transform="matrix(1.00, 0.00, -0.00, -1.00, 251.3, 140.0)">e</text><text xml:space="preserve" font-family="CenturySchoolbook" font-size="19.6" fill="#BFBFBF" transform="matrix(1.00, 0.00, -0.00, -1.00, 261.1, 140.0)">u</text><text xml:space="preserve" font-family="CenturySchoolbook" font-size="19.6" fill="#BFBFBF" transform="matrix(1.00, 0.00, -0.00, -1.00, 273.1, 140.0)">e</text><text xml:space="preserve" font-family="CenturySchoolbook" font-size="19.6" fill="#BFBFBF" transform="matrix(1.00, 0.00, -0.00, -1.00, 282.9, 140.0)"> </text><text xml:space="preserve" font-family="CenturySchoolbook" font-size="19.6" fill="#BFBFBF" transform="matrix(1.00, 0.00, -0.00, -1.00, 288.3, 140.0)">b</text><text xml:space="preserve" font-family="CenturySchoolbook" font-size="19.6" fill="#BFBFBF" transform="matrix(1.00, 0.00, -0.00, -1.00, 299.2, 140.0)">u</text><text xml:space="preserve" font-family="CenturySchoolbook" font-size="19.6" fill="#BFBFBF" transform="matrix(1.00, 0.00, -0.00, -1.00, 311.1, 140.0)">i</text><text xml:space="preserve" font-family="CenturySchoolbook" font-size="19.6" fill="#BFBFBF" transform="matrix(1.00, 0.00, -0.00, -1.00, 317.3, 140.0)">l</text><text xml:space="preserve" font-family="CenturySchoolbook" font-size="19.6" fill="#BFBFBF" transform="matrix(1.00, 0.00, -0.00, -1.00, 323.5, 140.0)">t</text><text xml:space="preserve" font-family="CenturySchoolbook" font-size="19.6" fill="#BFBFBF" transform="matrix(1.00, 0.00, -0.00, -1.00, 331.1, 140.0)"> </text><text xml:space="preserve" font-family="CenturySchoolbook" font-size="19.6" fill="#BFBFBF" transform="matrix(1.00, 0.00, -0.00, -1.00, 336.5, 140.0)">o</text><text xml:space="preserve" font-family="CenturySchoolbook" font-size="19.6" fill="#BFBFBF" transform="matrix(1.00, 0.00, -0.00, -1.00, 346.3, 140.0)">n</text><text xml:space="preserve" font-family="CenturySchoolbook" font-size="19.6" fill="#BFBFBF" transform="matrix(1.00, 0.00, -0.00, -1.00, 358.3, 140.0)"> </text><text xml:space="preserve" font-family="CenturySchoolbook" font-size="19.6" fill="#BFBFBF" transform="matrix(1.00, 0.00, -0.00, -1.00, 363.7, 140.0)">c</text><text xml:space="preserve" font-family="CenturySchoolbook" font-size="19.6" fill="#BFBFBF" transform="matrix(1.00, 0.00, -0.00, -1.00, 372.4, 140.0)">a</text><text xml:space="preserve" font-family="CenturySchoolbook" font-size="19.6" fill="#BFBFBF" transform="matrix(1.00, 0.00, -0.00, -1.00, 383.3, 140.0)">s</text><text xml:space="preserve" font-family="CenturySchoolbook" font-size="19.6" fill="#BFBFBF" transform="matrix(1.00, 0.00, -0.00, -1.00, 392.4, 140.0)">s</text><text xml:space="preserve" font-family="CenturySchoolbook" font-size="19.6" fill="#BFBFBF" transform="matrix(1.00, 0.00, -0.00, -1.00, 401.4, 140.0)">a</text><text xml:space="preserve" font-family="CenturySchoolbook" font-size="19.6" fill="#BFBFBF" transform="matrix(1.00, 0.00, -0.00, -1.00, 412.3, 140.0)">n</text><text xml:space="preserve" font-family="CenturySchoolbook" font-size="19.6" fill="#BFBFBF" transform="matrix(1.00, 0.00, -0.00, -1.00, 424.3, 140.0)">d</text><text xml:space="preserve" font-family="CenturySchoolbook" font-size="19.6" fill="#BFBFBF" transform="matrix(1.00, 0.00, -0.00, -1.00, 435.5, 140.0)">r</text><text xml:space="preserve" font-family="CenturySchoolbook" font-size="19.6" fill="#BFBFBF" transform="matrix(1.00, 0.00, -0.00, -1.00, 444.2, 140.0)">a</text><text xml:space="preserve" font-family="CenturySchoolbook" font-size="19.6" fill="#BFBFBF" transform="matrix(1.00, 0.00, -0.00, -1.00, 455.1, 140.0)"> </text><text xml:space="preserve" font-family="CenturySchoolbook" font-size="19.6" fill="#BFBFBF" transform="matrix(1.00, 0.00, -0.00, -1.00, 103.0, 71.0)">p</text><text xml:space="preserve" font-family="CenturySchoolbook" font-size="19.6" fill="#BFBFBF" transform="matrix(1.00, 0.00, -0.00, -1.00, 114.3, 71.0)">a</text><text xml:space="preserve" font-family="CenturySchoolbook" font-size="19.6" fill="#BFBFBF" transform="matrix(1.00, 0.00, -0.00, -1.00, 125.3, 71.0)">r</text><text xml:space="preserve" font-family="CenturySchoolbook" font-size="19.6" fill="#BFBFBF" transform="matrix(1.00, 0.00, -0.00, -1.00, 134.1, 71.0)">a</text><text xml:space="preserve" font-family="CenturySchoolbook" font-size="19.6" fill="#BFBFBF" transform="matrix(1.00, 0.00, -0.00, -1.00, 145.1, 71.0)">d</text><text xml:space="preserve" font-family="CenturySchoolbook" font-size="19.6" fill="#BFBFBF" transform="matrix(1.00, 0.00, -0.00, -1.00, 156.4, 71.0)">o</text><text xml:space="preserve" font-family="CenturySchoolbook" font-size="19.6" fill="#BFBFBF" transform="matrix(1.00, 0.00, -0.00, -1.00, 166.3, 71.0)">x</text><text xml:space="preserve" font-family="CenturySchoolbook" font-size="19.6" fill="#BFBFBF" transform="matrix(1.00, 0.00, -0.00, -1.00, 176.9, 71.0)">i</text><text xml:space="preserve" font-family="CenturySchoolbook" font-size="19.6" fill="#BFBFBF" transform="matrix(1.00, 0.00, -0.00, -1.00, 183.2, 71.0)">c</text><text xml:space="preserve" font-family="CenturySchoolbook" font-size="19.6" fill="#BFBFBF" transform="matrix(1.00, 0.00, -0.00, -1.00, 192.0, 71.0)">a</text><text xml:space="preserve" font-family="CenturySchoolbook" font-size="19.6" fill="#BFBFBF" transform="matrix(1.00, 0.00, -0.00, -1.00, 202.9, 71.0)">l</text><text xml:space="preserve" font-family="CenturySchoolbook" font-size="19.6" fill="#BFBFBF" transform="matrix(1.00, 0.00, -0.00, -1.00, 209.2, 71.0)">.</text><text xml:space="preserve" font-family="CenturySchoolbook" font-size="19.6" fill="#BFBFBF" transform="matrix(1.00, 0.00, -0.00, -1.00, 214.7, 71.0)">i</text><text xml:space="preserve" font-family="CenturySchoolbook" font-size="19.6" fill="#BFBFBF" transform="matrix(1.00, 0.00, -0.00, -1.00, 221.0, 71.0)">o</text><text xml:space="preserve" font-family="CenturySchoolbook" font-size="19.6" fill="#BFBFBF" transform="matrix(1.00, 0.00, -0.00, -1.00, 230.9, 71.0)"> </text><g><clipPath id="clip-262"><path d="M 97.1 32.6 L 843.2 32.6 L 843.2 158.4 L 97.1 158.4 Z M 97.1 32.6 "></path></clipPath><g clip-path="url(#clip-262)"><text xml:space="preserve" font-family="CenturySchoolbook" font-size="19.6" fill="#67AABE" transform="matrix(1.00, 0.00, -0.00, -1.00, 103.0, 37.0)">h</text><text xml:space="preserve" font-family="CenturySchoolbook" font-size="19.6" fill="#67AABE" transform="matrix(1.00, 0.00, -0.00, -1.00, 115.0, 37.0)">t</text><text xml:space="preserve" font-family="CenturySchoolbook" font-size="19.6" fill="#67AABE" transform="matrix(1.00, 0.00, -0.00, -1.00, 122.8, 37.0)">t</text><text xml:space="preserve" font-family="CenturySchoolbook" font-size="19.6" fill="#67AABE" transform="matrix(1.00, 0.00, -0.00, -1.00, 130.5, 37.0)">p</text><text xml:space="preserve" font-family="CenturySchoolbook" font-size="19.6" fill="#67AABE" transform="matrix(1.00, 0.00, -0.00, -1.00, 141.8, 37.0)">s</text><text xml:space="preserve" font-family="CenturySchoolbook" font-size="19.6" fill="#67AABE" transform="matrix(1.00, 0.00, -0.00, -1.00, 150.9, 37.0)">:</text><text xml:space="preserve" font-family="CenturySchoolbook" font-size="19.6" fill="#67AABE" transform="matrix(1.00, 0.00, -0.00, -1.00, 156.5, 37.0)">/</text><text xml:space="preserve" font-family="CenturySchoolbook" font-size="19.6" fill="#67AABE" transform="matrix(1.00, 0.00, -0.00, -1.00, 162.0, 37.0)">/</text><text xml:space="preserve" font-family="CenturySchoolbook" font-size="19.6" fill="#67AABE" transform="matrix(1.00, 0.00, -0.00, -1.00, 167.5, 37.0)">g</text><text xml:space="preserve" font-family="CenturySchoolbook" font-size="19.6" fill="#67AABE" transform="matrix(1.00, 0.00, -0.00, -1.00, 178.1, 37.0)">i</text><text xml:space="preserve" font-family="CenturySchoolbook" font-size="19.6" fill="#67AABE" transform="matrix(1.00, 0.00, -0.00, -1.00, 184.4, 37.0)">t</text><text xml:space="preserve" font-family="CenturySchoolbook" font-size="19.6" fill="#67AABE" transform="matrix(1.00, 0.00, -0.00, -1.00, 192.1, 37.0)">h</text><text xml:space="preserve" font-family="CenturySchoolbook" font-size="19.6" fill="#67AABE" transform="matrix(1.00, 0.00, -0.00, -1.00, 204.1, 37.0)">u</text><text xml:space="preserve" font-family="CenturySchoolbook" font-size="19.6" fill="#67AABE" transform="matrix(1.00, 0.00, -0.00, -1.00, 216.2, 37.0)">b</text><text xml:space="preserve" font-family="CenturySchoolbook" font-size="19.6" fill="#67AABE" transform="matrix(1.00, 0.00, -0.00, -1.00, 227.1, 37.0)">.</text><text xml:space="preserve" font-family="CenturySchoolbook" font-size="19.6" fill="#67AABE" transform="matrix(1.00, 0.00, -0.00, -1.00, 232.7, 37.0)">c</text><text xml:space="preserve" font-family="CenturySchoolbook" font-size="19.6" fill="#67AABE" transform="matrix(1.00, 0.00, -0.00, -1.00, 241.4, 37.0)">o</text><text xml:space="preserve" font-family="CenturySchoolbook" font-size="19.6" fill="#67AABE" transform="matrix(1.00, 0.00, -0.00, -1.00, 251.3, 37.0)">m</text><text xml:space="preserve" font-family="CenturySchoolbook" font-size="19.6" fill="#67AABE" transform="matrix(1.00, 0.00, -0.00, -1.00, 268.8, 37.0)">/</text><text xml:space="preserve" font-family="CenturySchoolbook" font-size="19.6" fill="#67AABE" transform="matrix(1.00, 0.00, -0.00, -1.00, 274.3, 37.0)">p</text><text xml:space="preserve" font-family="CenturySchoolbook" font-size="19.6" fill="#67AABE" transform="matrix(1.00, 0.00, -0.00, -1.00, 285.7, 37.0)">a</text><text xml:space="preserve" font-family="CenturySchoolbook" font-size="19.6" fill="#67AABE" transform="matrix(1.00, 0.00, -0.00, -1.00, 296.7, 37.0)">r</text><text xml:space="preserve" font-family="CenturySchoolbook" font-size="19.6" fill="#67AABE" transform="matrix(1.00, 0.00, -0.00, -1.00, 305.4, 37.0)">a</text><text xml:space="preserve" font-family="CenturySchoolbook" font-size="19.6" fill="#67AABE" transform="matrix(1.00, 0.00, -0.00, -1.00, 316.4, 37.0)">d</text><text xml:space="preserve" font-family="CenturySchoolbook" font-size="19.6" fill="#67AABE" transform="matrix(1.00, 0.00, -0.00, -1.00, 327.7, 37.0)">o</text><text xml:space="preserve" font-family="CenturySchoolbook" font-size="19.6" fill="#67AABE" transform="matrix(1.00, 0.00, -0.00, -1.00, 337.6, 37.0)">x</text><text xml:space="preserve" font-family="CenturySchoolbook" font-size="19.6" fill="#67AABE" transform="matrix(1.00, 0.00, -0.00, -1.00, 348.2, 37.0)">i</text><text xml:space="preserve" font-family="CenturySchoolbook" font-size="19.6" fill="#67AABE" transform="matrix(1.00, 0.00, -0.00, -1.00, 354.5, 37.0)">c</text><text xml:space="preserve" font-family="CenturySchoolbook" font-size="19.6" fill="#67AABE" transform="matrix(1.00, 0.00, -0.00, -1.00, 363.2, 37.0)">a</text><text xml:space="preserve" font-family="CenturySchoolbook" font-size="19.6" fill="#67AABE" transform="matrix(1.00, 0.00, -0.00, -1.00, 374.2, 37.0)">l</text><text xml:space="preserve" font-family="CenturySchoolbook" font-size="19.6" fill="#67AABE" transform="matrix(1.00, 0.00, -0.00, -1.00, 380.5, 37.0)">-</text><text xml:space="preserve" font-family="CenturySchoolbook" font-size="19.6" fill="#67AABE" transform="matrix(1.00, 0.00, -0.00, -1.00, 387.1, 37.0)">i</text><text xml:space="preserve" font-family="CenturySchoolbook" font-size="19.6" fill="#67AABE" transform="matrix(1.00, 0.00, -0.00, -1.00, 393.3, 37.0)">o</text><text xml:space="preserve" font-family="CenturySchoolbook" font-size="19.6" fill="#67AABE" transform="matrix(1.00, 0.00, -0.00, -1.00, 403.2, 37.0)">/</text><text xml:space="preserve" font-family="CenturySchoolbook" font-size="19.6" fill="#67AABE" transform="matrix(1.00, 0.00, -0.00, -1.00, 408.7, 37.0)">c</text><text xml:space="preserve" font-family="CenturySchoolbook" font-size="19.6" fill="#67AABE" transform="matrix(1.00, 0.00, -0.00, -1.00, 417.5, 37.0)">a</text><text xml:space="preserve" font-family="CenturySchoolbook" font-size="19.6" fill="#67AABE" transform="matrix(1.00, 0.00, -0.00, -1.00, 428.5, 37.0)">s</text><text xml:space="preserve" font-family="CenturySchoolbook" font-size="19.6" fill="#67AABE" transform="matrix(1.00, 0.00, -0.00, -1.00, 437.6, 37.0)">s</text><text xml:space="preserve" font-family="CenturySchoolbook" font-size="19.6" fill="#67AABE" transform="matrix(1.00, 0.00, -0.00, -1.00, 446.8, 37.0)">i</text><text xml:space="preserve" font-family="CenturySchoolbook" font-size="19.6" fill="#67AABE" transform="matrix(1.00, 0.00, -0.00, -1.00, 453.0, 37.0)">e</text><text xml:space="preserve" font-family="CenturySchoolbook" font-size="19.6" fill="#67AABE" transform="matrix(1.00, 0.00, -0.00, -1.00, 462.9, 37.0)">q</text></g></g><g><clipPath id="clip-263"><path d="M 102.0 33.3 L 474.0 33.3 L 474.0 36.2 L 102.0 36.2 Z M 102.0 33.3 "></path></clipPath><g clip-path="url(#clip-263)"><path d="M 3.6 127.3 L 374.6 127.3 " fill="none" stroke="#67AABE" stroke-width="0.98" stroke-miterlimit="0.00" transform="matrix(1.00, 0.00, 0.00, -1.00, 99.4, 162.0)"></path></g></g></g></svg>