<?xml version="1.0" encoding="UTF-8" standalone="no"?><svg xmlns="http://www.w3.org/2000/svg" xmlns:xlink="http://www.w3.org/1999/xlink" clip-rule="evenodd" stroke-miterlimit="4.00" viewBox="0 0 960 540"><desc>SVG generated by Keynote</desc><defs></defs><g transform="matrix(1.00, 0.00, -0.00, -1.00, 0.0, 540.0)"><path d="M 0.0 540.0 L 960.0 540.0 L 960.0 0.0 L 0.0 0.0 Z M 0.0 540.0 " fill="#343437"></path><path d="M 0.0 540.0 L 36.0 540.0 L 36.0 0.0 L 0.0 0.0 Z M 0.0 540.0 " fill="#6E6E74"></path><text xml:space="preserve" font-family="CenturySchoolbook" font-size="72.0" fill="#FFFFFF" transform="matrix(1.00, 0.00, -0.00, -1.00, 103.0, 255.0)">A</text><text xml:space="preserve" font-family="CenturySchoolbook" font-size="72.0" fill="#FFFFFF" transform="matrix(1.00, 0.00, -0.00, -1.00, 154.5, 255.0)"> </text><text xml:space="preserve" font-family="CenturySchoolbook" font-size="72.0" fill="#FFFFFF" transform="matrix(1.00, 0.00, -0.00, -1.00, 174.0, 255.0)">m</text><text xml:space="preserve" font-family="CenturySchoolbook" font-size="72.0" fill="#FFFFFF" transform="matrix(1.00, 0.00, -0.00, -1.00, 237.6, 255.0)">e</text><text xml:space="preserve" font-family="CenturySchoolbook" font-size="72.0" fill="#FFFFFF" transform="matrix(1.00, 0.00, -0.00, -1.00, 273.1, 255.0)">c</text><text xml:space="preserve" font-family="CenturySchoolbook" font-size="72.0" fill="#FFFFFF" transform="matrix(1.00, 0.00, -0.00, -1.00, 304.5, 255.0)">h</text><text xml:space="preserve" font-family="CenturySchoolbook" font-size="72.0" fill="#FFFFFF" transform="matrix(1.00, 0.00, -0.00, -1.00, 348.0, 255.0)">a</text><text xml:space="preserve" font-family="CenturySchoolbook" font-size="72.0" fill="#FFFFFF" transform="matrix(1.00, 0.00, -0.00, -1.00, 387.6, 255.0)">n</text><text xml:space="preserve" font-family="CenturySchoolbook" font-size="72.0" fill="#FFFFFF" transform="matrix(1.00, 0.00, -0.00, -1.00, 431.1, 255.0)">i</text><text xml:space="preserve" font-family="CenturySchoolbook" font-size="72.0" fill="#FFFFFF" transform="matrix(1.00, 0.00, -0.00, -1.00, 453.2, 255.0)">s</text><text xml:space="preserve" font-family="CenturySchoolbook" font-size="72.0" fill="#FFFFFF" transform="matrix(1.00, 0.00, -0.00, -1.00, 486.1, 255.0)">m</text><text xml:space="preserve" font-family="CenturySchoolbook" font-size="72.0" fill="#FFFFFF" transform="matrix(1.00, 0.00, -0.00, -1.00, 549.6, 255.0)"> </text><text xml:space="preserve" font-family="CenturySchoolbook" font-size="72.0" fill="#FFFFFF" transform="matrix(1.00, 0.00, -0.00, -1.00, 569.1, 255.0)">f</text><text xml:space="preserve" font-family="CenturySchoolbook" font-size="72.0" fill="#FFFFFF" transform="matrix(1.00, 0.00, -0.00, -1.00, 592.6, 255.0)">o</text><text xml:space="preserve" font-family="CenturySchoolbook" font-size="72.0" fill="#FFFFFF" transform="matrix(1.00, 0.00, -0.00, -1.00, 628.1, 255.0)">r</text><text xml:space="preserve" font-family="CenturySchoolbook" font-size="72.0" fill="#FFFFFF" transform="matrix(1.00, 0.00, -0.00, -1.00, 659.6, 255.0)"> </text><g><clipPath id="clip-116"><path d="M 81.3 165.8 L 859.0 165.8 L 859.0 476.6 L 81.3 476.6 Z M 81.3 165.8 "></path></clipPath><g clip-path="url(#clip-116)"><text xml:space="preserve" font-family="CenturySchoolbook" font-size="72.0" fill="#FFFFFF" transform="matrix(1.00, 0.00, -0.00, -1.00, 103.0, 181.0)">m</text><text xml:space="preserve" font-family="CenturySchoolbook" font-size="72.0" fill="#FFFFFF" transform="matrix(1.00, 0.00, -0.00, -1.00, 166.5, 181.0)">e</text><text xml:space="preserve" font-family="CenturySchoolbook" font-size="72.0" fill="#FFFFFF" transform="matrix(1.00, 0.00, -0.00, -1.00, 202.0, 181.0)">s</text><text xml:space="preserve" font-family="CenturySchoolbook" font-size="72.0" fill="#FFFFFF" transform="matrix(1.00, 0.00, -0.00, -1.00, 234.9, 181.0)">s</text><text xml:space="preserve" font-family="CenturySchoolbook" font-size="72.0" fill="#FFFFFF" transform="matrix(1.00, 0.00, -0.00, -1.00, 267.7, 181.0)">a</text><text xml:space="preserve" font-family="CenturySchoolbook" font-size="72.0" fill="#FFFFFF" transform="matrix(1.00, 0.00, -0.00, -1.00, 307.3, 181.0)">g</text><text xml:space="preserve" font-family="CenturySchoolbook" font-size="72.0" fill="#FFFFFF" transform="matrix(1.00, 0.00, -0.00, -1.00, 345.5, 181.0)">e</text><text xml:space="preserve" font-family="CenturySchoolbook" font-size="72.0" fill="#FFFFFF" transform="matrix(1.00, 0.00, -0.00, -1.00, 381.0, 181.0)"> </text><text xml:space="preserve" font-family="CenturySchoolbook" font-size="72.0" fill="#FFFFFF" transform="matrix(1.00, 0.00, -0.00, -1.00, 400.5, 181.0)">r</text><text xml:space="preserve" font-family="CenturySchoolbook" font-size="72.0" fill="#FFFFFF" transform="matrix(1.00, 0.00, -0.00, -1.00, 431.9, 181.0)">e</text><text xml:space="preserve" font-family="CenturySchoolbook" font-size="72.0" fill="#FFFFFF" transform="matrix(1.00, 0.00, -0.00, -1.00, 467.5, 181.0)">-</text><text xml:space="preserve" font-family="CenturySchoolbook" font-size="72.0" fill="#FFFFFF" transform="matrix(1.00, 0.00, -0.00, -1.00, 490.9, 181.0)">d</text><text xml:space="preserve" font-family="CenturySchoolbook" font-size="72.0" fill="#FFFFFF" transform="matrix(1.00, 0.00, -0.00, -1.00, 531.8, 181.0)">e</text><text xml:space="preserve" font-family="CenturySchoolbook" font-size="72.0" fill="#FFFFFF" transform="matrix(1.00, 0.00, -0.00, -1.00, 567.3, 181.0)">l</text><text xml:space="preserve" font-family="CenturySchoolbook" font-size="72.0" fill="#FFFFFF" transform="matrix(1.00, 0.00, -0.00, -1.00, 589.5, 181.0)">i</text><text xml:space="preserve" font-family="CenturySchoolbook" font-size="72.0" fill="#FFFFFF" transform="matrix(1.00, 0.00, -0.00, -1.00, 611.7, 181.0)">v</text><text xml:space="preserve" font-family="CenturySchoolbook" font-size="72.0" fill="#FFFFFF" transform="matrix(1.00, 0.00, -0.00, -1.00, 649.9, 181.0)">e</text><text xml:space="preserve" font-family="CenturySchoolbook" font-size="72.0" fill="#FFFFFF" transform="matrix(1.00, 0.00, -0.00, -1.00, 685.4, 181.0)">r</text><text xml:space="preserve" font-family="CenturySchoolbook" font-size="72.0" fill="#FFFFFF" transform="matrix(1.00, 0.00, -0.00, -1.00, 716.8, 181.0)">y</text></g></g><text xml:space="preserve" font-family="CenturySchoolbook" font-size="22.0" fill="#BFBFBF" transform="matrix(1.00, 0.00, -0.00, -1.00, 103.0, 136.0)">(</text><text xml:space="preserve" font-family="CenturySchoolbook" font-size="22.0" fill="#BFBFBF" transform="matrix(1.00, 0.00, -0.00, -1.00, 110.4, 136.0)">i</text><text xml:space="preserve" font-family="CenturySchoolbook" font-size="22.0" fill="#BFBFBF" transform="matrix(1.00, 0.00, -0.00, -1.00, 117.5, 136.0)">n</text><text xml:space="preserve" font-family="CenturySchoolbook" font-size="22.0" fill="#BFBFBF" transform="matrix(1.00, 0.00, -0.00, -1.00, 131.0, 136.0)"> </text><text xml:space="preserve" font-family="CenturySchoolbook" font-size="22.0" fill="#BFBFBF" transform="matrix(1.00, 0.00, -0.00, -1.00, 137.2, 136.0)">a</text><text xml:space="preserve" font-family="CenturySchoolbook" font-size="22.0" fill="#BFBFBF" transform="matrix(1.00, 0.00, -0.00, -1.00, 149.5, 136.0)"> </text><text xml:space="preserve" font-family="CenturySchoolbook" font-size="22.0" fill="#BFBFBF" transform="matrix(1.00, 0.00, -0.00, -1.00, 155.8, 136.0)">s</text><text xml:space="preserve" font-family="CenturySchoolbook" font-size="22.0" fill="#BFBFBF" transform="matrix(1.00, 0.00, -0.00, -1.00, 166.0, 136.0)">t</text><text xml:space="preserve" font-family="CenturySchoolbook" font-size="22.0" fill="#BFBFBF" transform="matrix(1.00, 0.00, -0.00, -1.00, 174.7, 136.0)">a</text><text xml:space="preserve" font-family="CenturySchoolbook" font-size="22.0" fill="#BFBFBF" transform="matrix(1.00, 0.00, -0.00, -1.00, 187.0, 136.0)">t</text><text xml:space="preserve" font-family="CenturySchoolbook" font-size="22.0" fill="#BFBFBF" transform="matrix(1.00, 0.00, -0.00, -1.00, 195.7, 136.0)">e</text><text xml:space="preserve" font-family="CenturySchoolbook" font-size="22.0" fill="#BFBFBF" transform="matrix(1.00, 0.00, -0.00, -1.00, 206.8, 136.0)">l</text><text xml:space="preserve" font-family="CenturySchoolbook" font-size="22.0" fill="#BFBFBF" transform="matrix(1.00, 0.00, -0.00, -1.00, 213.8, 136.0)">e</text><text xml:space="preserve" font-family="CenturySchoolbook" font-size="22.0" fill="#BFBFBF" transform="matrix(1.00, 0.00, -0.00, -1.00, 224.9, 136.0)">s</text><text xml:space="preserve" font-family="CenturySchoolbook" font-size="22.0" fill="#BFBFBF" transform="matrix(1.00, 0.00, -0.00, -1.00, 235.2, 136.0)">s</text><text xml:space="preserve" font-family="CenturySchoolbook" font-size="22.0" fill="#BFBFBF" transform="matrix(1.00, 0.00, -0.00, -1.00, 245.5, 136.0)"> </text><text xml:space="preserve" font-family="CenturySchoolbook" font-size="22.0" fill="#BFBFBF" transform="matrix(1.00, 0.00, -0.00, -1.00, 251.7, 136.0)">s</text><text xml:space="preserve" font-family="CenturySchoolbook" font-size="22.0" fill="#BFBFBF" transform="matrix(1.00, 0.00, -0.00, -1.00, 262.0, 136.0)">y</text><text xml:space="preserve" font-family="CenturySchoolbook" font-size="22.0" fill="#BFBFBF" transform="matrix(1.00, 0.00, -0.00, -1.00, 273.9, 136.0)">s</text><text xml:space="preserve" font-family="CenturySchoolbook" font-size="22.0" fill="#BFBFBF" transform="matrix(1.00, 0.00, -0.00, -1.00, 284.2, 136.0)">t</text><text xml:space="preserve" font-family="CenturySchoolbook" font-size="22.0" fill="#BFBFBF" transform="matrix(1.00, 0.00, -0.00, -1.00, 292.9, 136.0)">e</text><text xml:space="preserve" font-family="CenturySchoolbook" font-size="22.0" fill="#BFBFBF" transform="matrix(1.00, 0.00, -0.00, -1.00, 304.0, 136.0)">m</text><text xml:space="preserve" font-family="CenturySchoolbook" font-size="22.0" fill="#BFBFBF" transform="matrix(1.00, 0.00, -0.00, -1.00, 323.6, 136.0)">)</text></g></svg>