<?xml version="1.0" encoding="UTF-8" standalone="no"?><svg xmlns="http://www.w3.org/2000/svg" xmlns:xlink="http://www.w3.org/1999/xlink" clip-rule="evenodd" stroke-miterlimit="4.00" viewBox="0 0 960 540"><desc>SVG generated by Keynote</desc><defs></defs><g transform="matrix(1.00, 0.00, -0.00, -1.00, 0.0, 540.0)"><path d="M 0.0 540.0 L 960.0 540.0 L 960.0 0.0 L 0.0 0.0 Z M 0.0 540.0 " fill="#FFFFFF"></path><path d="M 889.2 540.0 L 961.2 540.0 L 961.2 0.0 L 889.2 0.0 Z M 889.2 540.0 " fill="#343437"></path><path d="M 0.0 540.0 L 36.0 540.0 L 36.0 0.0 L 0.0 0.0 Z M 0.0 540.0 " fill="#6E6E74"></path><text xml:space="preserve" font-family="CenturySchoolbook" font-size="72.0" fill="#000000" transform="matrix(1.00, 0.00, -0.00, -1.00, 103.0, 255.0)">B</text><text xml:space="preserve" font-family="CenturySchoolbook" font-size="72.0" fill="#000000" transform="matrix(1.00, 0.00, -0.00, -1.00, 154.0, 255.0)">u</text><text xml:space="preserve" font-family="CenturySchoolbook" font-size="72.0" fill="#000000" transform="matrix(1.00, 0.00, -0.00, -1.00, 197.0, 255.0)">t</text><text xml:space="preserve" font-family="CenturySchoolbook" font-size="72.0" fill="#000000" transform="matrix(1.00, 0.00, -0.00, -1.00, 224.0, 255.0)"> </text><text xml:space="preserve" font-family="CenturySchoolbook" font-size="72.0" fill="#000000" transform="matrix(1.00, 0.00, -0.00, -1.00, 243.1, 255.0)">a</text><text xml:space="preserve" font-family="CenturySchoolbook" font-size="72.0" fill="#000000" transform="matrix(1.00, 0.00, -0.00, -1.00, 282.1, 255.0)">r</text><text xml:space="preserve" font-family="CenturySchoolbook" font-size="72.0" fill="#000000" transform="matrix(1.00, 0.00, -0.00, -1.00, 313.1, 255.0)">e</text><text xml:space="preserve" font-family="CenturySchoolbook" font-size="72.0" fill="#000000" transform="matrix(1.00, 0.00, -0.00, -1.00, 348.1, 255.0)">n</text><text xml:space="preserve" font-family="CenturySchoolbook" font-size="72.0" fill="#000000" transform="matrix(1.00, 0.00, -0.00, -1.00, 391.1, 255.0)">’</text><text xml:space="preserve" font-family="CenturySchoolbook" font-size="72.0" fill="#000000" transform="matrix(1.00, 0.00, -0.00, -1.00, 404.8, 255.0)">t</text><text xml:space="preserve" font-family="CenturySchoolbook" font-size="72.0" fill="#000000" transform="matrix(1.00, 0.00, -0.00, -1.00, 431.8, 255.0)"> </text><text xml:space="preserve" font-family="CenturySchoolbook" font-size="72.0" fill="#000000" transform="matrix(1.00, 0.00, -0.00, -1.00, 450.8, 255.0)">q</text><text xml:space="preserve" font-family="CenturySchoolbook" font-size="72.0" fill="#000000" transform="matrix(1.00, 0.00, -0.00, -1.00, 489.9, 255.0)">u</text><text xml:space="preserve" font-family="CenturySchoolbook" font-size="72.0" fill="#000000" transform="matrix(1.00, 0.00, -0.00, -1.00, 532.9, 255.0)">e</text><text xml:space="preserve" font-family="CenturySchoolbook" font-size="72.0" fill="#000000" transform="matrix(1.00, 0.00, -0.00, -1.00, 567.9, 255.0)">u</text><text xml:space="preserve" font-family="CenturySchoolbook" font-size="72.0" fill="#000000" transform="matrix(1.00, 0.00, -0.00, -1.00, 610.9, 255.0)">e</text><text xml:space="preserve" font-family="CenturySchoolbook" font-size="72.0" fill="#000000" transform="matrix(1.00, 0.00, -0.00, -1.00, 645.9, 255.0)">s</text><text xml:space="preserve" font-family="CenturySchoolbook" font-size="72.0" fill="#000000" transform="matrix(1.00, 0.00, -0.00, -1.00, 678.3, 255.0)"> </text><g><clipPath id="clip-274"><path d="M 81.3 165.8 L 859.0 165.8 L 859.0 476.6 L 81.3 476.6 Z M 81.3 165.8 "></path></clipPath><g clip-path="url(#clip-274)"><text xml:space="preserve" font-family="CenturySchoolbook" font-size="72.0" fill="#000000" transform="matrix(1.00, 0.00, -0.00, -1.00, 103.0, 181.0)">a</text><text xml:space="preserve" font-family="CenturySchoolbook" font-size="72.0" fill="#000000" transform="matrix(1.00, 0.00, -0.00, -1.00, 142.1, 181.0)">n</text><text xml:space="preserve" font-family="CenturySchoolbook" font-size="72.0" fill="#000000" transform="matrix(1.00, 0.00, -0.00, -1.00, 185.1, 181.0)">t</text><text xml:space="preserve" font-family="CenturySchoolbook" font-size="72.0" fill="#000000" transform="matrix(1.00, 0.00, -0.00, -1.00, 212.1, 181.0)">i</text><text xml:space="preserve" font-family="CenturySchoolbook" font-size="72.0" fill="#000000" transform="matrix(1.00, 0.00, -0.00, -1.00, 233.8, 181.0)">p</text><text xml:space="preserve" font-family="CenturySchoolbook" font-size="72.0" fill="#000000" transform="matrix(1.00, 0.00, -0.00, -1.00, 274.1, 181.0)">a</text><text xml:space="preserve" font-family="CenturySchoolbook" font-size="72.0" fill="#000000" transform="matrix(1.00, 0.00, -0.00, -1.00, 313.2, 181.0)">t</text><text xml:space="preserve" font-family="CenturySchoolbook" font-size="72.0" fill="#000000" transform="matrix(1.00, 0.00, -0.00, -1.00, 340.2, 181.0)">t</text><text xml:space="preserve" font-family="CenturySchoolbook" font-size="72.0" fill="#000000" transform="matrix(1.00, 0.00, -0.00, -1.00, 367.3, 181.0)">e</text><text xml:space="preserve" font-family="CenturySchoolbook" font-size="72.0" fill="#000000" transform="matrix(1.00, 0.00, -0.00, -1.00, 402.3, 181.0)">r</text><text xml:space="preserve" font-family="CenturySchoolbook" font-size="72.0" fill="#000000" transform="matrix(1.00, 0.00, -0.00, -1.00, 433.2, 181.0)">n</text><text xml:space="preserve" font-family="CenturySchoolbook" font-size="72.0" fill="#000000" transform="matrix(1.00, 0.00, -0.00, -1.00, 476.2, 181.0)">s</text><text xml:space="preserve" font-family="CenturySchoolbook" font-size="72.0" fill="#000000" transform="matrix(1.00, 0.00, -0.00, -1.00, 508.6, 181.0)">?</text></g></g></g></svg>